<svg width="70" height="70" viewBox="0 0 70 70" fill="none" xmlns="http://www.w3.org/2000/svg">
<path d="M36.3907 6.87018C36.3189 6.8713 36.248 6.88653 36.1821 6.91505C36.1161 6.94356 36.0565 6.98477 36.0065 7.03634C35.9565 7.08792 35.9172 7.14887 35.8907 7.21565C35.8643 7.28243 35.8512 7.35379 35.8524 7.4256V7.97248H35.3055C35.233 7.97145 35.1611 7.98484 35.0938 8.01187C35.0266 8.03889 34.9654 8.07901 34.9138 8.12989C34.8621 8.18078 34.8212 8.24141 34.7932 8.30827C34.7652 8.37513 34.7508 8.44688 34.7508 8.51935C34.7508 8.59183 34.7652 8.66358 34.7932 8.73044C34.8212 8.7973 34.8621 8.85793 34.9138 8.90882C34.9654 8.9597 35.0266 8.99982 35.0938 9.02684C35.1611 9.05387 35.233 9.06725 35.3055 9.06623H35.8524V9.6131C35.8513 9.68557 35.8647 9.75748 35.8917 9.82472C35.9188 9.89197 35.9589 9.95323 36.0098 10.0048C36.0607 10.0564 36.1213 10.0974 36.1881 10.1253C36.255 10.1533 36.3268 10.1677 36.3992 10.1677C36.4717 10.1677 36.5435 10.1533 36.6103 10.1253C36.6772 10.0974 36.7378 10.0564 36.7887 10.0048C36.8396 9.95323 36.8797 9.89197 36.9067 9.82472C36.9337 9.75748 36.9471 9.68557 36.9461 9.6131V9.06623H37.493C37.5654 9.06725 37.6374 9.05387 37.7046 9.02684C37.7719 8.99982 37.8331 8.9597 37.8847 8.90882C37.9363 8.85793 37.9773 8.7973 38.0053 8.73044C38.0332 8.66358 38.0476 8.59183 38.0476 8.51935C38.0476 8.44688 38.0332 8.37513 38.0053 8.30827C37.9773 8.24141 37.9363 8.18078 37.8847 8.12989C37.8331 8.07901 37.7719 8.03889 37.7046 8.01187C37.6374 7.98484 37.5654 7.97145 37.493 7.97248H36.9461V7.4256C36.9473 7.35235 36.9337 7.27955 36.9062 7.21165C36.8787 7.14374 36.8378 7.08207 36.786 7.03027C36.7342 6.97846 36.6725 6.93761 36.6046 6.91011C36.5367 6.8826 36.4639 6.86904 36.3907 6.87018ZM17.5833 9.38026C17.4742 9.37985 17.3675 9.41204 17.2768 9.47278C17.1862 9.53352 17.1158 9.61998 17.0747 9.72105C17.0336 9.82212 17.0236 9.93319 17.0461 10.0399C17.0686 10.1467 17.1225 10.2443 17.2009 10.3202L17.5876 10.7069L17.2009 11.0935C17.1484 11.1439 17.1065 11.2042 17.0777 11.271C17.0488 11.3378 17.0336 11.4097 17.0328 11.4824C17.0321 11.5552 17.0459 11.6274 17.0734 11.6947C17.1009 11.7621 17.1415 11.8233 17.193 11.8748C17.2444 11.9262 17.3056 11.9669 17.373 11.9944C17.4404 12.0219 17.5125 12.0357 17.5853 12.0349C17.658 12.0342 17.7299 12.0189 17.7967 11.9901C17.8635 11.9612 17.9239 11.9193 17.9742 11.8668L18.3609 11.4802L18.7476 11.8668C18.7979 11.9193 18.8583 11.9612 18.9251 11.9901C18.9919 12.0189 19.0638 12.0342 19.1365 12.0349C19.2093 12.0357 19.2815 12.0219 19.3488 11.9944C19.4162 11.9669 19.4774 11.9262 19.5288 11.8748C19.5803 11.8233 19.621 11.7621 19.6485 11.6947C19.676 11.6274 19.6897 11.5552 19.689 11.4824C19.6883 11.4097 19.673 11.3378 19.6441 11.271C19.6153 11.2042 19.5734 11.1439 19.5209 11.0935L19.1342 10.7069L19.5209 10.3202C19.6003 10.2434 19.6546 10.1444 19.6767 10.0362C19.6988 9.928 19.6876 9.81563 19.6446 9.71391C19.6016 9.61218 19.5288 9.52587 19.4358 9.46631C19.3428 9.40674 19.2339 9.37677 19.1235 9.38026C18.9813 9.38477 18.8464 9.44454 18.7476 9.54688L18.3609 9.93354L17.9742 9.54688C17.9235 9.49443 17.8628 9.45267 17.7956 9.42405C17.7285 9.39543 17.6563 9.38054 17.5833 9.38026V9.38026ZM58.3597 11.3285C53.4262 11.3285 48.9759 12.1674 44.9805 13.5886C44.9697 13.5919 44.959 13.5956 44.9484 13.5996C44.9463 13.6002 44.9442 13.5996 44.942 13.5996C44.194 13.8666 43.4574 14.1473 42.7416 14.4541C42.7235 14.465 42.7042 14.4672 42.6861 14.4749C42.664 14.4848 42.6426 14.4961 42.622 14.5088C38.1259 16.4542 34.2635 19.1499 31.0138 22.2056C28.2348 24.8187 25.9225 27.6901 24.0026 30.5797C23.2143 30.1969 22.1476 29.8928 21.0183 29.6846C19.6728 29.4364 18.3382 29.3313 17.3632 29.6146C16.4654 29.7444 15.8185 30.5054 15.1565 31.5201C14.4832 32.5521 13.8223 33.9118 13.1955 35.4123C11.9417 38.4135 10.8311 41.9713 10.1812 44.457C10.1541 44.5609 10.1581 44.6704 10.1928 44.772C10.2274 44.8735 10.2912 44.9626 10.3761 45.0282C10.4611 45.0938 10.5634 45.1331 10.6705 45.1409C10.7775 45.1487 10.8845 45.1248 10.978 45.0723C12.0183 44.4838 13.1148 43.6377 14.1333 42.9531C15.1517 42.2684 16.117 41.7917 16.6241 41.7953C17.3442 41.7953 17.5973 41.8927 17.8054 42.0069C17.981 42.1032 18.2125 42.2817 18.5617 42.4511C18.6325 42.5122 18.7178 42.5542 18.8095 42.5729C20.0538 42.8218 21.4449 43.5467 22.7465 44.5362C22.4772 44.863 22.2011 45.181 21.939 45.5123C20.8377 44.6308 19.5786 43.8831 18.0532 43.5256C18.0176 43.5161 17.9811 43.5103 17.9443 43.5081V43.5081C17.8345 43.5048 17.7263 43.5347 17.6337 43.5937C17.5411 43.6528 17.4685 43.7383 17.4252 43.8393L16.6284 45.6999C16.5853 45.801 16.5736 45.9128 16.5949 46.0206C16.6163 46.1284 16.6696 46.2274 16.748 46.3045L19.4055 48.9256C18.9854 49.5158 18.5494 50.1176 18.222 50.5962C17.0269 49.7197 15.5272 49.1879 13.8812 49.2461H13.8662H13.8491C12.2431 49.3973 10.9022 50.5392 9.77321 52.0424C8.64423 53.5456 7.70208 55.4529 6.93416 57.3358C5.3983 61.1016 4.56508 64.785 4.56508 64.785L4.375 65.6251L5.2124 65.4478C5.2124 65.4478 8.93198 64.6591 12.7383 63.1684C14.6415 62.4231 16.5698 61.5035 18.0917 60.3913C19.6115 59.2806 20.7683 57.9515 20.9308 56.3453C21.1202 54.8153 20.6201 53.2665 19.6597 52.0066C20.1629 51.664 20.7174 51.2758 21.3367 50.8359L23.8382 53.3054C23.9209 53.3868 24.0274 53.4398 24.1422 53.4567C24.257 53.4736 24.3743 53.4535 24.4769 53.3994L26.218 52.481C26.3222 52.4257 26.4057 52.3382 26.4562 52.2316C26.5066 52.1249 26.5212 52.0049 26.4978 51.8892C26.2217 50.5089 25.5535 49.3475 24.7333 48.3111C25.0654 48.0496 25.3842 47.7743 25.7117 47.5057C26.6936 48.8026 27.4122 50.189 27.6599 51.4278C27.6772 51.5096 27.713 51.5863 27.7646 51.6521C27.9356 52.0164 28.1169 52.2524 28.2153 52.434C28.3293 52.6444 28.422 52.8979 28.4268 53.6153C28.4291 54.1228 27.9508 55.0867 27.2647 56.104C26.5786 57.1213 25.7314 58.2155 25.1413 59.2548C25.0884 59.3483 25.0641 59.4553 25.0716 59.5624C25.0791 59.6696 25.1179 59.7722 25.1833 59.8574C25.2487 59.9426 25.3377 60.0067 25.4393 60.0416C25.5408 60.0766 25.6504 60.0809 25.7544 60.0539C28.2412 59.4083 31.8023 58.3011 34.8056 57.0525C36.3072 56.4282 37.6668 55.7717 38.6999 55.1C39.7162 54.4395 40.4809 53.7935 40.6119 52.8954C40.8959 51.9209 40.7915 50.5883 40.5456 49.2423C40.3375 48.1031 40.0302 47.0279 39.6442 46.2368C42.5362 44.3164 45.4115 42.0048 48.0267 39.2235C51.0714 35.9855 53.7557 32.136 55.6958 27.658C55.7213 27.6241 55.7428 27.5874 55.7599 27.5486C55.9085 27.203 56.033 26.8435 56.17 26.4911C56.2818 26.208 56.3954 25.9268 56.5011 25.6388C56.5442 25.5205 56.5956 25.407 56.6379 25.2884C56.6521 25.2476 56.6614 25.2053 56.6656 25.1623C58.0498 21.2311 58.8734 16.8641 58.8916 12.031V12.0288C58.9022 11.994 58.9094 11.9581 58.913 11.9219C58.9175 11.8676 58.9139 11.8128 58.9022 11.7595C58.8944 11.7236 58.8829 11.6885 58.8681 11.6549C58.846 11.6044 58.8165 11.5576 58.7805 11.516C58.7567 11.4885 58.7302 11.4635 58.7014 11.4413C58.687 11.4306 58.672 11.4206 58.6566 11.4113C58.6407 11.4012 58.6243 11.392 58.6074 11.3836C58.5914 11.3757 58.575 11.3686 58.5583 11.3623C58.5408 11.3564 58.5229 11.3513 58.5049 11.3473C58.4699 11.3381 58.4341 11.3324 58.3981 11.3302C58.3853 11.3291 58.3724 11.3283 58.3596 11.328L58.3597 11.3285ZM57.753 12.4821C57.6896 16.7112 57.0061 20.567 55.8624 24.0711L46.1618 14.3704C49.6659 13.2268 53.5239 12.5454 57.753 12.4821ZM26.8054 13.1229C26.733 13.1219 26.661 13.1353 26.5938 13.1623C26.5265 13.1893 26.4653 13.2295 26.4137 13.2803C26.3621 13.3312 26.3211 13.3919 26.2931 13.4587C26.2652 13.5256 26.2508 13.5973 26.2508 13.6698C26.2508 13.7423 26.2652 13.814 26.2931 13.8809C26.3211 13.9478 26.3621 14.0084 26.4137 14.0593C26.4653 14.1102 26.5265 14.1503 26.5938 14.1773C26.661 14.2043 26.733 14.2177 26.8054 14.2167H32.2742H34.4446C34.517 14.2177 34.589 14.2043 34.6562 14.1773C34.7235 14.1503 34.7847 14.1102 34.8363 14.0593C34.8879 14.0084 34.9289 13.9478 34.9569 13.8809C34.9848 13.814 34.9992 13.7423 34.9992 13.6698C34.9992 13.5973 34.9848 13.5256 34.9569 13.4587C34.9289 13.3919 34.8879 13.3312 34.8363 13.2803C34.7847 13.2295 34.7235 13.1893 34.6562 13.1623C34.589 13.1353 34.517 13.1219 34.4446 13.1229H32.2742H26.8054ZM23.5242 13.1229C22.7846 13.112 22.7846 14.2272 23.5242 14.2167H24.6179C25.3575 14.2276 25.3575 13.1123 24.6179 13.1229H23.5242ZM27.3587 14.2167C27.4973 14.2225 27.6285 14.2808 27.7257 14.3797C27.823 14.4786 27.8791 14.6108 27.8826 14.7495C27.8861 14.8881 27.8369 15.023 27.7448 15.1267C27.6526 15.2304 27.5246 15.2953 27.3865 15.3082H25.7031C24.9636 15.2973 24.9636 16.4125 25.7031 16.402H33.3508C34.0904 16.4129 34.0904 15.2977 33.3508 15.3082H32.757C32.619 15.2991 32.4895 15.238 32.3947 15.1373C32.2999 15.0366 32.2468 14.9037 32.246 14.7654C32.2451 14.6271 32.2967 14.4937 32.3903 14.3919C32.4839 14.29 32.6126 14.2275 32.7505 14.2167H30.6463C30.7849 14.2225 30.9161 14.2808 31.0134 14.3797C31.1106 14.4786 31.1667 14.6108 31.1702 14.7495C31.1737 14.8881 31.1245 15.023 31.0324 15.1267C30.9403 15.2304 30.8122 15.2953 30.6741 15.3082H29.4693C29.3313 15.2991 29.2018 15.238 29.107 15.1373C29.0122 15.0366 28.9591 14.9037 28.9582 14.7654C28.9574 14.6271 29.009 14.4937 29.1026 14.3919C29.1962 14.29 29.3249 14.2275 29.4628 14.2167H27.3586H27.3587ZM45.0168 14.7699L55.4608 25.2139C55.3236 25.5919 55.1793 25.964 55.0314 26.3333L43.8995 15.1993C44.2684 15.0516 44.6393 14.9069 45.0168 14.7699ZM42.8036 15.65L54.5828 27.4313C52.7154 31.6948 50.1501 35.3657 47.2299 38.4713C44.3854 41.4965 41.2204 43.9709 38.0698 45.9525C36.4154 46.9366 34.5492 47.9877 32.6672 48.9004C31.2245 49.5727 29.8239 50.1471 28.5123 50.603C28.1426 49.3155 27.4678 48.0205 26.5533 46.8091C27.9687 45.5971 29.2636 44.3523 30.1572 43.1861C30.6981 42.4801 31.1518 41.4233 31.5073 40.5115C31.8627 39.5997 32.099 38.8409 32.099 38.8409C32.1247 38.7581 32.1304 38.6704 32.1156 38.5849C32.1007 38.4995 32.0658 38.4188 32.0136 38.3495C31.9615 38.2802 31.8936 38.2243 31.8156 38.1865C31.7375 38.1486 31.6516 38.1298 31.5649 38.1317C31.5143 38.1321 31.464 38.1394 31.4154 38.1536C31.4154 38.1536 30.6563 38.3916 29.7449 38.7474C28.8334 39.1031 27.7763 39.5576 27.0703 40.0975C25.9048 40.9889 24.6589 42.2795 23.4451 43.6907C22.2278 42.7681 20.9246 42.0928 19.6298 41.721C20.1001 40.368 20.6914 38.921 21.3922 37.4294C22.328 35.5098 23.414 33.5969 24.4513 31.9029C26.4056 28.8376 28.8191 25.768 31.7615 23.0013C34.8676 20.0807 38.5393 17.5159 42.8036 15.6484V15.65ZM27.9205 16.4042C28.0591 16.41 28.1903 16.4683 28.2876 16.5672C28.3848 16.6661 28.4409 16.7983 28.4444 16.937C28.448 17.0756 28.3987 17.2105 28.3066 17.3142C28.2145 17.4179 28.0864 17.4828 27.9483 17.4957H26.7969C26.0573 17.4848 26.0573 18.6 26.7969 18.5895H30.0696C30.8027 18.6004 30.8071 17.5067 30.0867 17.4979C30.0845 17.4979 30.0824 17.4979 30.0802 17.4979C30.0762 17.4979 30.0736 17.4979 30.0695 17.4979H30.031C29.893 17.4888 29.7636 17.4277 29.6688 17.327C29.574 17.2263 29.5209 17.0934 29.52 16.9551C29.5192 16.8168 29.5708 16.6833 29.6644 16.5815C29.758 16.4797 29.8867 16.4171 30.0246 16.4063H27.9204L27.9205 16.4042ZM32.2571 17.4979C31.5175 17.487 31.5175 18.6022 32.2571 18.5917C32.9966 18.6026 32.9966 17.4873 32.2571 17.4979ZM40.9344 17.7798C40.8484 17.7828 40.7642 17.806 40.6888 17.8477C39.6326 18.4251 38.6166 19.043 37.6404 19.6976C36.6641 20.3524 35.7286 21.0442 34.8312 21.7634C33.9338 22.4824 33.0747 23.2292 32.2549 24C31.4352 24.7709 30.6528 25.5655 29.9094 26.3754C29.9057 26.3798 29.9021 26.3841 29.8986 26.3885L28.869 27.5912C28.8223 27.6458 28.7868 27.7091 28.7645 27.7773C28.7422 27.8456 28.7336 27.9176 28.7391 27.9892C28.7447 28.0608 28.7643 28.1307 28.7968 28.1947C28.8294 28.2587 28.8742 28.3158 28.9288 28.3625C28.9833 28.4092 29.0466 28.4447 29.1149 28.4669C29.1831 28.4892 29.2552 28.4978 29.3268 28.4922C29.3984 28.4867 29.4682 28.4671 29.5322 28.4346C29.5963 28.402 29.6533 28.3572 29.7 28.3026L30.7275 27.1L30.7168 27.1174C31.4427 26.3267 32.2052 25.5514 33.0047 24.7996C33.8042 24.0478 34.6407 23.3188 35.5148 22.6185C36.3889 21.918 37.2995 21.2474 38.2491 20.6105C39.1988 19.9737 40.1878 19.3708 41.2142 18.8096C41.3239 18.7515 41.4105 18.6578 41.4599 18.5439C41.5093 18.43 41.5184 18.3027 41.4859 18.1829C41.4533 18.0631 41.381 17.958 41.2808 17.8848C41.1805 17.8116 41.0584 17.7746 40.9344 17.78L40.9344 17.7798ZM23.2849 22.1954C22.8639 22.1954 22.443 22.3537 22.1249 22.6717C21.4888 23.3079 21.4888 24.3556 22.1249 24.9917C22.7611 25.6278 23.8088 25.6278 24.4449 24.9917C25.081 24.3556 25.081 23.3079 24.4449 22.6717C24.1268 22.3537 23.7059 22.1954 23.2849 22.1954ZM43.3356 22.2064C43.051 22.2228 42.7647 22.2687 42.4789 22.3453C40.1932 22.9578 38.8266 25.3231 39.4391 27.609C40.0516 29.8947 42.417 31.2571 44.7028 30.6446C46.9885 30.0321 48.3529 27.6688 47.7405 25.383C47.2046 23.383 45.3276 22.0885 43.3356 22.2064V22.2064ZM23.2849 23.2852C23.4237 23.2852 23.5625 23.341 23.6716 23.4497C23.8897 23.6678 23.8897 24.0048 23.6716 24.2231C23.4534 24.4411 23.1164 24.4411 22.8983 24.2231C22.6801 24.0048 22.6801 23.6678 22.8983 23.4497C23.0073 23.3404 23.1461 23.2852 23.2849 23.2852ZM43.4039 23.2984C44.8935 23.2076 46.281 24.1671 46.683 25.6675C47.1425 27.3824 46.1335 29.13 44.4186 29.5895C42.7038 30.049 40.9539 29.04 40.4944 27.3251C40.0349 25.6103 41.0461 23.8626 42.7609 23.4031C42.9753 23.3451 43.1911 23.3112 43.4039 23.2981V23.2984ZM28.2025 28.6432C28.1229 28.6464 28.0449 28.6671 27.974 28.7036C27.9032 28.7401 27.8412 28.7917 27.7924 28.8547C27.6253 29.0639 27.4613 29.2746 27.2989 29.4849C27.2527 29.5414 27.2184 29.6067 27.1979 29.6768C27.1773 29.7469 27.171 29.8204 27.1794 29.8929C27.1877 29.9655 27.2105 30.0356 27.2463 30.0992C27.2822 30.1628 27.3305 30.2186 27.3883 30.2632C27.446 30.3079 27.5122 30.3406 27.5828 30.3592C27.6534 30.3779 27.727 30.3823 27.7993 30.3721C27.8716 30.3618 27.9411 30.3372 28.0038 30.2997C28.0664 30.2622 28.1209 30.2125 28.1641 30.1536C28.3229 29.948 28.4835 29.7427 28.6469 29.5383C28.7143 29.4569 28.7566 29.3576 28.7688 29.2525C28.7809 29.1475 28.7624 29.0412 28.7154 28.9465C28.6684 28.8517 28.5949 28.7727 28.5039 28.7189C28.4128 28.6651 28.3082 28.6387 28.2025 28.6432V28.6432ZM26.8054 30.5189C26.7164 30.5177 26.6284 30.5383 26.5491 30.5789C26.4698 30.6194 26.4016 30.6787 26.3504 30.7516C26.1972 30.9637 26.0484 31.1757 25.8997 31.3883C25.856 31.447 25.8246 31.5138 25.8072 31.5848C25.7898 31.6558 25.7868 31.7295 25.7984 31.8017C25.81 31.8739 25.836 31.943 25.8748 32.005C25.9136 32.067 25.9644 32.1206 26.0243 32.1626C26.0841 32.2045 26.1518 32.2341 26.2233 32.2495C26.2947 32.2649 26.3686 32.2658 26.4404 32.2522C26.5122 32.2386 26.5806 32.2107 26.6414 32.1702C26.7023 32.1297 26.7544 32.0774 26.7947 32.0164C26.9401 31.8083 27.087 31.6002 27.2369 31.3926C27.2972 31.3117 27.3339 31.2158 27.3431 31.1154C27.3522 31.015 27.3334 30.9139 27.2888 30.8235C27.2441 30.7331 27.1753 30.6569 27.09 30.6031C27.0047 30.5493 26.9062 30.5202 26.8054 30.5189V30.5189ZM18.959 30.5615C19.5258 30.579 20.181 30.649 20.8197 30.7666C21.8727 30.9607 22.735 31.2879 23.3533 31.5784C21.2317 34.9394 19.6724 38.2736 18.6322 41.2298C18.5443 41.173 18.4654 41.1259 18.331 41.0525C17.9674 40.8533 17.4602 40.71 16.6306 40.7065C15.5909 40.6955 14.5829 41.3373 13.5223 42.0502C12.9072 42.4636 12.3327 42.8414 11.7343 43.2529C12.3873 40.9573 13.1866 38.2781 14.2059 35.838C14.8178 34.3734 15.4624 33.059 16.073 32.1231C16.6836 31.1872 17.2953 30.7116 17.5342 30.6833C17.5661 30.6791 17.5975 30.6722 17.6282 30.6625V30.6625C17.9139 30.575 18.3923 30.5419 18.959 30.5597L18.959 30.5615ZM19.9097 31.7407C19.5454 31.7582 19.2067 31.8074 18.8992 31.8946C18.4164 31.9613 18.0064 32.2296 17.6303 32.5995C17.2461 32.9773 16.8828 33.4696 16.5216 34.0521C16.5164 34.0596 16.5114 34.0673 16.5067 34.0751L15.6073 35.7242C15.6035 35.7322 15.6 35.7402 15.5966 35.7483C15.4739 35.9988 15.3523 36.2583 15.2313 36.5238C15.1998 36.5894 15.1817 36.6606 15.1781 36.7333C15.1745 36.806 15.1855 36.8786 15.2103 36.947C15.2351 37.0154 15.2734 37.0782 15.3228 37.1316C15.3722 37.1851 15.4317 37.2281 15.4979 37.2582C15.5642 37.2883 15.6358 37.3049 15.7085 37.3071C15.7812 37.3092 15.8537 37.2968 15.9215 37.2705C15.9894 37.2443 16.0514 37.2048 16.1038 37.1543C16.1562 37.1038 16.198 37.0435 16.2268 36.9766C16.3405 36.7271 16.4541 36.4844 16.5686 36.2504L16.5728 36.2372C16.5749 36.2372 16.5772 36.2263 16.5793 36.2241L17.4615 34.6092C17.7895 34.0825 18.1124 33.6546 18.3972 33.3745C18.6854 33.091 18.9265 32.9753 19.0552 32.96C19.0877 32.9564 19.1199 32.9498 19.1513 32.9403C19.5167 32.8286 20.2103 32.7918 20.9821 32.8572C21.0548 32.8656 21.1285 32.8592 21.1988 32.8386C21.269 32.818 21.3344 32.7835 21.3911 32.7371C21.4477 32.6907 21.4945 32.6334 21.5286 32.5686C21.5627 32.5038 21.5835 32.4328 21.5896 32.3598C21.5958 32.2868 21.5872 32.2134 21.5644 32.1438C21.5417 32.0742 21.5051 32.0099 21.457 31.9547C21.4089 31.8994 21.3503 31.8544 21.2844 31.8223C21.2186 31.7902 21.147 31.7717 21.0739 31.7677V31.7677C20.6638 31.7338 20.2739 31.7185 19.9097 31.736L19.9097 31.7407ZM52.9102 36.4169C52.1511 36.3732 51.4305 36.8679 51.2268 37.6282C50.994 38.4972 51.5178 39.4056 52.3868 39.6384C53.2557 39.8712 54.1641 39.3474 54.397 38.4785C54.6298 37.6095 54.106 36.701 53.237 36.4683C53.1284 36.4387 53.0186 36.4234 52.9102 36.4168V36.4169ZM52.735 37.5107C52.8055 37.4997 52.8784 37.5106 52.9529 37.526C53.2509 37.6058 53.4194 37.8966 53.3395 38.1946C53.2597 38.4925 52.9689 38.6611 52.6709 38.5813C52.3729 38.5014 52.2044 38.2107 52.2842 37.9126C52.3441 37.6892 52.5234 37.5387 52.735 37.511V37.5107ZM14.9216 38.0533C14.8143 38.057 14.7106 38.0923 14.6232 38.1545C14.5359 38.2168 14.4687 38.3035 14.4302 38.4036C14.3172 38.6865 14.2069 38.9736 14.097 39.2624C14.0674 39.3302 14.0519 39.4033 14.0515 39.4773C14.051 39.5513 14.0655 39.6248 14.0942 39.693C14.1229 39.7612 14.1651 39.8229 14.2183 39.8743C14.2715 39.9257 14.3346 39.9657 14.4037 39.992C14.4729 40.0184 14.5467 40.0304 14.6206 40.0274C14.6945 40.0244 14.7671 40.0064 14.8339 39.9745C14.9007 39.9427 14.9603 39.8977 15.0091 39.8421C15.058 39.7865 15.0951 39.7216 15.1181 39.6513C15.226 39.3678 15.3365 39.0862 15.4471 38.8095C15.4822 38.7248 15.4955 38.6326 15.4857 38.5415C15.476 38.4503 15.4434 38.363 15.3911 38.2877C15.3387 38.2124 15.2683 38.1515 15.1863 38.1106C15.1042 38.0696 15.0132 38.0499 14.9216 38.0533V38.0533ZM30.6784 39.585C30.594 39.8227 30.6025 39.8282 30.4883 40.1211C30.1475 40.9954 29.6733 42.0254 29.2877 42.5287C27.7489 44.5368 24.6688 47.0517 21.9925 49.0228C20.6444 50.0156 20.4042 50.1357 19.4995 50.7446C20.1105 49.8419 20.2302 49.6027 21.2256 48.258C23.2026 45.5871 25.725 42.5125 27.7347 40.9756C28.2388 40.5901 29.2682 40.1162 30.1422 39.7751C30.4351 39.6608 30.4407 39.67 30.6784 39.585V39.585ZM61.0983 44.6991C60.9899 44.6995 60.884 44.7323 60.7941 44.7931C60.7043 44.8539 60.6346 44.94 60.5938 45.0405C60.553 45.141 60.5431 45.2514 60.5652 45.3576C60.5874 45.4638 60.6406 45.561 60.7181 45.6369L61.1047 46.0236L60.7181 46.4102C60.6658 46.4606 60.6241 46.521 60.5954 46.5878C60.5667 46.6545 60.5516 46.7262 60.5509 46.7989C60.5503 46.8715 60.5641 46.9435 60.5916 47.0108C60.6191 47.078 60.6597 47.1391 60.7111 47.1905C60.7625 47.2418 60.8235 47.2825 60.8908 47.31C60.958 47.3375 61.0301 47.3513 61.1027 47.3507C61.1753 47.35 61.2471 47.3349 61.3139 47.3062C61.3806 47.2775 61.4409 47.2358 61.4914 47.1835L61.8781 46.797L62.2647 47.1835C62.3152 47.2358 62.3755 47.2775 62.4422 47.3062C62.509 47.3349 62.5808 47.35 62.6534 47.3507C62.726 47.3513 62.7981 47.3375 62.8653 47.31C62.9325 47.2825 62.9936 47.2418 63.045 47.1905C63.0964 47.1391 63.137 47.078 63.1645 47.0108C63.192 46.9435 63.2058 46.8715 63.2051 46.7989C63.2045 46.7262 63.1894 46.6545 63.1607 46.5878C63.132 46.521 63.0903 46.4607 63.038 46.4102L62.6514 46.0236L63.038 45.6369C63.1167 45.56 63.1703 45.4613 63.1919 45.3534C63.2135 45.2456 63.2022 45.1337 63.1592 45.0325C63.1163 44.9312 63.0439 44.8452 62.9514 44.7857C62.8589 44.7263 62.7506 44.6961 62.6407 44.6991C62.4988 44.703 62.3639 44.762 62.2647 44.8636L61.8781 45.2502L61.4914 44.8636C61.4402 44.8113 61.3791 44.7698 61.3115 44.7415C61.244 44.7133 61.1715 44.6988 61.0983 44.6991V44.6991ZM18.2242 44.7614C19.3675 45.1054 20.368 45.6729 21.2747 46.3892C20.962 46.7971 20.6388 47.2085 20.3455 47.6048C20.2244 47.7684 20.1612 47.8697 20.0443 48.0299L17.7798 45.7976L18.2242 44.7614ZM46.2579 45.161C45.5184 45.1501 45.5184 46.2653 46.2579 46.2548H47.3517C48.0912 46.2657 48.0912 45.1504 47.3517 45.161H46.2579ZM49.5392 45.161C49.4667 45.16 49.3948 45.1734 49.3275 45.2004C49.2603 45.2275 49.1991 45.2676 49.1475 45.3185C49.0958 45.3693 49.0549 45.43 49.0269 45.4968C48.9989 45.5637 48.9845 45.6354 48.9845 45.7079C48.9845 45.7804 48.9989 45.8521 49.0269 45.919C49.0549 45.9859 49.0958 46.0465 49.1475 46.0974C49.1991 46.1483 49.2603 46.1884 49.3275 46.2154C49.3948 46.2424 49.4667 46.2558 49.5392 46.2548H55.0079H57.1805C57.2529 46.2558 57.3249 46.2424 57.3921 46.2154C57.4594 46.1884 57.5206 46.1483 57.5722 46.0974C57.6238 46.0465 57.6648 45.9859 57.6928 45.919C57.7207 45.8521 57.7351 45.7804 57.7351 45.7079C57.7351 45.6354 57.7207 45.5637 57.6928 45.4968C57.6648 45.43 57.6238 45.3693 57.5722 45.3185C57.5206 45.2676 57.4594 45.2275 57.3921 45.2004C57.3249 45.1734 57.2529 45.16 57.1805 45.161H55.0079H49.5392ZM50.0946 46.2568C50.2327 46.2661 50.3622 46.3273 50.4569 46.4282C50.5517 46.5291 50.6047 46.6623 50.6052 46.8007C50.6058 46.9392 50.5538 47.0727 50.4599 47.1743C50.3659 47.276 50.2369 47.3382 50.0989 47.3485H48.439C47.6995 47.3376 47.6995 48.4528 48.439 48.4423H56.0867C56.8263 48.4532 56.8263 47.338 56.0867 47.3485H55.4929C55.3547 47.3396 55.2251 47.2785 55.1301 47.1778C55.0352 47.0771 54.9819 46.9441 54.9811 46.8057C54.9803 46.6672 55.0319 46.5337 55.1257 46.4318C55.2195 46.33 55.3484 46.2674 55.4864 46.2568H53.3822C53.5204 46.2658 53.65 46.3268 53.7449 46.4276C53.8399 46.5283 53.8932 46.6612 53.894 46.7997C53.8948 46.9381 53.8431 47.0717 53.7493 47.1735C53.6556 47.2754 53.5267 47.338 53.3887 47.3485H52.2052C52.067 47.3396 51.9374 47.2785 51.8425 47.1778C51.7475 47.0771 51.6942 46.9441 51.6934 46.8057C51.6926 46.6672 51.7443 46.5337 51.8381 46.4318C51.9318 46.33 52.0607 46.2674 52.1987 46.2568H50.0946H50.0946ZM38.6508 46.8891C38.9422 47.509 39.2748 48.3812 39.469 49.4442C39.7024 50.722 39.7408 52.0624 39.5651 52.6336C39.5558 52.665 39.5494 52.6971 39.5459 52.7297C39.5171 52.9685 39.0409 53.5799 38.1039 54.1889C37.167 54.798 35.8504 55.4401 34.3848 56.0494C31.9422 57.065 29.2627 57.859 26.9656 58.5082C27.3782 57.9102 27.758 57.335 28.1726 56.7202C28.8871 55.6609 29.5252 54.6554 29.5206 53.6162C29.5151 52.7902 29.3735 52.2837 29.1766 51.9202C29.1022 51.7827 29.0555 51.701 28.9972 51.6105C31.9542 50.571 35.288 49.0108 38.6508 46.8893V46.8891ZM50.6564 48.4443C50.7946 48.4533 50.9242 48.5143 51.0192 48.6151C51.1141 48.7158 51.1674 48.8487 51.1682 48.9872C51.169 49.1256 51.1173 49.2592 51.0236 49.361C50.9298 49.4629 50.8009 49.5255 50.6629 49.536H49.5328C48.7933 49.5251 48.7933 50.6403 49.5328 50.6298H52.8055C53.5387 50.6407 53.543 49.5469 52.8226 49.538C52.8205 49.5381 52.8183 49.5381 52.8162 49.538C52.8121 49.538 52.8096 49.538 52.8054 49.538H52.767C52.6288 49.5291 52.4992 49.4681 52.4043 49.3674C52.3093 49.2667 52.256 49.1337 52.2552 48.9953C52.2544 48.8569 52.3061 48.7232 52.3999 48.6213C52.4936 48.5195 52.6225 48.457 52.7605 48.4464H50.6564L50.6564 48.4443ZM23.8638 48.9764C24.5223 49.8208 25.0163 50.7269 25.2887 51.7384L24.321 52.2489L22.2382 50.1939C22.3777 50.0922 22.4999 50.0082 22.6419 49.9035C23.0399 49.6104 23.4542 49.2889 23.8638 48.9764ZM54.993 49.536C54.2534 49.5251 54.2534 50.6403 54.993 50.6298C55.7325 50.6407 55.7325 49.5254 54.993 49.536ZM13.9389 50.3521C14.074 50.3521 14.2058 50.3521 14.3384 50.363C13.8787 50.6499 13.4847 51.0409 13.1699 51.4931C12.597 52.3156 12.2179 53.3231 11.9501 54.3064C11.4144 56.2727 11.3306 58.1708 11.3306 58.1708L11.3028 58.7627L11.8924 58.7408C11.8924 58.7408 13.8142 58.6851 15.806 58.1791C16.8018 57.9259 17.8248 57.5637 18.66 57.0019C19.1588 56.6663 19.5784 56.2323 19.8734 55.7202C19.8737 55.8883 19.8665 56.056 19.8456 56.2222V56.2331V56.2441C19.7326 57.3814 18.843 58.5006 17.4466 59.5211C16.0502 60.5415 14.1903 61.4365 12.3389 62.1616C9.11334 63.4247 6.70049 63.9302 5.93231 64.1034C6.11563 63.3403 6.64843 60.9559 7.94892 57.7672C8.69588 55.9357 9.61086 54.0967 10.647 52.7172C11.679 51.3431 12.8057 50.4737 13.9389 50.3609V50.35L13.9389 50.3521ZM15.7013 51.0099C16.4022 50.9902 17.0385 51.2028 17.579 51.5398C17.2447 52.0427 16.8741 52.6057 16.8741 52.6057C16.807 52.7106 16.7778 52.8353 16.7912 52.9591C16.8045 53.0829 16.8597 53.1983 16.9476 53.2865C17.0355 53.3746 17.1509 53.4302 17.2746 53.4439C17.3984 53.4576 17.5231 53.4287 17.6282 53.3619C17.6282 53.3619 18.1945 52.9898 18.7177 52.6443C19.0785 53.2101 19.2567 53.8542 19.1812 54.4557V54.4666V54.4775C19.1151 55.1427 18.7174 55.6538 18.049 56.1034C17.3807 56.5529 16.4602 56.8939 15.5368 57.1287C14.026 57.5129 13.0248 57.533 12.529 57.5603C12.5641 57.0667 12.6006 56.0855 13.0054 54.5994C13.2535 53.6887 13.6083 52.7822 14.0671 52.1236C14.5234 51.4684 15.04 51.0829 15.7013 51.017V51.006V51.0099ZM48.8193 55.2802C48.7245 55.2839 48.6322 55.3123 48.5516 55.3623C48.471 55.4124 48.4049 55.4826 48.3596 55.566C48.3144 55.6494 48.2916 55.7431 48.2935 55.8379C48.2955 55.9328 48.322 56.0256 48.3707 56.1071L48.642 56.5771L48.1699 56.8505C48.0441 56.923 47.9523 57.0425 47.9146 57.1827C47.8769 57.3229 47.8965 57.4724 47.969 57.5982C48.0416 57.724 48.1611 57.8158 48.3013 57.8535C48.4415 57.8911 48.591 57.8715 48.7167 57.799L49.1888 57.5255L49.4644 58.0019C49.5001 58.065 49.5479 58.1202 49.605 58.1647C49.6622 58.2091 49.7276 58.2418 49.7975 58.2608C49.8674 58.2798 49.9403 58.2848 50.0121 58.2755C50.084 58.2661 50.1532 58.2426 50.2159 58.2063C50.2786 58.1701 50.3334 58.1218 50.3773 58.0641C50.4212 58.0065 50.4532 57.9408 50.4716 57.8707C50.4899 57.8006 50.4941 57.7277 50.4841 57.656C50.474 57.5843 50.4498 57.5152 50.4129 57.4529L50.1395 56.9787L50.6116 56.7052C50.7165 56.6473 50.7994 56.5565 50.8477 56.4468C50.896 56.3371 50.9068 56.2145 50.8787 56.098C50.8505 55.9815 50.7849 55.8776 50.6919 55.802C50.5988 55.7265 50.4836 55.6835 50.3638 55.6798V55.6798C50.259 55.6755 50.1552 55.7013 50.0647 55.7542L49.5905 56.0277L49.3192 55.5577C49.2699 55.4694 49.197 55.3964 49.1088 55.347C49.0205 55.2976 48.9203 55.2737 48.8193 55.2778V55.2802Z" fill="#E95F65"/>
</svg>
