<svg width="84" height="84" viewBox="0 0 84 84" fill="none" xmlns="http://www.w3.org/2000/svg">
<path fill-rule="evenodd" clip-rule="evenodd" d="M33.3386 18.8611C32.7947 18.9803 32.4384 19.5336 32.5576 20.0776L32.5818 20.1882L26.7703 21.4615C25.8764 21.6573 25.2732 22.5339 25.4687 23.4262L27.6899 33.5635L18.3622 35.6072C17.0144 35.9025 16.1545 37.249 16.45 38.598L17.556 43.6458L18.6244 43.4117L17.5184 38.3639C17.3482 37.587 17.8231 36.8451 18.5963 36.6756L27.9239 34.6319L28.3958 36.7854L20.3577 38.5466C20.216 38.5777 20.0925 38.6637 20.0143 38.7858C19.936 38.908 19.9095 39.0562 19.9405 39.1978L20.7594 42.9352L21.8278 42.7011L21.126 39.498L28.6299 37.8538L28.8612 38.9097L28.1954 39.6636C28.1941 39.6646 28.1929 39.6656 28.1916 39.6666L28.1707 39.6908C28.1689 39.6927 28.1671 39.6945 28.1654 39.6964L27.0949 40.9391C26.3098 41.8498 26.4116 43.238 27.3223 44.0231L28.1504 44.7383C28.7417 45.2481 29.5315 45.3748 30.2301 45.1574L30.8478 47.9766C31.0433 48.8689 31.9573 49.4108 32.8511 49.215L53.0215 44.7956C53.9154 44.5998 54.5211 43.7249 54.3256 42.8325L52.1077 32.7098L59.5886 31.0707L60.2881 34.2634C59.8666 34.3673 59.5871 34.8045 59.6803 35.232L59.9145 36.3113C59.7403 36.4145 59.5746 36.5281 59.4167 36.6544L58.4903 36.0591C58.1157 35.8184 57.5949 35.933 57.3551 36.3079L56.7664 37.2241C56.5208 37.6011 56.6369 38.1183 57.013 38.3598L57.9395 38.955C57.8894 39.1518 57.8541 39.3497 57.8318 39.5516L56.753 39.7879C56.3204 39.8827 56.0326 40.3308 56.1272 40.7648L56.1858 41.0319L56.3592 41.8337C56.4538 42.2686 56.9 42.555 57.3361 42.4594L58.4129 42.2235C58.5165 42.397 58.6309 42.5612 58.7576 42.7188L58.1628 43.6473C57.9217 44.0218 58.0347 44.5403 58.409 44.7808L59.3278 45.3712C59.7036 45.6146 60.2221 45.4948 60.4602 45.1296C60.4606 45.1281 60.4609 45.1266 60.4613 45.125L61.057 44.2007C61.2544 44.25 61.4529 44.2843 61.6552 44.3058L61.889 45.383C61.9833 45.8164 62.4272 46.1048 62.8622 46.0117L64.0363 51.3704L63.2809 51.536L63.2626 51.4525C63.1535 50.9546 62.6462 50.6275 62.1479 50.7367L60.4577 51.107C60.2654 50.7606 60.0417 50.4366 59.7854 50.1346L60.7154 48.6799C60.9903 48.2503 60.8608 47.6594 60.4314 47.3841L59.1162 46.5416C58.687 46.2664 58.0952 46.3961 57.8204 46.8255L56.8904 48.2802C56.5096 48.1718 56.1216 48.1031 55.7271 48.0715L55.3568 46.3812C55.2477 45.8833 54.7383 45.5567 54.24 45.6658L52.7146 46.0001C52.2162 46.1093 51.8922 46.6185 52.0013 47.1164L52.3721 48.8087C52.0258 49.0011 51.7016 49.2244 51.3997 49.481L49.9471 48.5506C49.5179 48.2754 48.9282 48.4046 48.6534 48.834L47.8109 50.1493C47.5359 50.5789 47.6654 51.1698 48.0948 51.4451L49.5499 52.3772C49.4416 52.7589 49.3709 53.1474 49.3396 53.543L47.6535 53.9124C47.1552 54.0216 46.829 54.5313 46.9381 55.0292L46.9564 55.1127L26.6776 59.5558C26.6522 59.4043 26.6201 59.2478 26.6048 59.1038C26.5532 58.6185 26.5684 58.1787 26.612 57.7594L27.2357 58.55L27.4443 58.384L27.4624 58.3669L27.4789 58.3524L27.9559 57.9045L27.972 57.8879L27.988 57.8713L28.4179 57.3878L28.4339 57.3712L28.4474 57.3529L28.8217 56.8554L27.9474 56.1984L27.6026 56.6611L27.5935 56.6696L27.2043 57.1092L27.2022 57.1096L26.7501 57.5411L26.6307 57.635C26.7521 56.6612 27.0697 55.8189 27.4107 54.9667C27.9115 53.7151 28.4411 52.3934 28.082 50.7542C27.3793 47.5473 24.1732 45.52 20.9428 46.2278C17.7124 46.9356 15.6477 50.1177 16.3504 53.3246C16.711 54.9705 17.7547 55.9491 18.7368 56.8803C19.7188 57.8115 20.6639 58.7142 21.1984 60.3299C21.251 60.4884 21.3749 61.0657 21.4393 61.3596C21.4463 61.3947 21.4568 61.429 21.4705 61.4621L21.5409 61.7835L21.775 62.8519L21.8372 63.1357L21.8514 63.2003C21.9109 63.4721 22.0625 63.709 22.2539 63.8994L19.3345 64.5391C19.1928 64.5701 19.0693 64.6562 18.9911 64.7783C18.9129 64.9004 18.8863 65.0486 18.9174 65.1903C19.625 68.4201 22.817 70.4614 26.0471 69.7537L67.7734 60.6114C71.0035 59.9037 73.0474 56.7152 72.3397 53.4854C72.3087 53.3437 72.2226 53.2202 72.1005 53.142C71.9784 53.0637 71.8302 53.0372 71.6885 53.0682L69.0154 53.6539L66.8487 43.7649C66.8585 43.7518 66.8739 43.745 66.8829 43.7312C66.8834 43.7303 66.8839 43.7295 66.8845 43.7286L67.4744 42.8077C67.7156 42.4334 67.6022 41.9146 67.2282 41.6742L66.3017 41.0789C66.3509 40.8824 66.3858 40.6843 66.4073 40.4828L67.4862 40.2465C67.9244 40.1514 68.2067 39.7072 68.1124 39.2717C68.1122 39.271 68.1121 39.2703 68.1119 39.2696L68.0534 39.0025L67.8799 38.2007C67.785 37.7649 67.3409 37.4795 66.903 37.575L65.8258 37.8088C65.7226 37.6348 65.609 37.4691 65.4827 37.311L66.0763 36.3871C66.3218 36.0104 66.2056 35.4929 65.8297 35.2515L64.9109 34.6611C64.8917 34.6488 64.8688 34.648 64.8489 34.6375L63.4599 28.2981C63.1643 26.9491 61.8222 26.0851 60.4745 26.3804L51.1677 28.4195L48.9465 18.2822C48.751 17.3898 47.8345 16.8463 46.9406 17.0421L41.1291 18.3154L41.1049 18.2048C40.9857 17.6609 40.4328 17.3068 39.8889 17.4259L33.3386 18.8611ZM33.6335 19.9074L40.0585 18.4997L40.1586 18.9567C40.1566 19.0441 40.1756 19.1307 40.214 19.2092L40.5363 20.6803L34.1113 22.0881L33.7862 20.6044C33.7869 20.5222 33.7691 20.4409 33.7341 20.3665L33.6335 19.9074ZM27.0044 22.5299L27.4843 22.4247L29.5742 31.9632L30.6528 36.8858L29.7586 37.8952L26.5371 23.1921C26.4735 22.9017 26.6567 22.6061 27.0044 22.5299ZM28.5527 22.1906L32.8159 21.2566L33.0628 22.3834C33.182 22.9273 33.737 23.281 34.2809 23.1619L40.8312 21.7267C41.3751 21.6075 41.7293 21.0546 41.6101 20.5107L41.3632 19.3838L45.6076 18.4539L49.5967 36.6606L47.3284 37.1576C46.4581 37.3483 45.9857 37.9838 45.8505 38.5071C45.7153 39.0303 45.8219 39.4843 45.8219 39.4843L46.3285 41.7964L34.2275 44.4478C33.7922 44.5431 33.3949 44.2908 33.3045 43.878L32.9991 42.4841L36.6922 38.3093L40.8239 37.404L40.5898 36.3356L37.9209 36.9204L39.1496 35.5315L47.8346 33.6286L47.6005 32.5602L40.3783 34.1426L41.607 32.7536L47.3664 31.4918L47.1323 30.4234L42.7794 31.3771C42.7855 31.3623 42.7909 31.3472 42.7957 31.332C42.7974 31.3258 42.799 31.3196 42.8004 31.3134L42.8044 31.3016C42.8056 31.297 42.8068 31.2924 42.8079 31.2877L43.0857 30.1903L46.8982 29.3549L46.6641 28.2865L43.3838 29.0053L43.6839 27.8198L46.43 27.2181L46.1959 26.1497L43.984 26.6344L43.9988 26.5721C44.0224 26.4789 44.021 26.3811 43.9947 26.2887C43.9685 26.1962 43.9184 26.1123 43.8494 26.0453C43.7804 25.9784 43.695 25.9309 43.6018 25.9074C43.5085 25.884 43.4108 25.8856 43.3184 25.912C43.2984 25.9181 43.2788 25.9253 43.2597 25.9336L38.9341 27.7408L37.657 28.0206L37.8235 28.7802L36.2409 30.5703L31.7064 31.5638L31.9405 32.6322L35.0122 31.9592L33.7835 33.3481L32.1746 33.7006L32.4087 34.769L32.5548 34.737L31.5502 35.8712L30.6426 31.7291L28.5527 22.1906ZM46.676 18.2198L47.1747 18.1105C47.5224 18.0344 47.8145 18.2259 47.8781 18.5163L53.2572 43.0666C53.3208 43.357 53.1351 43.6511 52.7874 43.7272L32.6171 48.1466C32.2694 48.2228 31.9798 48.0329 31.9162 47.7425L31.2125 44.531C31.2199 44.5227 31.2287 44.5168 31.236 44.5084L32.1021 43.5007L32.2361 44.1121C32.4544 45.1085 33.4628 45.735 34.4616 45.5162L47.4056 42.6801C47.5452 42.6495 47.6673 42.5655 47.7458 42.4459L50.7934 37.7805C50.8334 37.7196 50.8607 37.6514 50.874 37.5798C50.8872 37.5081 50.886 37.4346 50.8704 37.3635L46.676 18.2198ZM30.8444 25.0345C30.7028 25.0655 30.5792 25.1516 30.501 25.2737C30.4228 25.3959 30.3963 25.5441 30.4273 25.6857L31.3636 29.9594C31.3947 30.101 31.4808 30.2246 31.6029 30.3028C31.725 30.381 31.8732 30.4075 32.0149 30.3765L36.2885 29.4402C36.4302 29.4091 36.5537 29.323 36.632 29.2009C36.7102 29.0788 36.7367 28.9306 36.7057 28.7889L35.7693 24.5153C35.7383 24.3736 35.6522 24.2501 35.5301 24.1718C35.4079 24.0936 35.2597 24.0671 35.1181 24.0981L30.8444 25.0345ZM36.7207 23.747L36.9548 24.8154L45.4937 22.9445L45.2596 21.8761L36.7207 23.747ZM32.3681 25.8203L34.0626 25.4491L33.401 26.4819L32.3681 25.8203ZM31.7782 26.7412L32.8111 27.4028L32.1495 28.4357L31.7782 26.7412ZM34.9835 26.039L35.3547 27.7334L34.3219 27.0718L34.9835 26.039ZM37.1889 25.8838L37.4229 26.9522L45.9618 25.0813L45.7278 24.0129L37.1889 25.8838ZM33.732 27.9927L34.7648 28.6543L33.0704 29.0256L33.732 27.9927ZM42.672 27.3636L41.9564 30.1862L39.9832 28.4863L42.672 27.3636ZM39.0086 29.0891L39.8342 29.8027L30.1082 40.6485L29.3564 40.0019L39.0086 29.0891ZM40.6618 30.5158L41.4924 31.2326L31.8418 42.1428L30.9384 41.3632L40.6618 30.5158ZM51.4017 29.4879L60.7086 27.4488C61.4817 27.2794 62.2212 27.7552 62.3915 28.5321L63.7864 34.8988C63.784 34.9023 63.7797 34.9037 63.7773 34.9073L63.1821 35.8338C62.9857 35.7838 62.7874 35.7505 62.586 35.7282L62.3522 34.651C62.2576 34.2144 61.8122 33.9282 61.3749 34.0231L61.3561 34.0273L60.54 30.3024C60.5089 30.1608 60.4228 30.0372 60.3007 29.959C60.1786 29.8808 60.0304 29.8543 59.8887 29.8853L51.8736 31.6414L51.4017 29.4879ZM28.6356 40.8246L31.1215 42.9676L30.4084 43.7953C30.0065 44.2614 29.3312 44.31 28.8651 43.9081L28.0375 43.195C27.5714 42.7932 27.5207 42.1183 27.9225 41.6522L28.6356 40.8246ZM60.8072 35.265L61.3418 35.1501L61.593 36.3066C61.6196 36.428 61.6867 36.5368 61.7833 36.615C61.88 36.6933 62.0004 36.7362 62.1247 36.7368C62.5117 36.7381 62.8963 36.8083 63.259 36.9432C63.3758 36.9865 63.504 36.9886 63.6222 36.9492C63.7404 36.9098 63.8417 36.8312 63.9091 36.7264L64.5521 35.7282L65.0104 36.0236L64.3712 37.0188C64.3039 37.1232 64.2742 37.2475 64.287 37.3711C64.2997 37.4947 64.3542 37.6103 64.4415 37.6988C64.7137 37.9739 64.9349 38.2946 65.0953 38.6468C65.1472 38.7604 65.2364 38.8529 65.3481 38.9088C65.4598 38.9647 65.5873 38.9806 65.7093 38.954L66.87 38.7019L66.985 39.2366L65.8247 39.4908C65.703 39.5175 65.5941 39.5849 65.5159 39.682C65.4377 39.7791 65.3951 39.8999 65.395 40.0245C65.3954 40.4115 65.3287 40.7966 65.1953 41.1595C65.1525 41.2761 65.1506 41.4037 65.1899 41.5215C65.2292 41.6392 65.3074 41.7401 65.4117 41.8076L66.4073 42.4489L66.1098 42.9077L65.1142 42.2664C65.0093 42.199 64.8845 42.1695 64.7605 42.1827C64.6365 42.196 64.5208 42.2512 64.4325 42.3392C64.1586 42.6126 63.839 42.8349 63.4875 42.9967C63.3744 43.049 63.2824 43.1382 63.2269 43.2498C63.1714 43.3614 63.1557 43.4886 63.1824 43.6103L63.4336 44.7668L62.8994 44.8839L62.6473 43.7232C62.6206 43.6015 62.5531 43.4925 62.456 43.4144C62.359 43.3362 62.2381 43.2935 62.1135 43.2934C61.7258 43.2935 61.3411 43.2249 60.9781 43.0917C60.861 43.0487 60.7328 43.0469 60.6147 43.0867C60.4965 43.1265 60.3955 43.2055 60.3284 43.3106L59.6908 44.3032L59.2303 44.0082L59.8717 43.0126C59.939 42.9077 59.9686 42.783 59.9553 42.659C59.9421 42.535 59.8869 42.4193 59.7988 42.331C59.5254 42.0571 59.3028 41.7354 59.1408 41.3839C59.0886 41.2707 58.9993 41.1788 58.8878 41.1233C58.7762 41.0678 58.649 41.0521 58.5273 41.0787L57.3712 41.332L57.2542 40.7978L58.4123 40.5441C58.5338 40.5176 58.6426 40.4504 58.7208 40.3538C58.799 40.2572 58.8419 40.1368 58.8425 40.0124C58.8439 39.6255 58.9119 39.2414 59.0468 38.8786C59.0901 38.7618 59.0923 38.6336 59.0529 38.5154C59.0134 38.3971 58.9348 38.2959 58.83 38.2285L57.8323 37.5876L58.1294 37.1267L59.1224 37.7664C59.2273 37.8338 59.3521 37.8633 59.4761 37.85C59.6 37.8368 59.7158 37.7816 59.8041 37.6936C60.0791 37.4207 60.3994 37.1986 60.75 37.0402C60.8641 36.9887 60.9571 36.8995 61.0134 36.7877C61.0697 36.6758 61.0859 36.5481 61.0593 36.4257L60.8072 35.265ZM21.1949 43.9945L21.3367 45.0809L21.5006 45.0603L22.0808 45.0338L22.0896 45.034L22.7124 45.0616L22.7254 45.0609L23.2794 45.1342L23.3072 45.1412L23.3083 45.1366L23.313 45.1377L23.3177 45.0995L23.5803 44.082L23.5201 44.0667L23.4872 44.0564L23.4531 44.0508L22.8164 43.9694L22.7937 43.9656L22.7719 43.966L22.1253 43.9393L22.1031 43.9376L22.0792 43.9385L21.4269 43.9655L21.403 43.9663L21.3801 43.9714L21.1949 43.9945ZM47.5625 38.226L49.4698 37.8081L47.3013 41.1262L46.8903 39.2502C46.8903 39.2502 46.8486 39.0189 46.9098 38.7802C46.9715 38.5413 47.0439 38.3396 47.5625 38.226ZM18.9504 44.5803L18.7238 44.6737L18.7017 44.6829L18.6797 44.6921L18.1093 44.9832L18.0803 45.0005L18.0517 45.0199L17.003 45.733L16.9649 45.7588L16.9324 45.79L16.9089 45.8127L17.4224 46.3497L17.6187 46.6369L18.6389 45.9432L19.1698 45.6716L19.1777 45.6676L19.3645 45.5917L18.9504 44.5803ZM25.7307 44.8136L25.2847 45.8123L25.5005 45.9094L26.482 46.556L26.9164 46.9616L27.6619 46.1619L27.1916 45.7225L27.1588 45.6925L27.1207 45.6681L26.0666 44.9696L26.0285 44.9452L25.9875 44.9279L25.7307 44.8136ZM61.494 37.3517C61.2001 37.4201 60.9163 37.538 60.6512 37.707L61.2383 38.6302C61.8785 38.2222 62.7064 38.3033 63.2545 38.8293C63.8025 39.3547 63.9197 40.179 63.5389 40.8358C63.1581 41.4925 62.3848 41.8017 61.6566 41.5872C60.9283 41.3726 60.4451 40.6939 60.4812 39.9355L59.3874 39.8843C59.3276 41.1407 60.1399 42.2816 61.3464 42.637C62.553 42.9925 63.8529 42.4735 64.4838 41.3854C65.1147 40.2973 64.919 38.9107 64.0111 38.0402C63.5571 37.605 62.9832 37.3522 62.3888 37.2935C62.0916 37.2641 61.7879 37.2834 61.494 37.3517ZM15.389 47.4994L15.2061 47.7428L15.1791 47.7793L15.1598 47.8208L14.5762 48.9502L14.5613 48.9819L14.5505 49.0127L14.3398 49.5881L15.367 49.9644L15.567 49.4198L16.1095 48.3628L16.265 48.1538L15.389 47.4994ZM21.1769 47.2962C23.8357 46.7137 26.4387 48.3646 27.0135 50.9883C27.2995 52.2932 26.8953 53.3074 26.3942 54.5596C25.941 55.6924 25.4282 57.0016 25.4862 58.6797L25.2713 58.7267L23.9274 59.0212L23.3422 56.3502C23.2773 56.0542 22.9869 55.8682 22.6909 55.933C22.395 55.9979 22.2089 56.2883 22.2738 56.5843L22.859 59.2553L22.2184 59.3956L22.0285 59.4372C21.3821 57.8953 20.3711 56.9251 19.4883 56.088C18.5044 55.1551 17.7058 54.4007 17.4188 53.0905C16.8439 50.4668 18.5182 47.8788 21.1769 47.2962ZM21.0502 48.4546L21.0507 48.4567C18.8957 48.9289 17.5239 51.0718 17.9893 53.2389C17.9975 53.2791 18.0137 53.3173 18.0367 53.3512C18.0598 53.3852 18.0894 53.4142 18.1237 53.4366C18.158 53.459 18.1964 53.4743 18.2366 53.4817C18.2768 53.4891 18.3181 53.4884 18.358 53.4797C18.398 53.4709 18.4357 53.4543 18.4692 53.4308C18.5026 53.4072 18.5311 53.3772 18.5529 53.3425C18.5747 53.3078 18.5894 53.2691 18.5961 53.2287C18.6029 53.1882 18.6016 53.1467 18.5923 53.1067C18.1969 51.2665 19.3529 49.4607 21.1828 49.0598C21.2242 49.053 21.2637 49.0378 21.299 49.0152C21.3343 48.9925 21.3647 48.9629 21.3882 48.9281C21.4117 48.8933 21.4279 48.854 21.4357 48.8127C21.4436 48.7713 21.443 48.7288 21.434 48.6876C21.425 48.6465 21.4078 48.6076 21.3833 48.5734C21.3589 48.5391 21.3277 48.5102 21.2918 48.4884C21.2559 48.4666 21.216 48.4523 21.1744 48.4465C21.1329 48.4407 21.0906 48.4435 21.0502 48.4546ZM29.141 47.9722L28.194 48.5208L28.3757 48.8309L28.6412 49.3939L28.8478 49.9478L28.8487 49.952L28.9744 50.4056L30.03 50.113L29.9034 49.6553L29.8963 49.6328L29.8897 49.6124L29.657 48.9898L29.6499 48.9673L29.6386 48.9457L29.3561 48.345L29.3453 48.3255L29.334 48.3039L29.141 47.9722ZM13.9429 51.9188L13.9394 52.392L13.9382 52.4163L13.9407 52.4376L13.9899 53.0916L13.9929 53.1151L13.9958 53.1385L14.0989 53.7785L14.1035 53.7994L14.1085 53.8223L14.2093 54.2223L15.2708 53.9569L15.1764 53.5862L15.0779 52.9867L15.0336 52.3753L15.0368 51.9307L13.9429 51.9188ZM64.824 43.3775L65.7509 43.9748C65.759 43.98 65.7689 43.9795 65.7771 43.9844L67.947 53.888L27.1201 62.8332C27.2139 62.5803 27.253 62.3017 27.1934 62.0299L27.1792 61.9652L26.8866 60.6297L64.8046 52.3218C64.9463 52.2908 65.0698 52.2047 65.148 52.0826C65.2263 51.9604 65.2528 51.8122 65.2217 51.6706L63.9306 45.7776L63.9327 45.7772C64.3669 45.6825 64.6555 45.2364 64.561 44.8019L64.3271 43.7247C64.5012 43.6206 64.6661 43.5046 64.824 43.3775ZM53.1031 47.0346L54.3217 46.7676L54.7346 48.6519C54.7613 48.7737 54.8288 48.8826 54.9258 48.9608C55.0229 49.0389 55.1437 49.0816 55.2683 49.0817C55.8485 49.0829 56.4251 49.1873 56.9693 49.3892C57.0863 49.4322 57.2145 49.434 57.3327 49.3941C57.4509 49.3543 57.5519 49.2754 57.619 49.1703L58.6586 47.5473L59.7118 48.2219L58.6738 49.8424C58.6069 49.947 58.5776 50.0713 58.5908 50.1948C58.6039 50.3184 58.6587 50.4337 58.7462 50.5219C59.1551 50.9343 59.4877 51.416 59.7292 51.9445C59.7617 52.0151 59.8089 52.0778 59.8675 52.1287C59.9262 52.1796 59.995 52.2174 60.0694 52.2396L58.6358 52.5537C57.9543 50.9714 56.224 50.0336 54.4824 50.4152C53.9888 50.5233 53.5376 50.7269 53.1481 51.0028L53.7812 51.8963C54.054 51.7031 54.3674 51.5601 54.7164 51.4836C55.8758 51.2296 57.0056 51.7965 57.534 52.7951L52.7054 53.8531C52.7115 53.7453 52.7139 53.6369 52.7334 53.532C52.7947 53.2029 52.9202 52.8907 53.0983 52.6123L52.1774 52.0224C51.9245 52.4179 51.747 52.8625 51.6596 53.3321C51.6133 53.5804 51.5969 53.836 51.6036 54.0945L50.1679 54.409C50.2256 54.3579 50.2718 54.2951 50.3035 54.2249C50.3352 54.1546 50.3517 54.0784 50.3519 54.0013C50.3528 53.4202 50.4558 52.8456 50.6573 52.3008C50.7006 52.1839 50.7028 52.0558 50.6633 51.9376C50.6239 51.8193 50.5453 51.7181 50.4405 51.6507L48.8149 50.6094L49.4895 49.5562L51.1079 50.5947C51.2128 50.6621 51.3376 50.6916 51.4616 50.6783C51.5856 50.6651 51.7013 50.6099 51.7896 50.5219C52.2013 50.1127 52.682 49.7786 53.2096 49.5372C53.3233 49.4853 53.4157 49.3961 53.4716 49.2844C53.5275 49.1727 53.5435 49.0452 53.5169 48.9231L53.1031 47.0346ZM29.1691 52.412L29.1559 52.931L28.938 54.0722L28.8258 54.3789L29.8514 54.7578L29.9776 54.4152L29.9944 54.3722L30.0019 54.3268L30.2394 53.0851L30.2495 53.0413L30.2503 52.9952L30.264 52.4389L29.1691 52.412ZM16.0749 55.8102L15.1343 56.3684L15.4318 56.8674L15.4534 56.9064L15.483 56.9415L16.2964 57.9092L16.326 57.9443L16.3604 57.9717L16.6213 58.1945L17.331 57.3611L17.1054 57.1699L16.3545 56.2782L16.0749 55.8102ZM19.0055 58.5359L18.9292 58.7167L18.5012 59.5081L18.5283 59.5218L18.5482 59.5328L18.5697 59.5412L19.1695 59.8034L19.191 59.8118L19.2125 59.8202L19.8403 60.0304L20.1884 58.9941L19.6058 58.8003L19.5931 58.7921L19.0203 58.5436L19.0055 58.5359ZM22.3752 60.481L22.4525 60.464L23.6273 60.2066L25.5053 59.7952L25.5805 59.7787L25.6289 59.9999L26.1108 62.1993L26.125 62.264C26.1657 62.45 26.0816 62.5031 26.0979 62.4996L23.045 63.1684C23.0612 63.1649 22.9605 63.1522 22.9198 62.9663L22.9056 62.9016L22.8434 62.6178L24.9802 62.1496L24.7461 61.0812L22.6093 61.5494L22.4237 60.7022L22.3752 60.481ZM20.2092 65.4671L40.4046 61.0423L40.598 61.925C40.831 62.9884 41.8763 63.6918 42.9332 63.4603L49.8007 61.9556C50.8576 61.724 51.5151 60.6475 51.2821 59.5841L51.0887 58.7014L71.282 54.277C71.5309 56.7249 70.0063 59.0025 67.5393 59.543L25.813 68.6853C23.346 69.2258 21.0066 67.7948 20.2092 65.4671ZM41.473 60.8082L50.0203 58.9355L50.2137 59.8182C50.325 60.3262 50.0316 60.7853 49.5666 60.8872L42.6991 62.3919C42.2341 62.4937 41.7777 62.1989 41.6664 61.6909L41.473 60.8082Z" fill="#E95F65"/>
</svg>
