<svg width="64" height="64" viewBox="0 0 64 64" fill="none" xmlns="http://www.w3.org/2000/svg">
<path d="M22.7 43C23.7338 43.7575 24.5724 44.7503 25.1462 45.8963C25.7201 47.0423 26.0128 48.3084 26 49.59V56C26.0005 56.1029 26.0209 56.2048 26.06 56.3C26.0587 56.3233 26.0587 56.3467 26.06 56.37L28.06 60.37C28.1347 60.5577 28.2645 60.7183 28.4323 60.8307C28.6001 60.9432 28.798 61.0022 29 61H35C35.1847 60.9994 35.3656 60.9478 35.5227 60.8507C35.6798 60.7536 35.8069 60.6149 35.89 60.45L37.89 56.45C37.8913 56.4267 37.8913 56.4033 37.89 56.38C37.9579 56.2645 37.9957 56.1339 38 56V50C37.9423 48.61 38.2332 47.2277 38.8463 45.9789C39.4593 44.7301 40.375 43.6545 41.51 42.85C44.2275 40.8421 46.2395 38.0255 47.2578 34.8038C48.2761 31.5821 48.2484 28.1207 47.1786 24.9158C46.1088 21.7108 44.0519 18.9268 41.3026 16.9627C38.5534 14.9986 35.2529 13.9552 31.8742 13.9822C28.4955 14.0091 25.2121 15.105 22.4945 17.1127C19.7769 19.1204 17.7646 21.9369 16.7461 25.1585C15.7275 28.3801 15.755 31.8414 16.8246 35.0465C17.8941 38.2515 19.9509 41.0357 22.7 43V43ZM36 51V55H28V51H36ZM31.07 49C31.2596 44.92 30.4277 40.8572 28.65 37.18C30.65 37.39 31.05 36 31.99 36C32.93 36 33.32 37.39 35.35 37.18C33.5723 40.8572 32.7404 44.92 32.93 49H31.07ZM34.38 59H29.62L28.62 57H35.38L34.38 59ZM31.33 16C33.2241 15.9092 35.1169 16.2042 36.8935 16.8671C38.6702 17.5299 40.2937 18.5467 41.6655 19.8559C43.0373 21.1651 44.1289 22.7393 44.874 24.483C45.6191 26.2268 46.0022 28.1037 46 30C46.0105 32.1894 45.5011 34.35 44.5136 36.304C43.5262 38.2581 42.0889 39.9498 40.32 41.24C39.0712 42.1338 38.036 43.2933 37.2891 44.6351C36.5421 45.977 36.1018 47.4677 36 49H34.94C34.85 46.65 34.99 40.17 38.77 35.64C38.8917 35.4939 38.9692 35.3161 38.9935 35.1274C39.0177 34.9388 38.9876 34.7472 38.9068 34.575C38.826 34.4028 38.6977 34.2573 38.5371 34.1555C38.3765 34.0536 38.1902 33.9997 38 34C36.19 34 35.91 35.2 35 35.2C34.09 35.2 33.8 34 32 34C30.2 34 29.91 35.2 29 35.2C28.09 35.2 27.79 34 26 34C25.8098 33.9997 25.6235 34.0536 25.4629 34.1555C25.3023 34.2573 25.174 34.4028 25.0932 34.575C25.0124 34.7472 24.9823 34.9388 25.0065 35.1274C25.0308 35.3161 25.1083 35.4939 25.23 35.64C29.01 40.17 29.15 46.64 29.06 49H28C27.9297 47.5031 27.5238 46.0411 26.8124 44.7222C26.101 43.4032 25.1022 42.261 23.89 41.38C22.0525 40.0743 20.5575 38.3442 19.5321 36.3368C18.5066 34.3294 17.981 32.1041 18 29.85C18.0742 26.2885 19.4871 22.8857 21.9574 20.3191C24.4276 17.7524 27.774 16.2104 31.33 16V16ZM32 11C32.2652 11 32.5196 10.8946 32.7071 10.7071C32.8946 10.5196 33 10.2652 33 10V4C33 3.73478 32.8946 3.48043 32.7071 3.29289C32.5196 3.10536 32.2652 3 32 3C31.7348 3 31.4804 3.10536 31.2929 3.29289C31.1054 3.48043 31 3.73478 31 4V10C31 10.2652 31.1054 10.5196 31.2929 10.7071C31.4804 10.8946 31.7348 11 32 11ZM21.13 13.18C21.2181 13.3326 21.345 13.4592 21.4977 13.547C21.6505 13.6348 21.8238 13.6807 22 13.68C22.1759 13.6807 22.3488 13.635 22.5014 13.5475C22.654 13.46 22.7808 13.3339 22.869 13.1817C22.9573 13.0296 23.0038 12.8569 23.004 12.681C23.0042 12.5051 22.9579 12.3323 22.87 12.18L19.87 6.98C19.8038 6.86625 19.7159 6.76667 19.6111 6.68698C19.5064 6.60729 19.387 6.54906 19.2597 6.51561C19.1325 6.48217 18.9998 6.47417 18.8695 6.49209C18.7391 6.51 18.6135 6.55347 18.5 6.62C18.3841 6.68532 18.2824 6.77312 18.2008 6.87825C18.1192 6.98338 18.0595 7.10373 18.025 7.23225C17.9906 7.36077 17.9821 7.49487 18.0001 7.62671C18.0181 7.75854 18.0623 7.88545 18.13 8L21.13 13.18ZM9 17.87C14.43 21 14.2 21 14.68 21C14.9014 21.0015 15.1171 20.9296 15.2932 20.7953C15.4693 20.6611 15.5959 20.4722 15.6531 20.2583C15.7102 20.0444 15.6948 19.8176 15.6092 19.6134C15.5236 19.4092 15.3726 19.2392 15.18 19.13L9.98 16.13C9.74926 15.9974 9.4753 15.9619 9.21837 16.0313C8.96145 16.1007 8.74261 16.2693 8.61 16.5C8.47739 16.7307 8.44188 17.0047 8.51126 17.2616C8.58065 17.5186 8.74926 17.7374 8.98 17.87H9ZM6 31H12C12.2652 31 12.5196 30.8946 12.7071 30.7071C12.8946 30.5196 13 30.2652 13 30C13 29.7348 12.8946 29.4804 12.7071 29.2929C12.5196 29.1054 12.2652 29 12 29H6C5.73478 29 5.48043 29.1054 5.29289 29.2929C5.10536 29.4804 5 29.7348 5 30C5 30.2652 5.10536 30.5196 5.29289 30.7071C5.48043 30.8946 5.73478 31 6 31ZM10 43.87L15.2 40.87C15.3142 40.8043 15.4144 40.7168 15.4949 40.6124C15.5753 40.5081 15.6344 40.3888 15.6687 40.2616C15.7031 40.1344 15.7121 40.0017 15.6951 39.871C15.6782 39.7403 15.6357 39.6143 15.57 39.5C15.5043 39.3857 15.4168 39.2855 15.3124 39.2051C15.208 39.1247 15.0888 39.0656 14.9616 39.0313C14.8344 38.9969 14.7017 38.9879 14.571 39.0049C14.4403 39.0218 14.3142 39.0643 14.2 39.13L9 42.13C8.88575 42.1957 8.78555 42.2832 8.70513 42.3876C8.6247 42.4919 8.56562 42.6112 8.53126 42.7384C8.49691 42.8656 8.48794 42.9983 8.50488 43.129C8.52182 43.2597 8.56434 43.3857 8.63 43.5C8.69566 43.6143 8.78318 43.7145 8.88757 43.7949C8.99195 43.8753 9.11115 43.9344 9.23837 43.9687C9.36559 44.0031 9.49832 44.0121 9.62901 43.9951C9.75969 43.9782 9.88575 43.9357 10 43.87V43.87ZM48.82 40.87L54.02 43.87C54.2507 44.0026 54.5247 44.0381 54.7816 43.9687C55.0386 43.8993 55.2574 43.7307 55.39 43.5C55.5226 43.2693 55.5581 42.9953 55.4887 42.7384C55.4193 42.4814 55.2507 42.2626 55.02 42.13L49.82 39.13C49.7057 39.0643 49.5797 39.0218 49.449 39.0049C49.3183 38.9879 49.1856 38.9969 49.0584 39.0313C48.9312 39.0656 48.8119 39.1247 48.7076 39.2051C48.6032 39.2855 48.5157 39.3857 48.45 39.5C48.3843 39.6143 48.3418 39.7403 48.3249 39.871C48.3079 40.0017 48.3169 40.1344 48.3513 40.2616C48.3856 40.3888 48.4447 40.5081 48.5251 40.6124C48.6056 40.7168 48.7057 40.8043 48.82 40.87V40.87ZM51 30C51 30.2652 51.1054 30.5196 51.2929 30.7071C51.4804 30.8946 51.7348 31 52 31H58C58.2652 31 58.5196 30.8946 58.7071 30.7071C58.8946 30.5196 59 30.2652 59 30C59 29.7348 58.8946 29.4804 58.7071 29.2929C58.5196 29.1054 58.2652 29 58 29H52C51.7348 29 51.4804 29.1054 51.2929 29.2929C51.1054 29.4804 51 29.7348 51 30ZM49.82 20.87L55.02 17.87C55.2507 17.7374 55.4193 17.5186 55.4887 17.2616C55.5581 17.0047 55.5226 16.7307 55.39 16.5C55.2574 16.2693 55.0386 16.1007 54.7816 16.0313C54.5247 15.9619 54.2507 15.9974 54.02 16.13L48.82 19.13C48.5893 19.2626 48.4207 19.4814 48.3513 19.7384C48.2819 19.9953 48.3174 20.2693 48.45 20.5C48.5826 20.7307 48.8014 20.8993 49.0584 20.9687C49.3153 21.0381 49.5893 21.0026 49.82 20.87ZM41.5 13.55C41.6141 13.6161 41.7402 13.659 41.871 13.6762C42.0018 13.6934 42.1347 13.6845 42.262 13.6501C42.3893 13.6157 42.5086 13.5565 42.613 13.4758C42.7173 13.3951 42.8047 13.2946 42.87 13.18L45.87 7.98C46.0004 7.75038 46.0346 7.47852 45.9653 7.22374C45.896 6.96895 45.7287 6.75192 45.5 6.62C45.3853 6.55429 45.2586 6.51198 45.1275 6.49552C44.9963 6.47906 44.8631 6.48879 44.7357 6.52412C44.6083 6.55946 44.4892 6.61972 44.3852 6.7014C44.2812 6.78309 44.1945 6.88458 44.13 7L41.13 12.2C41.0028 12.4287 40.9702 12.6981 41.0394 12.9505C41.1086 13.2029 41.2739 13.4181 41.5 13.55V13.55Z" fill="#EA5F66"/>
</svg>
