<svg width="78" height="79" viewBox="0 0 78 79" fill="none" xmlns="http://www.w3.org/2000/svg">
<g clip-path="url(#clip0_1_4148)">
<path d="M25.8777 58.1625C26.6795 59.9841 28.172 61.4126 30.027 62.1337C30.9455 62.4908 31.9253 62.6635 32.9105 62.6419C33.8958 62.6203 34.8671 62.4048 35.7691 62.0078C36.671 61.6109 37.486 61.0401 38.1673 60.3282C38.8487 59.6162 39.3832 58.7771 39.7403 57.8586C40.0974 56.9401 40.27 55.9602 40.2484 54.975C40.2268 53.9898 40.0114 53.0185 39.6144 52.1165L37.8913 52.8749C38.4909 54.2396 38.5243 55.7865 37.9842 57.1759C37.4441 58.5652 36.3746 59.6834 35.0106 60.2847C33.6459 60.8843 32.099 60.9178 30.7097 60.3776C29.3203 59.8375 28.2022 58.768 27.6009 57.4041C27.0012 56.0394 26.9678 54.4924 27.5079 53.1031C28.048 51.7138 29.1175 50.5956 30.4815 49.9943L29.7231 48.2711C28.8208 48.6677 28.0054 49.2382 27.3237 49.9501C26.6421 50.6619 26.1074 51.5011 25.7502 52.4198C25.3931 53.3384 25.2205 54.3184 25.2424 55.3038C25.2643 56.2892 25.4802 57.2606 25.8777 58.1625V58.1625Z" fill="#EA5F66"/>
<path d="M36.6771 47.6149L34.9296 46.9355L32.212 53.9259L33.9596 54.6053L36.6771 47.6149Z" fill="#EA5F66"/>
<path d="M21.3868 50.7233C20.5134 52.97 20.3258 55.4252 20.8477 57.7785C21.3697 60.1317 22.5778 62.2774 24.3192 63.9441C26.0606 65.6108 28.2571 66.7236 30.631 67.142C33.0048 67.5603 35.4495 67.2653 37.6557 66.2942C39.8619 65.3232 41.7306 63.7198 43.0256 61.6867C44.3205 59.6536 44.9835 57.2822 44.9306 54.8723C44.8778 52.4624 44.1116 50.1223 42.7288 48.1479C41.346 46.1735 39.4088 44.6535 37.1621 43.7801C34.1494 42.6089 30.7949 42.6824 27.8365 43.9845C24.878 45.2867 22.558 47.7107 21.3868 50.7233V50.7233ZM36.4827 45.5277C38.3837 46.2667 40.0229 47.5529 41.193 49.2235C42.363 50.8942 43.0114 52.8742 43.0561 54.9134C43.1008 56.9525 42.5398 58.9591 41.4441 60.6794C40.3484 62.3997 38.7672 63.7565 36.9004 64.5781C35.0336 65.3998 32.965 65.6494 30.9564 65.2954C28.9477 64.9414 27.0891 63.9998 25.6156 62.5895C24.1421 61.1792 23.1199 59.3637 22.6782 57.3725C22.2366 55.3812 22.3953 53.3038 23.1344 51.4027C24.1254 48.8536 26.0885 46.8025 28.5918 45.7007C31.0951 44.5989 33.9335 44.5367 36.4827 45.5277V45.5277ZM20.6559 26.4195L21.4056 28.1392C21.5187 28.0889 21.6406 28.0615 21.7643 28.0585C21.8881 28.0555 22.0111 28.0771 22.1265 28.1219C22.2418 28.1668 22.3472 28.234 22.4364 28.3198C22.5256 28.4055 22.597 28.5081 22.6464 28.6216L24.3608 27.8598C24.0602 27.1778 23.5011 26.643 22.8064 26.373C22.1118 26.1029 21.3383 26.1196 20.6559 26.4195V26.4195Z" fill="#EA5F66"/>
<path d="M19.5236 23.847L20.2767 25.558C20.7277 25.3592 21.2134 25.2513 21.7061 25.2403C22.1987 25.2294 22.6888 25.3157 23.1481 25.4943C23.6074 25.6728 24.027 25.9402 24.3829 26.281C24.7389 26.6219 25.0241 27.0295 25.2224 27.4807L26.9334 26.7276C26.3321 25.3637 25.2139 24.2942 23.8246 23.754C22.4353 23.2139 20.8884 23.2473 19.5236 23.847V23.847Z" fill="#EA5F66"/>
<path d="M27.8387 26.3654L29.5497 25.6123C28.6477 23.5663 26.9705 21.9621 24.8865 21.1519C22.8025 20.3417 20.4821 20.3919 18.4351 21.2913L19.1881 23.0024C19.9769 22.6551 20.8264 22.4667 21.6881 22.4478C22.5497 22.4289 23.4067 22.5799 24.21 22.8921C25.0132 23.2044 25.7471 23.6719 26.3698 24.2678C26.9924 24.8638 27.4915 25.5765 27.8387 26.3654V26.3654ZM20.9097 29.415C20.6833 29.5155 20.5058 29.7014 20.4161 29.9323C20.3263 30.1631 20.3316 30.4201 20.4307 30.6471C20.4801 30.7606 20.5514 30.8631 20.6407 30.9489C20.7299 31.0347 20.8352 31.1019 20.9506 31.1467C21.0659 31.1916 21.189 31.2131 21.3128 31.2102C21.4365 31.2072 21.5584 31.1798 21.6715 31.1295C21.8979 31.029 22.0753 30.8431 22.165 30.6122C22.2548 30.3814 22.2495 30.1244 22.1504 29.8974C22.101 29.7839 22.0297 29.6814 21.9404 29.5956C21.8512 29.5098 21.7459 29.4426 21.6305 29.3978C21.5152 29.3529 21.3921 29.3314 21.2684 29.3343C21.1446 29.3373 21.0227 29.3647 20.9097 29.415Z" fill="#EA5F66"/>
<path d="M19.8316 34.0251C21.5598 34.6969 23.4484 34.8412 25.2586 34.4397C27.0688 34.0382 28.7193 33.1089 30.0014 31.7694C31.2834 30.4299 32.1395 28.7402 32.4613 26.9142C32.7831 25.0881 32.5561 23.2076 31.8092 21.5105C31.0622 19.8134 29.8288 18.3759 28.2649 17.3798C26.701 16.3837 24.8768 15.8738 23.0231 15.9144C21.1693 15.955 19.3692 16.5445 17.8505 17.6082C16.3317 18.6718 15.1625 20.162 14.4906 21.8902C13.5897 24.2076 13.6462 26.7881 14.6479 29.0638C15.6495 31.3395 17.5141 33.1241 19.8316 34.0251ZM25.9461 18.2968C27.3287 18.8343 28.5208 19.7697 29.3717 20.9847C30.2227 22.1997 30.6942 23.6398 30.7267 25.1228C30.7592 26.6058 30.3513 28.0651 29.5544 29.3163C28.7575 30.5674 27.6075 31.5541 26.2498 32.1517C24.8922 32.7492 23.3878 32.9308 21.9269 32.6733C20.4661 32.4159 19.1144 31.7311 18.0427 30.7054C16.9711 29.6798 16.2277 28.3594 15.9065 26.9112C15.5853 25.463 15.7007 23.9521 16.2382 22.5696C16.9589 20.7156 18.3866 19.2239 20.2072 18.4226C22.0278 17.6213 24.0921 17.5761 25.9461 18.2968V18.2968ZM56.5308 48.2923C58.259 48.9642 60.1476 49.1085 61.9579 48.707C63.7681 48.3055 65.4186 47.3762 66.7006 46.0366C67.9827 44.6971 68.8387 43.0075 69.1605 41.1814C69.4823 39.3553 69.2554 37.4749 68.5085 35.7778C67.7615 34.0807 66.5281 32.6432 64.9642 31.6471C63.4003 30.651 61.5761 30.141 59.7223 30.1816C57.8686 30.2223 56.0685 30.8117 54.5497 31.8754C53.031 32.9391 51.8617 34.4292 51.1899 36.1574C50.2889 38.4749 50.3455 41.0553 51.3471 43.331C52.3488 45.6068 54.2134 47.3914 56.5308 48.2923V48.2923ZM62.6454 32.5641C64.0279 33.1015 65.2201 34.0369 66.071 35.2519C66.9219 36.467 67.3935 37.907 67.426 39.39C67.4585 40.873 67.0505 42.3324 66.2536 43.5835C65.4568 44.8346 64.3068 45.8214 62.9491 46.4189C61.5914 47.0165 60.087 47.198 58.6262 46.9406C57.1653 46.6832 55.8136 45.9983 54.742 44.9727C53.6704 43.947 52.927 42.6266 52.6057 41.1784C52.2845 39.7303 52.4 38.2194 52.9375 36.8368C53.6582 34.9829 55.0859 33.4912 56.9065 32.6899C58.7271 31.8886 60.7914 31.8433 62.6454 32.5641ZM42.5973 29.7994C44.3254 30.4713 46.2141 30.6156 48.0243 30.214C49.8345 29.8125 51.485 28.8833 52.767 27.5437C54.0491 26.2042 54.9052 24.5145 55.227 22.6885C55.5487 20.8624 55.3218 18.9819 54.5749 17.2848C53.8279 15.5878 52.5945 14.1503 51.0306 13.1542C49.4667 12.1581 47.6425 11.6481 45.7887 11.6887C43.935 11.7294 42.1349 12.3188 40.6161 13.3825C39.0974 14.4462 37.9281 15.9363 37.2563 17.6645C36.3554 19.982 36.4119 22.5624 37.4136 24.8381C38.4152 27.1138 40.2798 28.8985 42.5973 29.7994ZM48.2435 28.2124C46.6177 28.7231 44.8666 28.6649 43.2783 28.0474C41.6901 27.43 40.3595 26.2901 39.5055 24.8155C39.5279 24.7438 39.5552 24.6737 39.5871 24.6057C40.3378 22.6747 42.9032 21.8715 45.3148 22.8091C47.7265 23.7466 49.0757 26.0716 48.325 28.0027C48.3026 28.0744 48.2754 28.1444 48.2435 28.2124ZM44.926 18.6345C45.0604 18.2889 45.2942 17.9908 45.598 17.7781C45.9017 17.5654 46.2618 17.4475 46.6325 17.4393C47.0033 17.4312 47.3681 17.5332 47.6809 17.7324C47.9937 17.9317 48.2403 18.2191 48.3897 18.5586C48.5391 18.898 48.5845 19.2741 48.5202 19.6393C48.4558 20.0045 48.2846 20.3424 48.0282 20.6103C47.7718 20.8782 47.4417 21.0641 47.0796 21.1444C46.7176 21.2247 46.3399 21.1958 45.9942 21.0615C45.5307 20.8813 45.1578 20.5244 44.9575 20.0692C44.7571 19.6141 44.7458 19.098 44.926 18.6345ZM48.7118 14.0711C49.9666 14.5602 51.0665 15.3781 51.8961 16.4389C52.7257 17.4998 53.2544 18.7644 53.4266 20.1001C53.5988 21.4357 53.4082 22.7931 52.8748 24.0297C52.3414 25.2663 51.4849 26.3364 50.3952 27.1278C50.4069 26.2759 50.2359 25.4315 49.8938 24.6513C49.5517 23.8711 49.0463 23.1733 48.4118 22.6048C49.0528 22.2733 49.5846 21.7639 49.9432 21.1376C50.3019 20.5114 50.4722 19.795 50.4338 19.0743C50.3954 18.3537 50.1499 17.6594 49.7267 17.0748C49.3035 16.4903 48.7206 16.0402 48.0479 15.7787C47.3753 15.5173 46.6415 15.4554 45.9346 15.6006C45.2277 15.7458 44.5777 16.0919 44.0626 16.5974C43.5475 17.1029 43.1892 17.7463 43.0307 18.4503C42.8722 19.1544 42.9202 19.8892 43.169 20.5667C42.3196 20.5606 41.4786 20.7361 40.7025 21.0815C39.9264 21.4268 39.2331 21.934 38.6689 22.569C38.4002 21.251 38.4908 19.885 38.9314 18.6141C39.372 17.3431 40.1463 16.2141 41.1731 15.3452C42.2 14.4763 43.4416 13.8996 44.7679 13.6754C46.0942 13.4513 47.4564 13.588 48.7118 14.0711Z" fill="#EA5F66"/>
<path d="M55.2683 43.7781L61.3848 46.156C61.6165 46.2461 61.8746 46.2404 62.1022 46.1402C62.3297 46.0401 62.5082 45.8536 62.5983 45.6219L65.3159 38.6315C65.3612 38.5168 65.3835 38.3942 65.3814 38.2709C65.3793 38.1475 65.3529 38.0258 65.3036 37.9126L64.2355 35.4857C64.1853 35.3729 64.1134 35.2712 64.0238 35.1863C63.9343 35.1015 63.8288 35.0351 63.7136 34.9911L59.3446 33.2926C59.1129 33.2025 58.8548 33.2082 58.6273 33.3083C58.3997 33.4085 58.2212 33.5949 58.1311 33.8267L54.7342 42.5646C54.6441 42.7964 54.6497 43.0544 54.7499 43.282C54.85 43.5095 55.0365 43.688 55.2683 43.7781ZM59.539 35.3799L62.6759 36.5994L63.429 38.3104L61.1904 44.0687L56.8214 42.3702L59.539 35.3799Z" fill="#EA5F66"/>
<path d="M17.0178 49.0249L15.2702 48.3455L14.5908 50.093L16.3384 50.7724L17.0178 49.0249Z" fill="#EA5F66"/>
<path d="M18.6201 52.6655L16.8725 51.9861L16.1931 53.7337L17.9407 54.4131L18.6201 52.6655Z" fill="#EA5F66"/>
<path d="M15.4155 45.3845L13.6679 44.7051L12.9885 46.4527L14.7361 47.1321L15.4155 45.3845Z" fill="#EA5F66"/>
<path d="M16.7743 41.8894L15.0267 41.21L14.3473 42.9575L16.0949 43.6369L16.7743 41.8894Z" fill="#EA5F66"/>
<path d="M18.1331 38.3942L16.3855 37.7148L15.7061 39.4624L17.4537 40.1418L18.1331 38.3942Z" fill="#EA5F66"/>
<path d="M19.4919 34.8989L17.7443 34.2195L17.0649 35.9671L18.8125 36.6465L19.4919 34.8989Z" fill="#EA5F66"/>
<path d="M50.2219 61.9333L48.4743 61.2539L47.7949 63.0015L49.5425 63.6809L50.2219 61.9333Z" fill="#EA5F66"/>
<path d="M46.5814 63.5356L44.8339 62.8562L44.1545 64.6038L45.9021 65.2832L46.5814 63.5356Z" fill="#EA5F66"/>
<path d="M53.8624 60.331L52.1148 59.6516L51.4354 61.3992L53.183 62.0786L53.8624 60.331Z" fill="#EA5F66"/>
<path d="M55.2212 56.8359L53.4736 56.1565L52.7942 57.9041L54.5418 58.5835L55.2212 56.8359Z" fill="#EA5F66"/>
<path d="M56.5799 53.3408L54.8324 52.6614L54.153 54.409L55.9005 55.0884L56.5799 53.3408Z" fill="#EA5F66"/>
<path d="M57.9387 49.8457L56.1912 49.1663L55.5118 50.9138L57.2594 51.5932L57.9387 49.8457Z" fill="#EA5F66"/>
<path d="M42.7917 31.8869L41.0441 31.2075L36.9677 41.693L38.7153 42.3724L42.7917 31.8869Z" fill="#EA5F66"/>
</g>
<defs>
<clipPath id="clip0_1_4148">
<rect width="60" height="60" fill="white" transform="translate(21.7695 0.57959) rotate(21.2441)"/>
</clipPath>
</defs>
</svg>
