<svg width="85" height="85" viewBox="0 0 85 85" fill="none" xmlns="http://www.w3.org/2000/svg">
<g clip-path="url(#clip0_1_4179)">
<path d="M41.3834 46.7013C42.0011 46.8566 42.5319 47.2506 42.8595 47.7968C43.1871 48.3429 43.2847 48.9968 43.1309 49.6148C43.0605 49.8962 43.1048 50.1941 43.254 50.4428C43.4032 50.6916 43.6451 50.8709 43.9265 50.9413C44.2079 51.0117 44.5058 50.9674 44.7545 50.8182C45.0033 50.669 45.1826 50.4271 45.253 50.1457C45.5008 49.1494 45.408 48.0989 44.9893 47.1615C44.5707 46.2241 43.8504 45.4539 42.9431 44.9734L43.1768 44.0395C43.2472 43.758 43.2029 43.4602 43.0537 43.2114C42.9045 42.9627 42.6626 42.7834 42.3811 42.713C42.0997 42.6426 41.8019 42.6868 41.5531 42.8361C41.3044 42.9853 41.1251 43.2272 41.0547 43.5086L40.821 44.4426C39.6992 44.4375 38.6144 44.8435 37.7715 45.5838C36.9286 46.3242 36.3861 47.3476 36.2465 48.4607C36.1068 49.5738 36.3797 50.6995 37.0135 51.6252C37.6474 52.5508 38.5983 53.2122 39.6866 53.4844C40.1475 53.5997 40.5639 53.8491 40.8831 54.201C41.2023 54.553 41.4099 54.9917 41.4798 55.4616C41.5496 55.9316 41.4786 56.4117 41.2756 56.8413C41.0725 57.2709 40.7467 57.6306 40.3393 57.875C39.9318 58.1194 39.461 58.2375 38.9865 58.2143C38.5119 58.1911 38.0549 58.0278 37.6732 57.7448C37.2914 57.4619 37.0022 57.0722 36.842 56.6249C36.6818 56.1776 36.6578 55.6928 36.7731 55.2319C36.8435 54.9505 36.7993 54.6526 36.65 54.4039C36.5008 54.1551 36.2589 53.9758 35.9775 53.9054C35.6961 53.835 35.3983 53.8793 35.1495 54.0285C34.9007 54.1777 34.7214 54.4196 34.651 54.701C34.4033 55.6973 34.4961 56.7478 34.9147 57.6851C35.3334 58.6225 36.0537 59.3928 36.9609 59.8732L36.675 61.016C36.6047 61.2974 36.6489 61.5952 36.7981 61.844C36.9473 62.0928 37.1893 62.2721 37.4707 62.3425C37.7521 62.4129 38.0499 62.3686 38.2987 62.2194C38.5475 62.0702 38.7268 61.8283 38.7972 61.5468L39.083 60.4041C40.2048 60.4092 41.2897 60.0032 42.1325 59.2628C42.9754 58.5225 43.5179 57.4991 43.6576 56.386C43.7972 55.2729 43.5244 54.1471 42.8905 53.2215C42.2567 52.2959 41.3058 51.6345 40.2175 51.3623C39.5994 51.2077 39.068 50.8138 38.7403 50.2675C38.4126 49.7211 38.3154 49.0669 38.47 48.4488C38.6246 47.8307 39.0184 47.2994 39.5648 46.9717C40.1112 46.644 40.7653 46.5467 41.3834 46.7013V46.7013Z" fill="#FFCD52"/>
<path d="M43.4299 38.52C40.6643 37.8281 37.7557 37.9719 35.0719 38.9332C32.388 39.8944 30.0495 41.6299 28.352 43.9202C26.6545 46.2105 25.6742 48.9527 25.5352 51.8001C25.3962 54.6475 26.1047 57.4722 27.5711 59.917C29.0374 62.3617 31.1958 64.3167 33.7733 65.5348C36.3507 66.7529 39.2315 67.1793 42.0513 66.7601C44.8711 66.3409 47.5033 65.095 49.615 63.1799C51.7267 61.2648 53.2231 58.7665 53.9149 56.0009C54.8381 52.2926 54.2526 48.3696 52.287 45.0924C50.3214 41.8152 47.1361 39.4516 43.4299 38.52V38.52ZM36.9649 64.3638C34.619 63.777 32.4998 62.5077 30.8754 60.7164C29.2509 58.9252 28.194 56.6925 27.8385 54.3007C27.4829 51.9088 27.8446 49.4652 28.8778 47.2789C29.9111 45.0926 31.5694 43.2618 33.6431 42.018C35.7168 40.7742 38.1128 40.1732 40.5281 40.2911C42.9434 40.409 45.2694 41.2405 47.2121 42.6804C49.1548 44.1203 50.627 46.1039 51.4423 48.3804C52.2577 50.657 52.3796 53.1242 51.7928 55.47C51.0026 58.6137 48.9977 61.3156 46.2179 62.983C43.438 64.6503 40.1103 65.1469 36.9649 64.3638V64.3638ZM73.1261 48.1301C73.0763 47.9953 73.0004 47.8718 72.9028 47.7664C72.8052 47.661 72.6878 47.5759 72.5573 47.5159C72.4268 47.4559 72.2858 47.4221 72.1422 47.4166C71.9987 47.4111 71.8555 47.434 71.7208 47.4838L71.4661 47.5781L69.9545 46.5479C69.4801 46.1356 69.1792 45.559 69.1124 44.9339L68.0234 34.9106C68.0207 34.8864 68.0174 34.8622 68.0135 34.8376C67.6056 32.5612 66.4804 30.4749 64.8023 28.8836C64.7648 28.848 64.7247 28.8152 64.6824 28.7854L50.9883 19.1177C50.7606 18.9569 50.48 18.8891 50.204 18.9282C49.928 18.9673 49.6773 19.1104 49.5032 19.3281C48.8138 20.188 48.4818 21.2803 48.576 22.3784C48.6703 23.4765 49.1837 24.4962 50.0096 25.226L54.8156 29.6812C54.283 30.3941 53.937 31.229 53.8094 32.1098C53.6817 32.9905 53.7763 33.8893 54.0846 34.7242L56.0654 40.0783C56.3622 40.8836 56.4741 41.7454 56.393 42.5998L56.3302 43.2507C56.1713 44.857 56.3834 46.4784 56.9501 47.9899C57.5168 49.5013 58.423 50.8625 59.5988 51.9684L58.8377 52.2503C58.703 52.3001 58.5794 52.376 58.474 52.4736C58.3686 52.5712 58.2835 52.6886 58.2235 52.8191C58.1634 52.9496 58.1297 53.0906 58.1242 53.2341C58.1187 53.3777 58.1415 53.5209 58.1913 53.6556L60.3634 59.5262C60.4133 59.6609 60.4892 59.7845 60.5868 59.8899C60.6844 59.9953 60.8018 60.0805 60.9323 60.1405C61.0628 60.2005 61.2039 60.2342 61.3474 60.2397C61.491 60.2452 61.6342 60.2223 61.7689 60.1725L74.6524 55.4061C74.7871 55.3563 74.9107 55.2804 75.0161 55.1828C75.1215 55.0852 75.2066 54.9678 75.2666 54.8373C75.3266 54.7068 75.3603 54.5657 75.3658 54.4222C75.3713 54.2787 75.3485 54.1355 75.2987 54.0007L73.1261 48.1301ZM58.5067 43.4604L58.5695 42.8095C58.682 41.6268 58.5272 40.4339 58.1165 39.3191L56.1356 33.9651C55.9131 33.3613 55.8804 32.704 56.0419 32.0811C56.2035 31.4583 56.5515 30.8997 57.0395 30.4803L59.8476 38.0715C59.9482 38.3436 60.1528 38.5645 60.4164 38.6857C60.6799 38.807 60.9808 38.8185 61.2529 38.7179C61.525 38.6172 61.7459 38.4126 61.8672 38.1491C61.9884 37.8855 61.9999 37.5846 61.8993 37.3126L58.6434 28.5118C58.5936 28.377 58.5177 28.2534 58.4201 28.1481C58.3225 28.0427 58.2051 27.9575 58.0746 27.8975C57.9441 27.8375 57.803 27.8038 57.6595 27.7983C57.5159 27.7928 57.3727 27.8156 57.238 27.8655C56.9703 27.9647 56.711 28.0852 56.4626 28.2258L51.4868 23.6128C51.4797 23.6062 51.4728 23.5999 51.4656 23.5934C51.194 23.3552 50.9882 23.0511 50.8682 22.7103C50.7481 22.3696 50.7177 22.0037 50.78 21.6478L63.3548 30.5262C64.6538 31.7798 65.5277 33.4087 65.8538 35.1843L66.9384 45.1701C67.067 46.374 67.6586 47.4808 68.588 48.2567C68.6158 48.2799 68.6446 48.3017 68.6746 48.3221L68.9493 48.5094L61.9687 51.0916C60.7718 50.2362 59.8216 49.0803 59.2138 47.7406C58.606 46.4008 58.3621 44.9245 58.5067 43.4604V43.4604ZM62.0353 57.7417L60.6222 53.9224L71.4539 49.9151L72.867 53.7345L62.0353 57.7417ZM17.6076 49.3223C17.7804 49.3657 17.9611 49.3663 18.1341 49.3239C18.3072 49.2815 18.4672 49.1976 18.6004 49.0793L23.2808 44.9229C23.3882 44.8275 23.4758 44.7119 23.5385 44.5827C23.6012 44.4535 23.6379 44.3131 23.6464 44.1698C23.6549 44.0264 23.635 43.8827 23.588 43.747C23.541 43.6113 23.4677 43.4861 23.3723 43.3787L22.8336 42.7717C24.3918 42.3498 25.8323 41.5757 27.044 40.5092C28.2558 39.4426 29.2065 38.1121 29.8228 36.6201L30.0739 36.0164C30.4046 35.2244 30.9091 34.5168 31.5502 33.946L35.8187 30.1552C36.4838 29.5638 36.9904 28.8155 37.2925 27.9784C37.5945 27.1412 37.6825 26.2418 37.5482 25.362L43.8847 23.6938C44.957 23.4389 45.8901 22.781 46.4903 21.8565C47.0906 20.9321 47.3119 19.812 47.1085 18.7287C47.0574 18.4547 46.9035 18.2106 46.6784 18.0462C46.4533 17.8817 46.1739 17.8095 45.8974 17.8441L29.264 19.9264C29.2127 19.9328 29.1619 19.9429 29.112 19.9566C26.8824 20.5703 24.9074 21.8808 23.4756 23.6967C23.4604 23.7159 23.446 23.7357 23.4325 23.7564L17.7524 32.0858C17.3992 32.6058 16.8623 32.9728 16.2496 33.1131L14.4309 33.3108L14.2505 33.1077C14.1552 33.0003 14.0396 32.9128 13.9104 32.85C13.7811 32.7873 13.6408 32.7506 13.4974 32.7421C13.3541 32.7336 13.2104 32.7534 13.0747 32.8005C12.939 32.8475 12.8138 32.9208 12.7064 33.0161L8.02668 37.1725C7.91928 37.2679 7.83171 37.3835 7.76898 37.5127C7.70625 37.6419 7.66959 37.7822 7.66109 37.9256C7.65258 38.069 7.6724 38.2127 7.71942 38.3484C7.76643 38.4841 7.83972 38.6093 7.9351 38.7167L17.0568 48.9878C17.2025 49.1523 17.3945 49.2689 17.6076 49.3223ZM16.544 35.2815C16.58 35.2776 16.6157 35.2719 16.6511 35.2646C17.8364 35.0177 18.8794 34.3198 19.5597 33.3183L25.2184 25.0193C26.3422 23.6064 27.8801 22.5809 29.6163 22.0865L44.8895 20.1746C44.7768 20.5178 44.5777 20.8263 44.3114 21.0704C44.045 21.3144 43.7204 21.4859 43.3686 21.5682C43.3592 21.5703 43.3501 21.5727 43.3407 21.5753L36.7789 23.3021C36.626 23.061 36.454 22.8326 36.2646 22.6191C36.1692 22.5117 36.0536 22.4241 35.9244 22.3614C35.7952 22.2986 35.6548 22.2619 35.5114 22.2534C35.368 22.2449 35.2244 22.2647 35.0886 22.3118C34.9529 22.3588 34.8277 22.4321 34.7203 22.5275L27.7041 28.7586C27.4872 28.9513 27.3557 29.2222 27.3386 29.5118C27.3214 29.8014 27.42 30.0859 27.6127 30.3028C27.8053 30.5197 28.0762 30.6512 28.3658 30.6683C28.6554 30.6855 28.9399 30.5869 29.1568 30.3942L35.2085 25.0194C35.4415 25.6192 35.4855 26.2758 35.3348 26.9014C35.1841 27.5269 34.8457 28.0914 34.3651 28.5193L30.0969 32.3099C29.2097 33.1 28.5114 34.0794 28.0538 35.1758L27.8027 35.7796C27.2409 37.1392 26.3306 38.3267 25.1636 39.2224C23.9966 40.1181 22.6141 40.6903 21.1554 40.8814L16.2138 35.3175L16.544 35.2815ZM13.3413 35.3777L21.0104 44.0133L17.9655 46.7172L10.2964 38.0818L13.3413 35.3777Z" fill="#FFCD52"/>
</g>
<defs>
<clipPath id="clip0_1_4179">
<rect width="70" height="70" fill="white" transform="translate(16.9875) rotate(14.0448)"/>
</clipPath>
</defs>
</svg>
