<svg width="90" height="90" viewBox="0 0 90 90" fill="none" xmlns="http://www.w3.org/2000/svg">
<g clip-path="url(#clip0_1_4144)">
<path d="M26.6672 18.7636C26.5304 18.8106 26.4178 18.9099 26.354 19.0398C26.2902 19.1696 26.2805 19.3194 26.3269 19.4565L26.4965 19.9764L25.9765 20.1459C25.9073 20.1674 25.843 20.2024 25.7875 20.249C25.7319 20.2955 25.6862 20.3526 25.6529 20.417C25.6196 20.4814 25.5994 20.5517 25.5936 20.624C25.5877 20.6962 25.5962 20.7689 25.6187 20.8378C25.6412 20.9067 25.6771 20.9705 25.7244 21.0253C25.7717 21.0802 25.8295 21.1252 25.8943 21.1576C25.9592 21.1899 26.0298 21.2091 26.1021 21.214C26.1744 21.2188 26.247 21.2092 26.3156 21.1858L26.8355 21.0163L27.005 21.5362C27.0265 21.6054 27.0615 21.6697 27.1081 21.7253C27.1546 21.7808 27.2117 21.8266 27.2761 21.8598C27.3405 21.8931 27.4108 21.9133 27.4831 21.9192C27.5553 21.925 27.628 21.9165 27.6969 21.894C27.7658 21.8716 27.8296 21.8356 27.8844 21.7883C27.9393 21.741 27.9843 21.6832 28.0167 21.6184C28.049 21.5536 28.0682 21.4829 28.0731 21.4106C28.0779 21.3383 28.0683 21.2657 28.0449 21.1972L27.8754 20.6772L28.3953 20.5077C28.4645 20.4862 28.5288 20.4512 28.5843 20.4046C28.6399 20.3581 28.6857 20.301 28.7189 20.2366C28.7522 20.1722 28.7724 20.1019 28.7783 20.0297C28.7841 19.9574 28.7756 19.8847 28.7531 19.8158C28.7307 19.7469 28.6947 19.6832 28.6474 19.6283C28.6001 19.5734 28.5423 19.5284 28.4775 19.4961C28.4127 19.4637 28.342 19.4445 28.2697 19.4397C28.1974 19.4348 28.1248 19.4444 28.0563 19.4678L27.5363 19.6374L27.3668 19.1174C27.345 19.0477 27.3094 18.983 27.2621 18.9273C27.2149 18.8715 27.157 18.8258 27.0917 18.7928C27.0265 18.7598 26.9554 18.7403 26.8825 18.7352C26.8095 18.7302 26.7364 18.7398 26.6672 18.7636V18.7636ZM41.5834 15.0664C40.7281 15.3453 40.2533 16.2795 40.5321 17.1348C40.811 17.9901 41.7452 18.4649 42.6005 18.186C43.4558 17.9071 43.9306 16.9729 43.6517 16.1176C43.3729 15.2623 42.4387 14.7875 41.5834 15.0664ZM41.9224 16.1063C42.2157 16.0106 42.5162 16.1634 42.6119 16.4567C42.7075 16.75 42.5548 17.0505 42.2615 17.1461C41.9681 17.2418 41.6676 17.089 41.572 16.7957C41.4764 16.5024 41.6291 16.2019 41.9224 16.1063ZM22.9091 25.7612C22.5409 25.8994 22.2763 26.0944 22.1238 26.3228C21.7171 26.9319 21.9733 27.7695 22.724 28.8459C23.4747 29.9224 24.7566 31.2435 26.5858 32.7928C27.0912 33.2209 27.6306 33.6553 28.1898 34.0944C27.3672 37.0868 27.3758 40.3431 28.4089 43.5116C28.7848 44.6617 29.2876 45.7449 29.89 46.7586C27.7262 46.5431 26.2876 46.0209 25.7098 45.3983C25.2917 44.9476 25.1972 44.499 25.4467 43.8056C25.6962 43.1124 26.3686 42.2192 27.5254 41.236L26.7911 40.4103C25.5523 41.4633 24.7539 42.4514 24.4048 43.4218C24.0557 44.3923 24.2349 45.3921 24.9053 46.1144C25.9428 47.2326 27.8887 47.8009 30.6571 47.9263C32.9047 51.0596 36.2167 53.3302 40.0393 54.2841C39.8593 54.5529 39.6777 54.8331 39.4996 55.0892C38.1406 57.0428 36.9675 58.4134 36.1343 59.1568C35.7177 59.5287 35.4014 59.7377 35.161 59.8449C34.9206 59.952 34.726 59.9867 34.5208 59.9143C34.1128 59.7766 33.7848 59.1444 33.7522 57.9427C33.7195 56.7411 33.9535 54.9969 34.4978 52.7317L33.234 53.328C32.6765 55.6479 32.4259 57.4595 32.4613 58.7592C32.4966 60.0591 32.7898 60.8755 33.4888 61.1114C33.8384 61.2294 34.3168 61.1755 34.8654 60.9299C35.414 60.6843 36.0008 60.2676 36.5919 59.7401C37.7739 58.6853 39.0359 57.162 40.4696 55.1009C40.6065 54.9041 40.7449 54.6887 40.8824 54.4855L42.5511 59.6037L41.2695 60.0215C41.1317 60.0665 41.0173 60.1644 40.9516 60.2937C40.8859 60.423 40.8742 60.5731 40.9191 60.711L41.4621 62.3764C40.9355 62.7961 40.6782 63.5004 40.8964 64.1696C41.1146 64.8388 41.7369 65.2541 42.4097 65.2828L42.8183 66.5359C42.2917 66.9556 42.0344 67.6599 42.2526 68.3291C42.4707 68.9983 43.0931 69.4136 43.7659 69.4423L44.3096 71.1097C44.3545 71.2476 44.4524 71.3619 44.5817 71.4277C44.711 71.4934 44.8611 71.5051 44.999 71.4601L47.5987 70.6125L48.1073 72.1723C48.1523 72.3102 48.2501 72.4246 48.3794 72.4903C48.5087 72.556 48.6588 72.5677 48.7967 72.5227L51.3964 71.6751L51.7355 72.715L52.7753 72.376L52.4363 71.3361L56.5958 69.9799L56.9348 71.0198L57.9747 70.6807L57.6357 69.6409L60.2354 68.7933C60.3732 68.7483 60.4876 68.6504 60.5533 68.5211C60.619 68.3918 60.6307 68.2417 60.5858 68.1038L60.0772 66.544L62.6769 65.6964C62.8148 65.6514 62.9291 65.5535 62.9949 65.4242C63.0606 65.2949 63.0722 65.1448 63.0273 65.0069L62.4836 63.3395C63.0103 62.9197 63.2682 62.2174 63.05 61.5482C62.8318 60.879 62.2088 60.4618 61.536 60.4331L61.1275 59.18C61.6541 58.7602 61.912 58.0579 61.6939 57.3887C61.4757 56.7195 60.8527 56.3023 60.1799 56.2736L59.6369 54.6082C59.5919 54.4703 59.494 54.3559 59.3647 54.2902C59.2354 54.2245 59.0853 54.2128 58.9474 54.2578L57.6658 54.6756L55.9971 49.5575C56.2279 49.6405 56.4667 49.733 56.6933 49.8113C59.0663 50.6312 60.9835 51.1178 62.5603 51.2733C63.3487 51.351 64.0682 51.3416 64.6562 51.2168C65.2441 51.0918 65.6623 50.8531 65.8752 50.552C66.3009 49.9495 66.0565 49.1171 65.3189 48.0462C64.5813 46.9754 63.3111 45.6597 61.4934 44.1142L60.1209 44.3774C61.8958 45.8865 63.1129 47.1575 63.7948 48.1475C64.4767 49.1375 64.5844 49.8416 64.336 50.1933C64.2118 50.3692 64.0354 50.4599 63.7779 50.5145C63.5206 50.5697 63.1418 50.5872 62.5861 50.5324C61.4748 50.4229 59.7193 50.0072 57.4699 49.2301C57.1751 49.1282 56.8633 49.0089 56.5594 48.8978C58.7648 46.2575 60.0702 43.0366 60.3443 39.694C61.8194 38.7476 62.9792 37.8244 63.7902 36.9348C64.6893 35.9483 65.2041 34.9912 65.2197 34.042C65.2276 33.5675 65.0903 33.1145 64.8326 32.7099C64.575 32.3055 64.1976 31.9492 63.7262 31.6664C62.7832 31.1005 61.4672 30.7477 59.7496 30.5789L59.6655 31.6579C61.2822 31.8168 62.4583 32.1632 63.1688 32.5895C63.8794 33.0159 64.1261 33.439 64.1169 33.9949C64.1077 34.5509 63.7608 35.3197 62.9594 36.199C62.3519 36.8655 61.4925 37.5898 60.3923 38.3459C60.3905 36.6714 60.1399 34.9844 59.6051 33.3403C58.572 30.1718 56.6596 27.5362 54.2313 25.6038C54.4243 24.9194 54.604 24.2505 54.7599 23.6069C55.3243 21.2771 55.5811 19.4543 55.5531 18.1422C55.5251 16.8301 55.2383 16.0025 54.5508 15.7502C54.207 15.624 53.739 15.6641 53.1933 15.9007C52.6475 16.1373 52.0556 16.5492 51.465 17.0709C50.2839 18.1141 49.0277 19.6255 47.5962 21.6757L48.5635 21.6928C49.9192 19.7513 51.0881 18.3923 51.9123 17.6642C52.3245 17.3002 52.6347 17.0993 52.872 16.9964C53.1093 16.8934 53.3067 16.8665 53.51 16.9411C53.9168 17.0904 54.2369 17.7389 54.2629 18.9538C54.2889 20.1688 54.048 21.9232 53.4968 24.1985C53.4395 24.4351 53.367 24.6879 53.3042 24.9308C49.2372 22.1327 43.9703 21.1772 38.92 22.8238C33.8698 24.4704 30.1782 28.3468 28.5422 33.0043C28.3482 32.8451 28.1406 32.6836 27.9549 32.5263C26.1685 31.0131 24.9398 29.7379 24.2447 28.7411C23.5495 27.7444 23.4279 27.0311 23.6685 26.6707C23.7888 26.4906 23.9642 26.396 24.2165 26.3393C24.4689 26.2825 24.8379 26.262 25.3854 26.3132C26.4804 26.4155 28.2236 26.825 30.4632 27.5943L31.2365 27.0096C28.8717 26.1973 26.9641 25.7174 25.395 25.5708C24.6104 25.4975 23.8915 25.5131 23.3111 25.6436C23.1661 25.6763 23.0318 25.7151 22.9091 25.7613L22.9091 25.7612ZM18.2031 29.5829C18.0992 29.6163 18.0077 29.6801 17.9404 29.7659C17.873 29.8518 17.8329 29.9558 17.8251 30.0647C17.8174 30.1735 17.8423 30.2822 17.8968 30.3767C17.9513 30.4712 18.0328 30.5473 18.1309 30.5951L18.6183 30.8428L18.3706 31.3303C18.3362 31.3945 18.315 31.4649 18.3082 31.5374C18.3014 31.6099 18.3092 31.683 18.331 31.7524C18.3528 31.8219 18.3883 31.8863 18.4354 31.9419C18.4824 31.9975 18.5401 32.0431 18.605 32.076C18.6699 32.109 18.7407 32.1288 18.8133 32.134C18.886 32.1393 18.9589 32.1299 19.0279 32.1066C19.0968 32.0833 19.1605 32.0465 19.215 31.9983C19.2696 31.95 19.3139 31.8914 19.3455 31.8258L19.5933 31.3383L20.0808 31.5861C20.1449 31.6205 20.2153 31.6417 20.2878 31.6485C20.3603 31.6553 20.4334 31.6475 20.5029 31.6257C20.5724 31.6039 20.6368 31.5684 20.6923 31.5214C20.7479 31.4743 20.7935 31.4166 20.8265 31.3517C20.8595 31.2868 20.8792 31.216 20.8845 31.1434C20.8897 31.0708 20.8804 30.9978 20.8571 30.9288C20.8338 30.8598 20.7969 30.7963 20.7487 30.7417C20.7005 30.6872 20.6419 30.6428 20.5763 30.6112L20.0888 30.3634L20.3366 29.876C20.3883 29.7784 20.4092 29.6674 20.3967 29.5577C20.3841 29.448 20.3387 29.3446 20.2662 29.2612C20.1938 29.1778 20.0979 29.1183 19.991 29.0905C19.8841 29.0627 19.7713 29.0679 19.6674 29.1055C19.5336 29.1538 19.4239 29.2525 19.3616 29.3804L19.1139 29.8679L18.6264 29.6201C18.5619 29.586 18.4912 29.5651 18.4185 29.5587C18.3458 29.5523 18.2725 29.5606 18.2031 29.5829V29.5829ZM39.2591 23.8637C44.1138 22.2808 49.1743 23.263 53.0084 26.0497C51.6591 30.8452 49.3633 36.6395 46.7585 42.1305L43.9679 43.0404C39.4273 40.5746 34.9569 37.8087 31.3067 35.1363C32.3936 30.9503 35.5167 27.3892 39.9385 25.9475L39.5994 24.9076C34.9668 26.418 31.6393 30.0877 30.3628 34.4397C30.0517 34.2041 29.7368 33.9666 29.4406 33.7338C30.8953 29.2228 34.4043 25.4465 39.2591 23.8637ZM62.271 22.1106C62.1342 22.1576 62.0215 22.2569 61.9577 22.3867C61.894 22.5166 61.8843 22.6665 61.9307 22.8035L62.1003 23.3234L61.5803 23.493C61.5111 23.5144 61.4468 23.5495 61.3913 23.596C61.3357 23.6426 61.29 23.6997 61.2567 23.764C61.2234 23.8284 61.2032 23.8988 61.1973 23.971C61.1915 24.0432 61.2 24.1159 61.2225 24.1848C61.245 24.2537 61.2809 24.3175 61.3282 24.3724C61.3755 24.4273 61.4333 24.4722 61.4981 24.5046C61.563 24.537 61.6336 24.5562 61.7059 24.561C61.7782 24.5658 61.8508 24.5563 61.9194 24.5328L62.4393 24.3633L62.6088 24.8832C62.6303 24.9525 62.6653 25.0167 62.7119 25.0723C62.7584 25.1279 62.8155 25.1736 62.8799 25.2069C62.9443 25.2402 63.0146 25.2603 63.0869 25.2662C63.1591 25.2721 63.2318 25.2636 63.3007 25.2411C63.3696 25.2186 63.4334 25.1827 63.4882 25.1353C63.5431 25.088 63.5881 25.0303 63.6205 24.9654C63.6528 24.9006 63.672 24.83 63.6769 24.7577C63.6817 24.6854 63.6721 24.6128 63.6487 24.5442L63.4792 24.0243L63.9991 23.8547C64.0683 23.8333 64.1326 23.7982 64.1881 23.7517C64.2437 23.7051 64.2895 23.648 64.3227 23.5837C64.356 23.5193 64.3762 23.4489 64.3821 23.3767C64.3879 23.3045 64.3794 23.2318 64.3569 23.1629C64.3345 23.094 64.2985 23.0302 64.2512 22.9753C64.2039 22.9204 64.1461 22.8755 64.0813 22.8431C64.0165 22.8107 63.9458 22.7915 63.8735 22.7867C63.8012 22.7819 63.7286 22.7914 63.6601 22.8149L63.1401 22.9844L62.9706 22.4645C62.9488 22.3947 62.9132 22.3301 62.8659 22.2743C62.8187 22.2185 62.7607 22.1728 62.6955 22.1398C62.6303 22.1068 62.5592 22.0872 62.4862 22.0822C62.4133 22.0772 62.3402 22.0869 62.271 22.1106V22.1106ZM29.1362 34.8194C29.4462 35.054 29.7762 35.2892 30.0989 35.5256C29.6051 37.8785 29.6907 40.3861 30.4886 42.8335L31.5285 42.4945C30.8435 40.3936 30.7224 38.2474 31.0713 36.213C34.5449 38.6826 38.5881 41.1773 42.7472 43.4384L40.1638 44.2807L40.5029 45.3206L42.5826 44.6425L42.8356 45.4183C39.4637 46.2109 36.135 46.7297 33.2145 46.8454C32.4993 46.8736 31.8464 46.8669 31.2236 46.8451C30.4815 45.7199 29.8794 44.4903 29.4488 43.1726C28.5334 40.3651 28.4875 37.4898 29.1362 34.8194ZM53.8941 26.7472C55.9922 28.5221 57.6499 30.8719 58.5652 33.6793C59.1396 35.445 59.373 37.2652 59.2973 39.0602C59.2859 39.064 59.2796 39.0775 59.2682 39.0812C56.5157 40.7738 52.9463 42.3269 49.1477 43.6077L48.8226 42.6105L50.9023 41.9324L50.5633 40.8925L47.9799 41.7348C50.3899 36.6487 52.5087 31.3518 53.8949 26.7495L53.8941 26.7472ZM69.0204 33.7217C68.9166 33.7552 68.8251 33.8189 68.7577 33.9048C68.6904 33.9906 68.6503 34.0947 68.6425 34.2035C68.6347 34.3123 68.6597 34.421 68.7142 34.5155C68.7687 34.6101 68.8502 34.6861 68.9483 34.734L69.4357 34.9817L69.188 35.4691C69.1536 35.5333 69.1324 35.6038 69.1256 35.6762C69.1188 35.7487 69.1265 35.8218 69.1484 35.8913C69.1702 35.9607 69.2057 36.0252 69.2527 36.0807C69.2998 36.1363 69.3574 36.1819 69.4224 36.2149C69.4873 36.2479 69.5581 36.2676 69.6307 36.2728C69.7033 36.2781 69.7763 36.2688 69.8452 36.2454C69.9142 36.2221 69.9779 36.1853 70.0324 36.1371C70.087 36.0889 70.1313 36.0302 70.1629 35.9646L70.4107 35.4772L70.8981 35.7249C70.9623 35.7593 71.0327 35.7805 71.1052 35.7873C71.1777 35.7941 71.2508 35.7863 71.3203 35.7645C71.3897 35.7427 71.4541 35.7072 71.5097 35.6602C71.5653 35.6132 71.6109 35.5555 71.6439 35.4906C71.6769 35.4257 71.6966 35.3548 71.7018 35.2822C71.7071 35.2096 71.6978 35.1366 71.6745 35.0677C71.6512 34.9987 71.6143 34.9351 71.5661 34.8805C71.5179 34.826 71.4592 34.7816 71.3936 34.75L70.9062 34.5022L71.154 34.0148C71.2057 33.9172 71.2266 33.8063 71.2141 33.6965C71.2015 33.5868 71.1561 33.4834 71.0836 33.4001C71.0112 33.3167 70.9153 33.2572 70.8084 33.2294C70.7015 33.2016 70.5887 33.2068 70.4848 33.2443C70.351 33.2927 70.2413 33.3914 70.179 33.5193L69.9313 34.0068L69.4438 33.759C69.3793 33.7249 69.3086 33.704 69.2359 33.6976C69.1632 33.6912 69.0899 33.6994 69.0204 33.7217ZM32.0324 47.9543C32.4387 47.9524 32.8514 47.9467 33.2871 47.9294C36.3185 47.8094 39.734 47.284 43.1799 46.4744L43.7236 48.1419C42.7021 50.0151 41.6715 51.773 40.6568 53.3525C37.2057 52.5791 34.1804 50.6499 32.0324 47.9543V47.9543ZM43.6225 44.3034L44.0713 44.1571C44.4705 44.368 44.8646 44.5832 45.2636 44.7884C44.8089 44.9125 44.3558 45.0419 43.9007 45.1569L43.6226 44.3039L43.6225 44.3034ZM45.292 43.7591L46.1125 43.4916C46.0211 43.6785 45.9353 43.872 45.8433 44.0579C45.6594 43.962 45.476 43.8562 45.292 43.7591ZM47.3331 43.0936L47.782 42.9472L48.1078 43.9465C47.6346 44.1008 47.1702 44.2637 46.6888 44.3976C46.9068 43.9642 47.1173 43.5282 47.3317 43.0892L47.3331 43.0936ZM59.177 40.4071C58.7882 43.3699 57.539 46.1974 55.5115 48.5092C53.7607 47.8314 51.8921 47.0188 49.9628 46.1076L49.4907 44.6596C53.0625 43.4547 56.4315 42.0073 59.177 40.4071ZM44.2443 46.2105C44.4333 46.1627 44.6212 46.1072 44.8099 46.0572C44.6839 46.3004 44.5577 46.5427 44.4309 46.783L44.2442 46.2103L44.2443 46.2105ZM45.993 45.737C46.2502 45.6647 46.5086 45.6023 46.7652 45.5278C47.5054 45.8956 48.2496 46.2799 48.9805 46.6233L52.1882 56.4614L48.0287 57.8176L44.821 47.9795C45.2183 47.2545 45.6029 46.4883 45.993 45.7369L45.993 45.737ZM48.0149 45.1434C48.1611 45.0957 48.3053 45.0478 48.4516 45.001L48.5913 45.4295C48.3995 45.3357 48.2075 45.2389 48.0149 45.1434ZM66.2961 41.5125C65.4408 41.7914 64.966 42.7256 65.2448 43.5809C65.5237 44.4362 66.4579 44.911 67.3132 44.6321C68.1685 44.3533 68.6433 43.419 68.3644 42.5638C68.0856 41.7085 67.1514 41.2336 66.2961 41.5125ZM44.0865 49.2549L46.9888 58.1568L43.591 59.2646L41.7329 53.5656L41.5257 53.5297C42.3797 52.2162 43.2349 50.7555 44.0864 49.2547L44.0865 49.2549ZM50.3257 47.2207C51.8982 47.9311 53.45 48.6069 54.9141 49.1646L54.7679 49.3159L56.626 55.0149L53.2282 56.1228L50.3258 47.2209L50.3257 47.2207ZM20.8787 57.4642C20.7418 57.5112 20.6292 57.6105 20.5654 57.7404C20.5016 57.8703 20.4919 58.0201 20.5384 58.1571L20.7079 58.6771L20.1879 58.8466C20.1187 58.8681 20.0545 58.9031 19.9989 58.9497C19.9434 58.9962 19.8976 59.0533 19.8643 59.1177C19.831 59.1821 19.8109 59.2524 19.805 59.3246C19.7991 59.3969 19.8077 59.4696 19.8301 59.5385C19.8526 59.6074 19.8885 59.6711 19.9358 59.726C19.9832 59.7809 20.0409 59.8259 20.1058 59.8582C20.1706 59.8906 20.2412 59.9098 20.3135 59.9146C20.3859 59.9195 20.4584 59.9099 20.527 59.8865L21.0469 59.7169L21.2165 60.2369C21.2379 60.3061 21.273 60.3703 21.3195 60.4259C21.366 60.4814 21.4232 60.5272 21.4875 60.5605C21.5519 60.5938 21.6223 60.614 21.6945 60.6199C21.7667 60.6257 21.8394 60.6171 21.9083 60.5947C21.9772 60.5722 22.041 60.5363 22.0959 60.489C22.1508 60.4417 22.1957 60.3839 22.2281 60.3191C22.2605 60.2542 22.2796 60.1836 22.2845 60.1112C22.2893 60.0389 22.2798 59.9664 22.2563 59.8978L22.0868 59.3779L22.6067 59.2084C22.676 59.1869 22.7402 59.1519 22.7958 59.1053C22.8513 59.0588 22.8971 59.0017 22.9304 58.9373C22.9637 58.8729 22.9838 58.8026 22.9897 58.7303C22.9956 58.6581 22.987 58.5854 22.9646 58.5165C22.9421 58.4476 22.9062 58.3839 22.8588 58.329C22.8115 58.2741 22.7538 58.2291 22.6889 58.1967C22.6241 58.1644 22.5535 58.1452 22.4811 58.1403C22.4088 58.1355 22.3363 58.1451 22.2677 58.1685L21.7478 58.338L21.5782 57.8181C21.5564 57.7483 21.5208 57.6837 21.4736 57.6279C21.4263 57.5722 21.3684 57.5265 21.3032 57.4935C21.238 57.4605 21.1668 57.4409 21.0939 57.4359C21.021 57.4309 20.9478 57.4405 20.8787 57.4642ZM66.6365 42.5567C66.9298 42.4611 67.2303 42.6138 67.326 42.9071C67.4216 43.2005 67.2689 43.5009 66.9756 43.5966C66.6823 43.6922 66.3817 43.5395 66.2861 43.2462C66.1905 42.9528 66.3432 42.6523 66.6365 42.5567ZM42.1299 60.8962L47.3293 59.201L48.3692 58.8619L52.5287 57.5057L53.5685 57.1667L58.7679 55.4715L59.107 56.5113L42.469 61.936L42.1299 60.8962ZM67.9452 53.6273C67.8083 53.6743 67.6957 53.7737 67.6319 53.9036C67.5682 54.0335 67.5584 54.1833 67.6049 54.3203L67.7744 54.8403L67.2545 55.0098C67.1853 55.0313 67.121 55.0663 67.0655 55.1129C67.0099 55.1594 66.9642 55.2165 66.9309 55.2809C66.8976 55.3453 66.8774 55.4156 66.8715 55.4878C66.8657 55.5601 66.8742 55.6328 66.8967 55.7017C66.9192 55.7706 66.9551 55.8343 67.0024 55.8892C67.0497 55.9441 67.1075 55.9891 67.1723 56.0214C67.2372 56.0538 67.3078 56.073 67.3801 56.0778C67.4524 56.0827 67.525 56.0731 67.5936 56.0497L68.1135 55.8801L68.283 56.4001C68.3045 56.4693 68.3395 56.5335 68.3861 56.5891C68.4326 56.6446 68.4897 56.6904 68.5541 56.7237C68.6185 56.757 68.6888 56.7772 68.7611 56.7831C68.8333 56.7889 68.906 56.7803 68.9749 56.7579C69.0438 56.7354 69.1075 56.6995 69.1624 56.6522C69.2173 56.6049 69.2623 56.5471 69.2947 56.4823C69.327 56.4174 69.3462 56.3468 69.351 56.2744C69.3559 56.2021 69.3463 56.1296 69.3229 56.061L69.1534 55.5411L69.6733 55.3716C69.7425 55.3501 69.8068 55.3151 69.8623 55.2685C69.9179 55.222 69.9636 55.1649 69.9969 55.1005C70.0302 55.0361 70.0504 54.9658 70.0563 54.8935C70.0621 54.8213 70.0536 54.7486 70.0311 54.6797C70.0087 54.6108 69.9727 54.5471 69.9254 54.4922C69.8781 54.4373 69.8203 54.3923 69.7555 54.3599C69.6906 54.3276 69.62 54.3084 69.5477 54.3035C69.4754 54.2987 69.4028 54.3083 69.3343 54.3317L68.8143 54.5012L68.6448 53.9813C68.6234 53.911 68.5881 53.8457 68.5409 53.7893C68.4938 53.733 68.4358 53.6867 68.3703 53.6533C68.3049 53.6198 68.2335 53.6 68.1602 53.5948C68.0869 53.5897 68.0133 53.5992 67.9438 53.6231L67.9452 53.6273ZM42.345 63.1269L59.9091 57.4002C60.2528 57.2882 60.5636 57.4505 60.6554 57.7321C60.7472 58.0136 60.5918 58.328 60.2481 58.4401L42.684 64.1668C42.3403 64.2788 42.0294 64.1164 41.9377 63.8349C41.8459 63.5533 42.0012 63.239 42.345 63.1269V63.1269ZM30.8677 66.8827C30.0124 67.1616 29.5376 68.0958 29.8165 68.9511C30.0954 69.8064 31.0296 70.2812 31.8849 70.0024C32.7402 69.7235 33.215 68.7893 32.9361 67.934C32.6573 67.0787 31.723 66.6039 30.8677 66.8827ZM31.2068 67.9226C31.5001 67.827 31.8006 67.9797 31.8962 68.273C31.9919 68.5664 31.8391 68.8669 31.5458 68.9625C31.2525 69.0581 30.952 68.9054 30.8564 68.6121C30.7607 68.3187 30.9135 68.0182 31.2068 67.9226ZM43.4847 65.0514L60.1227 59.6266L60.4617 60.6665L43.8237 66.0912L43.4847 65.0514ZM43.6997 67.2821L61.2638 61.5554C61.6076 61.4433 61.9184 61.6057 62.0102 61.8873C62.1019 62.1688 61.9466 62.4832 61.6029 62.5953L44.0388 68.322C43.695 68.434 43.3842 68.2716 43.2924 67.9901C43.2006 67.7085 43.356 67.3942 43.6997 67.2821V67.2821ZM44.8409 69.2109L61.4789 63.7861L61.8179 64.826L59.271 65.6564C59.2531 65.6613 59.2355 65.667 59.2182 65.6736L47.7796 69.4031C47.7617 69.408 47.7441 69.4137 47.7268 69.4203L45.1799 70.2507L44.8409 69.2109V69.2109ZM48.6386 70.2735L59.0373 66.883L59.3764 67.9229L48.9776 71.3133L48.6386 70.2735Z" fill="#EA5F66"/>
</g>
<defs>
<clipPath id="clip0_1_4144">
<rect width="70" height="70" fill="white" transform="translate(0.874619 22.5735) rotate(-18.0582)"/>
</clipPath>
</defs>
</svg>
