<svg width="88" height="88" viewBox="0 0 88 88" fill="none" xmlns="http://www.w3.org/2000/svg">
<g clip-path="url(#clip0_1_4146)">
<path d="M23.0449 6.36675C22.7568 6.27601 22.4497 6.43594 22.3589 6.72399L7.56705 53.6674C7.47633 53.9555 7.63627 54.2625 7.92429 54.3534L30.4253 61.4434C31.1274 61.6761 31.4625 60.6125 30.754 60.4002L8.7746 53.4745L23.2377 7.57429L47.2311 15.1346L45.7519 19.8289C45.6611 20.117 45.8211 20.4241 46.1091 20.5149L50.8035 21.994L44.8867 40.7714L43.3219 40.2784C42.4641 40.008 41.5344 40.4923 41.2641 41.3501L41.0997 41.8717L37.4201 40.7122C36.57 40.4444 35.6587 40.9426 35.3907 41.7929L34.569 44.4009L23.6155 40.9495C23.3265 40.8584 23.0206 41.0177 22.9295 41.3067C22.8385 41.5957 22.9978 41.9016 23.2868 41.9926L34.2403 45.4441L32.7611 50.1384C32.6257 50.5681 32.698 51.0191 32.8914 51.3598C33.012 51.5725 33.1781 51.7384 33.3568 51.8872L32.6538 54.1183L20.6571 50.3381C20.3682 50.2471 20.0885 50.323 20.0296 50.51L19.8858 50.9664C19.8269 51.1533 20.0125 51.3758 20.3015 51.4669L32.2981 55.247L29.1831 65.1329C28.741 66.5357 29.5267 68.0409 30.9295 68.4829L34.0387 69.4626C34.088 69.4896 34.1416 69.5065 34.1976 69.5126L36.125 70.12C36.1744 70.147 36.228 70.1639 36.2839 70.1701L56.9888 76.6941C57.0381 76.7212 57.0917 76.7381 57.1477 76.7442L59.0752 77.3516C59.1245 77.3786 59.1781 77.3955 59.2341 77.4016L62.3433 78.3813C63.746 78.8233 65.2526 78.0405 65.6947 76.6376L69.8517 63.445C70.5247 63.4229 71.1458 62.9772 71.359 62.3006L73.9887 53.9551C74.2566 53.1048 73.7955 52.1741 72.9455 51.9062L69.2658 50.7468L69.4302 50.2252C69.7004 49.3674 69.2163 48.4377 68.3584 48.1673L66.2721 47.5099C65.4142 47.2396 64.4845 47.7238 64.2142 48.5816L64.0499 49.1032L61.9635 48.4458L62.4565 46.881C62.9064 45.4533 62.098 43.9012 60.6703 43.4513L52.3248 40.8216C50.8971 40.3718 49.345 41.1801 48.8951 42.6078L48.402 44.1726L46.3157 43.5152L46.48 42.9936C46.6926 42.319 46.4352 41.6037 45.8997 41.1959L52.011 21.8012L52.0161 21.7849C52.0197 21.7726 52.0229 21.76 52.0256 21.7475L52.0286 21.7306C52.0306 21.7185 52.0323 21.7063 52.0334 21.694C52.0357 21.6704 52.0364 21.6467 52.0356 21.623C52.0356 21.6102 52.0352 21.5973 52.0343 21.5845L52.0327 21.5683C52.0311 21.5556 52.0291 21.5431 52.0266 21.5306L52.023 21.5138C52.0198 21.5013 52.0162 21.4889 52.0122 21.4768L52.0079 21.462C52.0038 21.4504 51.9994 21.4381 51.9945 21.4265L51.9881 21.411C51.9851 21.4043 51.9817 21.3987 51.9784 21.3923L48.5793 14.5874C48.5131 14.4548 48.3959 14.3549 48.2545 14.3104L23.0449 6.36675ZM48.0418 16.2008L50.3946 20.7184L46.9594 19.636L48.0418 16.2008ZM31.4474 12.4547C31.1594 12.3639 30.8523 12.5239 30.7615 12.8119L30.1041 14.8983C30.0133 15.1864 30.1732 15.4934 30.4613 15.5842L41.9364 19.2C42.2244 19.2908 42.5315 19.1308 42.6223 18.8428L43.2797 16.7564C43.3705 16.4683 43.2105 16.1613 42.9225 16.0705L31.4474 12.4547ZM31.6403 13.6622L42.0722 16.9493L41.7435 17.9925L31.3116 14.7054L31.6403 13.6622ZM53.0827 23.859C52.7947 23.7682 52.4876 23.9281 52.3968 24.2162L50.7532 29.4322C50.6625 29.7202 50.8224 30.0273 51.1105 30.1181L77.7117 38.5002L78.7549 38.8289L80.3197 39.3219C80.6078 39.4126 80.9149 39.2527 81.0057 38.9647L82.6492 33.7488C82.74 33.4606 82.58 33.1536 82.292 33.0628L53.0827 23.859ZM23.5448 15.6984C23.2567 15.6076 22.9496 15.7675 22.8588 16.0556L21.544 20.2284C21.4532 20.5164 21.6132 20.8234 21.9012 20.9143L26.074 22.2291C26.3621 22.3198 26.6691 22.1599 26.7599 21.8719L28.0747 17.6991C28.1655 17.411 28.0056 17.104 27.7175 17.0132L23.5448 15.6984ZM30.8471 17.9993C30.559 17.9086 30.2519 18.0684 30.1611 18.3566L29.5037 20.4429C29.413 20.731 29.5729 21.038 29.8609 21.1289L36.1201 23.1011C36.4082 23.1918 36.7152 23.0319 36.806 22.7439L37.4634 20.6575C37.5542 20.3694 37.3942 20.0623 37.1062 19.9716L30.8471 17.9993ZM53.2756 25.0665L81.4417 33.9417L80.1268 38.1144L79.0836 37.7857L79.4124 36.7425L78.3692 36.4138L78.0405 37.457L76.9973 37.1283L77.6547 35.0419L76.6115 34.7132L75.9541 36.7996L74.9109 36.4709L75.2396 35.4277L74.1964 35.099L73.8677 36.1422L72.8245 35.8134L73.4819 33.7271L72.4387 33.3984L71.7813 35.4847L70.7381 35.156L71.0669 34.1128L70.0237 33.7841L69.695 34.8273L68.6518 34.4986L69.3092 32.4122L68.266 32.0835L67.6086 34.1699L66.5654 33.8412L66.8941 32.798L65.8509 32.4693L65.5222 33.5125L64.479 33.1838L65.1364 31.0974L64.0932 30.7687L63.4358 32.8551L62.3926 32.5264L62.7213 31.4832L61.6782 31.1545L61.3495 32.1977L60.3063 31.869L60.9637 29.7826L59.9205 29.4539L59.2631 31.5402L58.2199 31.2115L58.5486 30.1684L57.5054 29.8396L57.1767 30.8828L56.1335 30.5541L56.7909 28.4677L55.7477 28.139L55.0903 30.2254L54.0471 29.8967L54.3758 28.8535L53.3327 28.5248L53.004 29.568L51.9608 29.2393L53.2756 25.0665ZM23.7376 16.9059L26.8672 17.892L25.8811 21.0216L22.7515 20.0355L23.7376 16.9059ZM31.04 19.2069L36.2559 20.8504L35.9272 21.8936L30.7112 20.2501L31.04 19.2069ZM29.5322 22.1721C29.2433 22.081 28.9373 22.2404 28.8463 22.5293C28.7552 22.8183 28.9146 23.1242 29.2035 23.2153L45.8945 28.4746C46.1835 28.5656 46.4894 28.4063 46.5805 28.1173C46.6715 27.8284 46.5122 27.5225 46.2232 27.4314L29.5322 22.1721ZM28.8748 24.2584C28.5859 24.1674 28.2799 24.3267 28.1889 24.6157C28.0978 24.9047 28.2571 25.2106 28.5461 25.3016L38.978 28.5887C39.267 28.6798 39.5729 28.5204 39.6639 28.2315C39.755 27.9425 39.5957 27.6366 39.3067 27.5455L28.8748 24.2584ZM55.6653 33.8312C55.6394 33.8231 55.6135 33.8149 55.5846 33.8173L53.6205 33.1984C53.6084 33.1941 53.5962 33.1902 53.5838 33.1868L51.4974 32.5294C50.6396 32.2591 49.7099 32.7433 49.4396 33.6011L48.7822 35.6875C48.5118 36.5454 48.996 37.475 49.8539 37.7453L51.9403 38.4027L53.9472 39.0351C53.9966 39.0621 54.0502 39.079 54.1061 39.0852L72.804 44.9769L72.8183 44.9814C72.8315 44.9845 72.8441 44.9895 72.857 44.9936C72.8915 45.0045 72.929 45.0048 72.9651 45.0058L72.9794 45.0103C72.9876 45.0129 72.9957 45.0155 73.0071 45.0076L78.8805 44.5648C79.3715 44.5267 79.5659 43.9097 79.1855 43.5969L74.6646 39.8967C74.6398 39.8729 74.6127 39.8517 74.5838 39.8334L74.5776 39.8315C74.5364 39.8047 74.4918 39.7838 74.4446 39.7701L55.7488 33.8791C55.7191 33.8697 55.6924 33.8498 55.6624 33.8404L55.6653 33.8312ZM51.1701 33.5682L52.7349 34.0612L51.7488 37.1908L50.184 36.6977C49.886 36.6038 49.7328 36.3098 49.8268 36.0118L50.4842 33.9254C50.578 33.6275 50.8721 33.4743 51.1701 33.5682ZM53.7781 34.39L54.8213 34.7187L53.8352 37.8482L52.792 37.5195L53.7781 34.39ZM55.8645 35.0474L73.5986 40.6354L73.2699 41.6786L55.5358 36.0906L55.8645 35.0474ZM74.5635 41.2127L77.4386 43.5678L73.7334 43.8471L74.5635 41.2127ZM20.5864 25.0871C20.2983 24.9963 19.9913 25.1562 19.9004 25.4443L18.5856 29.617C18.4949 29.9051 18.6548 30.2121 18.9428 30.303L23.1156 31.6178C23.4037 31.7085 23.7108 31.5486 23.8015 31.2606L25.1164 27.0878C25.2071 26.7997 25.0472 26.4927 24.7591 26.4019L20.5864 25.0871ZM27.8887 27.388C27.6006 27.2972 27.2936 27.4571 27.2027 27.7453L26.5453 29.8316C26.4546 30.1197 26.6145 30.4267 26.9026 30.5176L34.2049 32.8185C34.493 32.9092 34.8 32.7493 34.8908 32.4613L35.5482 30.3749C35.639 30.0868 35.4791 29.7797 35.191 29.689L27.8887 27.388ZM55.207 37.1337L72.9412 42.7218L72.6125 43.765L54.8783 38.1769L55.207 37.1337ZM20.7786 26.2968L23.9081 27.283L22.922 30.4125L19.7924 29.4264L20.7786 26.2968ZM28.0809 28.5978L34.34 30.57L34.0113 31.6132L27.7522 29.641L28.0809 28.5978ZM26.5732 31.563C26.2842 31.4719 25.9783 31.6313 25.8872 31.9202C25.7962 32.2092 25.9555 32.5151 26.2445 32.6062L42.9355 37.8655C43.2244 37.9566 43.5304 37.7972 43.6214 37.5083C43.7125 37.2193 43.5531 36.9134 43.2642 36.8223L26.5732 31.563ZM25.9157 33.6494C25.6268 33.5583 25.3209 33.7176 25.2298 34.0066C25.1387 34.2956 25.2981 34.6015 25.587 34.6926L34.9757 37.6509C35.2647 37.742 35.5706 37.5826 35.6617 37.2937C35.7527 37.0047 35.5934 36.6988 35.3044 36.6077L25.9157 33.6494ZM51.9954 41.8671L60.3409 44.4967C61.1888 44.7639 61.6798 45.7067 61.4127 46.5546L60.9196 48.1193L59.8764 47.7906L60.3695 46.2259C60.4602 45.9377 60.3003 45.6307 60.0122 45.5399L51.6667 42.9102C51.3787 42.8195 51.0716 42.9794 50.9808 43.2675L50.4877 44.8323L49.4445 44.5036L49.9376 42.9388C50.2048 42.0909 51.1475 41.5999 51.9954 41.8671ZM42.9925 41.3238L45.0789 41.9812C45.3769 42.0751 45.53 42.3692 45.4361 42.6671L45.2718 43.1887L42.1422 42.2026L42.3066 41.681C42.4005 41.3831 42.6945 41.2299 42.9925 41.3238ZM51.8596 44.1178L59.1619 46.4187L58.8332 47.4619L51.5309 45.161L51.8596 44.1178ZM65.9426 48.5553L68.029 49.2128C68.327 49.3067 68.4801 49.6008 68.3863 49.8987L68.2219 50.4203L65.0923 49.4342L65.2567 48.9126C65.3506 48.6146 65.6447 48.4614 65.9426 48.5553ZM17.6273 34.478C17.3393 34.3872 17.0322 34.5471 16.9414 34.8352L15.6265 39.008C15.5358 39.296 15.6958 39.603 15.9838 39.6938L20.1565 41.0087C20.4446 41.0993 20.7517 40.9395 20.8425 40.6515L22.1573 36.4788C22.2481 36.1906 22.0881 35.8836 21.8001 35.7928L17.6273 34.478ZM24.9296 36.7789C24.6416 36.6882 24.3345 36.848 24.2437 37.1362L23.5863 39.2225C23.4955 39.5106 23.6555 39.8176 23.9435 39.9085L30.2026 41.8807C30.4907 41.9714 30.7978 41.8115 30.8886 41.5235L31.546 39.4371C31.6367 39.149 31.4768 38.8419 31.1887 38.7512L24.9296 36.7789ZM17.8202 35.6855L20.9498 36.6716L19.9636 39.8012L16.8341 38.8151L17.8202 35.6855ZM25.1225 37.9865L30.3384 39.63L30.0097 40.6732L24.7938 39.0297L25.1225 37.9865ZM37.0906 41.7576L41.2125 43.0564C41.2618 43.0834 41.3154 43.1003 41.3714 43.1065L45.3852 44.3712C45.4346 44.3983 45.4882 44.4151 45.5441 44.4213L48.5148 45.3574C48.5641 45.3844 48.6177 45.4013 48.6737 45.4074L50.6011 46.0148C50.6505 46.0418 50.7041 46.0587 50.7601 46.0648L58.9466 48.6444C58.996 48.6715 59.0496 48.6883 59.1056 48.6945L61.033 49.3019C61.0824 49.3289 61.136 49.3458 61.1919 49.3519L64.1626 50.288C64.212 50.315 64.2656 50.3319 64.3215 50.338L68.3353 51.6028C68.3847 51.6298 68.4383 51.6467 68.4943 51.6529L72.6161 52.9517C72.8907 53.0382 73.0411 53.3231 72.9448 53.6286L70.3151 61.9741C70.2189 62.2796 69.9323 62.4268 69.6577 62.3403C69.6172 62.3275 69.5769 62.3149 69.5329 62.3171L50.5853 60.8996L34.2487 51.1962C34.0569 51.0819 33.9118 50.9408 33.8432 50.8198C33.7745 50.6989 33.7575 50.6155 33.8043 50.4671L36.4339 42.1216C36.5302 41.8161 36.8167 41.6689 37.0913 41.7554L37.0906 41.7576ZM49.6945 49.1694C49.4064 49.0786 49.0994 49.2385 49.0085 49.5266L47.6937 53.6993C47.603 53.9873 47.7629 54.2944 48.051 54.3852L56.3965 57.0149C56.6846 57.1056 56.9916 56.9457 57.0824 56.6577L58.3972 52.485C58.488 52.1968 58.328 51.8898 58.04 51.799L49.6945 49.1694ZM49.8874 50.3769L57.1897 52.6778L56.2036 55.8074L48.9013 53.5064L49.8874 50.3769ZM22.9574 43.038C22.6684 42.9469 22.3625 43.1063 22.2714 43.3952C22.1804 43.6842 22.3397 43.9901 22.6287 44.0812L29.931 46.3821C30.22 46.4732 30.5259 46.3139 30.6169 46.0249C30.708 45.7359 30.5487 45.43 30.2597 45.3389L22.9574 43.038ZM14.669 43.8666C14.3809 43.7758 14.0738 43.9357 13.983 44.2238L12.6682 48.3966C12.5775 48.6846 12.7374 48.9917 13.0254 49.0825L17.1982 50.3974C17.4863 50.488 17.7933 50.3281 17.8841 50.0401L19.199 45.8674C19.2897 45.5792 19.1298 45.2722 18.8417 45.1814L14.669 43.8666ZM21.9713 46.1676C21.6832 46.0768 21.3761 46.2367 21.2853 46.5248L20.6279 48.6112C20.5372 48.8992 20.6971 49.2062 20.9852 49.2971L28.2875 51.5981C28.5756 51.6887 28.8826 51.5288 28.9734 51.2408L29.6308 49.1545C29.7216 48.8663 29.5616 48.5593 29.2736 48.4685L21.9713 46.1676ZM14.8618 45.0741L17.9914 46.0603L17.0053 49.1898L13.8757 48.2037L14.8618 45.0741ZM22.1642 47.3751L28.4233 49.3473L28.0946 50.3905L21.8355 48.4183L22.1642 47.3751ZM34.3081 52.5074L38.1721 54.8023L33.9245 68.2822L31.2575 67.4418C30.4153 67.1741 29.9606 66.3046 30.2263 65.4616L33.4472 55.2396L33.591 54.7832L34.3081 52.5074ZM68.7333 63.3548L64.6508 76.3111C64.3852 77.1541 63.5142 77.6059 62.6713 77.3403L60.0042 76.4999L64.2518 63.02L68.7333 63.3548ZM39.1376 55.3775L40.1037 55.9507L36.0109 68.9396L34.9677 68.6109L39.1376 55.3775ZM63.1309 62.9378L58.961 76.1712L57.9179 75.8425L62.0107 62.8536L63.1309 62.9378ZM41.0699 56.5239L50.1351 61.9091C50.2082 61.9528 50.2906 61.9787 50.3755 61.9849L60.8911 62.7672L56.8754 75.5116L37.0548 69.2662L41.0699 56.5239ZM19.999 52.4267C19.7101 52.3356 19.4041 52.495 19.3131 52.7839C19.222 53.0729 19.3814 53.3788 19.6703 53.4699L30.1022 56.7569C30.3912 56.848 30.6971 56.6887 30.7881 56.3997C30.8792 56.1107 30.7199 55.8048 30.4309 55.7138L19.999 52.4267Z" fill="#EA5F66"/>
</g>
<defs>
<clipPath id="clip0_1_4146">
<rect width="70" height="70" fill="white" transform="translate(21.0374) rotate(17.4896)"/>
</clipPath>
</defs>
</svg>
