<svg width="70" height="70" viewBox="0 0 70 70" fill="none" xmlns="http://www.w3.org/2000/svg">
<g clip-path="url(#clip0_1_56)">
<path d="M49.0866 6.47018H64.5548C65.1213 6.47018 65.5802 6.01122 65.5802 5.44479C65.5802 4.87837 65.1213 4.4194 64.5548 4.4194H49.0866C48.5202 4.4194 48.0612 4.87837 48.0612 5.44479C48.0612 6.01122 48.5202 6.47018 49.0866 6.47018Z" fill="#A0C553"/>
<path d="M49.0866 10.8897H59.0304C59.5968 10.8897 60.0558 10.4308 60.0558 9.86436C60.0558 9.29793 59.5968 8.83897 59.0304 8.83897H49.0866C48.5202 8.83897 48.0612 9.29793 48.0612 9.86436C48.0612 10.4308 48.5202 10.8897 49.0866 10.8897V10.8897Z" fill="#A0C553"/>
<path d="M68.9742 0H44.6671C44.1007 0 43.6417 0.458965 43.6417 1.02539V14.2838C43.6417 14.8503 44.1007 15.3092 44.6671 15.3092H46.8182V18.289C46.8182 18.6766 47.0368 19.0311 47.3832 19.2052C47.5288 19.2783 47.6865 19.3144 47.8435 19.3144C48.0601 19.3144 48.2751 19.2459 48.4556 19.1119L53.5693 15.3094H68.9742C69.5406 15.3094 69.9996 14.8504 69.9996 14.284V1.02539C69.9996 0.458965 69.5405 0 68.9742 0V0ZM67.9488 13.2584H53.2299C53.0095 13.2584 52.7949 13.3295 52.618 13.4609L48.869 16.2487V14.2838C48.869 13.7174 48.4101 13.2584 47.8436 13.2584H45.6925V2.05078H67.9488V13.2584Z" fill="#A0C553"/>
<path d="M58.7545 19.6109C53.0251 19.6109 48.2862 23.9193 47.5985 29.4662L44.6801 26.5475L45.5366 24.9123C46.3095 23.4369 46.0375 21.6543 44.8599 20.4766L37.9658 13.583C36.7884 12.4053 35.006 12.1331 33.5301 12.906L31.8955 13.7622L29.4001 11.2666C28.9997 10.8661 28.3504 10.866 27.9501 11.2664C27.5495 11.6669 27.5495 12.3162 27.95 12.7165L47.6159 32.3837C47.9098 34.5388 48.8152 36.5013 50.1531 38.0898L48.7541 39.4898C48.6142 39.6292 48.3865 39.6294 48.2481 39.4908L18.9529 10.1955C18.8135 10.0559 18.8135 9.82843 18.9521 9.6898L21.6856 6.95624C21.8246 6.8172 22.0503 6.8172 22.1886 6.95542L24.5663 9.33296C24.9666 9.73327 25.6159 9.73341 26.0164 9.33283C26.4168 8.93238 26.4168 8.2831 26.0162 7.88279L23.6387 5.50538C22.7017 4.56831 21.1757 4.56818 20.2362 5.50525L17.501 8.24044C16.5648 9.17874 16.5647 10.7055 17.5018 11.6449L18.1928 12.3359L18.3135 15.6946C18.3598 16.9821 18.0614 18.2623 17.4506 19.3968L7.62918 37.6441L2.85264 42.4208C2.1741 43.0995 1.98899 44.0852 2.29209 44.9344L0.704377 46.5221C-0.233788 47.4604 -0.233788 48.9871 0.704377 49.9256L8.51703 57.7382C8.98625 58.2073 9.60244 58.4418 10.2186 58.4418C10.8348 58.4418 11.4512 58.2072 11.9202 57.7382L13.5071 56.1513C13.7648 56.2438 14.0383 56.2945 14.3202 56.2945C14.963 56.2945 15.5673 56.0442 16.0219 55.5896L16.924 54.6875L18.8363 57.3644C19.0364 57.6447 19.3516 57.794 19.6715 57.794C19.8777 57.794 20.0859 57.7319 20.2666 57.6029C20.7275 57.2738 20.8342 56.6333 20.5049 56.1725L18.3941 53.2176L20.7983 50.8134L22.0209 50.1554L29.2031 60.6022L25.9744 63.831L23.2859 60.0666C22.9567 59.6055 22.3161 59.4989 21.8556 59.828C21.3947 60.1571 21.2879 60.7976 21.617 61.2583L24.5659 65.3874C24.4457 65.6358 24.3804 65.9091 24.3804 66.1931C24.3804 66.6884 24.5733 67.1539 24.9234 67.5041L26.8764 69.4569C27.2267 69.8072 27.6923 70.0003 28.1876 70.0003C28.6828 70.0003 29.1484 69.8074 29.4987 69.4572L34.5769 64.3791C35.2997 63.6561 35.2997 62.4798 34.5769 61.7568L32.6238 59.8038C32.1352 59.3153 31.4401 59.1582 30.8174 59.3299L27.5626 54.5958L29.8892 52.2691C30.2195 51.9388 30.2848 51.4269 30.0479 51.0242L27.7293 47.0825L39.0457 40.9916C40.1801 40.3808 41.4605 40.0824 42.7479 40.1289L46.1066 40.2496L46.7988 40.9418C47.2679 41.4095 47.8838 41.6436 48.5 41.6434C49.1166 41.6434 49.7334 41.4091 50.2033 40.9406L51.6089 39.534C53.553 41.1378 56.0431 42.1024 58.7543 42.1024C59.0063 42.1024 59.2527 42.0942 59.4866 42.0781C60.0515 42.0391 60.478 41.5495 60.439 40.9844C60.3999 40.4194 59.9103 39.995 59.3454 40.0321C59.1555 40.0452 58.9622 40.0516 58.7543 40.0516C53.6845 40.0516 49.56 35.9271 49.56 30.8573C49.56 25.7868 53.6845 21.6616 58.7543 21.6616C63.8242 21.6616 67.9487 25.7868 67.9487 30.8573C67.9487 34.0894 66.2186 37.1226 63.4338 38.7729C62.9467 39.0615 62.7858 39.6905 63.0744 40.1777C63.3631 40.6651 63.9923 40.826 64.4792 40.5371C67.8842 38.5193 69.9995 34.8101 69.9995 30.8571C69.9996 24.6561 64.955 19.6109 58.7545 19.6109V19.6109ZM9.96721 56.2879L2.15455 48.4753C2.01578 48.3366 2.01578 48.1109 2.15455 47.9723L3.57779 46.549L11.8934 54.8644L10.4701 56.2879C10.3314 56.4268 10.1058 56.4268 9.96721 56.2879V56.2879ZM14.5718 54.1394C14.4811 54.2302 14.3752 54.2437 14.3202 54.2437C14.2652 54.2437 14.1594 54.2302 14.0688 54.1394L4.30418 44.3752C4.30377 44.3748 4.30336 44.3742 4.30295 44.3738C4.30281 44.3737 4.30268 44.3736 4.30254 44.3734C4.16432 44.2347 4.16446 44.0092 4.30295 43.8709L8.46071 39.713L18.7294 49.9816L14.5718 54.1394ZM32.9875 63.0678L28.1876 67.8676L26.5128 66.1926L31.3126 61.3929L32.9875 63.0678ZM27.8779 51.3803L26.3811 52.8772L23.8375 49.1775L25.9222 48.0554L27.8779 51.3803ZM42.8217 38.0794C41.1703 38.0198 39.5287 38.4026 38.0737 39.1856L20.3654 48.7171L9.72535 38.0771L19.2568 20.3689C20.04 18.9139 20.4225 17.2722 20.3632 15.6209L20.3216 14.4646L43.9782 38.1211L42.8217 38.0794ZM34.4817 14.7226C35.1582 14.3683 35.9758 14.4926 36.5157 15.033L43.4096 21.9269C43.9496 22.4668 44.0743 23.2843 43.7201 23.9608L43.1609 25.0283L33.4148 15.2815L34.4817 14.7226Z" fill="#A0C553"/>
<path d="M65.3039 30.8568C65.3039 30.4863 65.104 30.1448 64.7812 29.9631L55.9424 24.9911C55.6253 24.8126 55.2368 24.8159 54.922 24.9998C54.6076 25.1836 54.4143 25.5207 54.4143 25.8849V35.8286C54.4143 36.1928 54.6076 36.5298 54.922 36.7137C55.0819 36.8072 55.2607 36.854 55.4397 36.854C55.6129 36.854 55.7862 36.8102 55.9424 36.7223L64.7812 31.7505C65.104 31.5688 65.3039 31.2273 65.3039 30.8568V30.8568ZM56.465 34.0753V27.6382L62.1871 30.8568L56.465 34.0753Z" fill="#A0C553"/>
</g>
<defs>
<clipPath id="clip0_1_56">
<rect width="70" height="70" fill="white" transform="translate(0.000183105)"/>
</clipPath>
</defs>
</svg>
