<svg width="70" height="71" viewBox="0 0 70 71" fill="none" xmlns="http://www.w3.org/2000/svg">
<path d="M37.5364 35.8577C38.6201 35.2904 39.4823 34.3761 39.9852 33.2611C40.4881 32.146 40.6026 30.8946 40.3105 29.7067C40.0184 28.5189 39.3365 27.4633 38.3738 26.7087C37.4111 25.9541 36.2232 25.544 35 25.544C33.7768 25.544 32.5889 25.9541 31.6262 26.7087C30.6635 27.4633 29.9816 28.5189 29.6895 29.7067C29.3974 30.8946 29.5119 32.146 30.0148 33.2611C30.5177 34.3761 31.3799 35.2904 32.4636 35.8577C30.9685 36.3838 29.6733 37.3606 28.7564 38.6534C27.8395 39.9462 27.3459 41.4915 27.3438 43.0765C27.3438 43.3665 27.459 43.6447 27.6641 43.8499C27.8692 44.055 28.1474 44.1702 28.4375 44.1702H41.5625C41.8526 44.1702 42.1308 44.055 42.3359 43.8499C42.541 43.6447 42.6562 43.3665 42.6562 43.0765C42.6541 41.4915 42.1605 39.9462 41.2436 38.6534C40.3267 37.3606 39.0315 36.3838 37.5364 35.8577V35.8577ZM35 27.764C35.649 27.764 36.2834 27.9564 36.823 28.3169C37.3626 28.6775 37.7831 29.19 38.0315 29.7895C38.2798 30.3891 38.3448 31.0489 38.2182 31.6854C38.0916 32.3219 37.7791 32.9065 37.3202 33.3654C36.8613 33.8243 36.2766 34.1368 35.6401 34.2634C35.0036 34.39 34.3439 34.325 33.7443 34.0767C33.1447 33.8283 32.6323 33.4078 32.2717 32.8682C31.9112 32.3286 31.7188 31.6942 31.7188 31.0452C31.7188 30.175 32.0645 29.3404 32.6798 28.725C33.2952 28.1097 34.1298 27.764 35 27.764V27.764ZM29.6406 41.9827C29.8917 40.7465 30.5624 39.635 31.5391 38.8367C32.5158 38.0383 33.7385 37.6022 35 37.6022C36.2615 37.6022 37.4842 38.0383 38.4609 38.8367C39.4376 39.635 40.1083 40.7465 40.3594 41.9827H29.6406Z" fill="#FFCD52"/>
<path d="M57.9688 47.4514C55.4463 47.4494 53.0014 48.3235 51.0519 49.9244L45.7866 44.659C47.8675 42.2361 49.0671 39.1803 49.1904 35.9889L60.3597 35.5754C60.6712 36.5851 61.34 37.4466 62.2408 37.9988C63.1417 38.551 64.2129 38.7559 65.254 38.5752C66.295 38.3945 67.2346 37.8406 67.8967 37.0172C68.5588 36.1937 68.8981 35.1572 68.8512 34.1017C68.8042 33.0461 68.3741 32.0438 67.6415 31.2825C66.9088 30.5211 65.9238 30.0528 64.8708 29.9653C63.8179 29.8778 62.7691 30.1771 61.9208 30.8071C61.0726 31.4371 60.483 32.3546 60.2624 33.3879L49.1193 33.8003C48.8806 31.7292 48.1894 29.7359 47.0947 27.9616C45.9999 26.1873 44.5283 24.6755 42.7843 23.5333L44.8744 19.7336C46.4302 20.2766 48.1332 20.2153 49.6459 19.5618C51.1586 18.9083 52.3706 17.7104 53.0416 16.2054C53.7127 14.7004 53.7938 12.9982 53.2689 11.4362C52.744 9.87426 51.6515 8.56648 50.2078 7.77211C48.7641 6.97774 47.0746 6.75477 45.4742 7.14739C43.8739 7.54001 42.4794 8.51956 41.5673 9.89189C40.6551 11.2642 40.2919 12.9292 40.5495 14.5567C40.8071 16.1843 41.6668 17.6556 42.9582 18.6792L40.8669 22.4811C38.4076 21.3549 35.6765 20.9588 32.9986 21.34C30.3206 21.7212 27.8085 22.8636 25.7611 24.6314L20.4958 19.3661C22.2749 17.1902 23.1497 14.4137 22.9391 11.6109C22.7285 8.80813 21.4487 6.19352 19.3644 4.30789C17.2802 2.42225 14.5508 1.40986 11.7411 1.48011C8.93127 1.55036 6.25597 2.69789 4.26852 4.68533C2.28108 6.67278 1.13356 9.34807 1.0633 12.1579C0.993048 14.9677 2.00544 17.697 3.89108 19.7812C5.77672 21.8655 8.39133 23.1453 11.1941 23.3559C13.9969 23.5665 16.7734 22.6917 18.9493 20.9126L24.2146 26.1779C22.8212 27.7865 21.8112 29.6904 21.2604 31.746C20.7096 33.8016 20.6326 35.9554 21.035 38.0451L11.4286 40.6308C10.8197 39.4491 9.7982 38.5322 8.55796 38.0538C7.31771 37.5754 5.94502 37.569 4.70034 38.0357C3.45566 38.5024 2.4256 39.4097 1.8056 40.5856C1.1856 41.7614 1.0188 43.124 1.33686 44.4147C1.65491 45.7053 2.43568 46.8344 3.53103 47.5875C4.62638 48.3407 5.96009 48.6655 7.2791 48.5005C8.59811 48.3354 9.81064 47.6919 10.6866 46.6921C11.5626 45.6923 12.0411 44.4056 12.0313 43.0764C12.0313 42.967 12.005 42.8576 11.9974 42.7483L21.6104 40.1604C22.717 43.2676 24.8655 45.8956 27.6905 47.5979L25.375 52.2201C23.5355 51.6041 21.531 51.7077 19.7648 52.5101C17.9986 53.3125 16.6019 54.7542 15.8559 56.5449C15.1098 58.3356 15.0698 60.3425 15.7438 62.1616C16.4179 63.9806 17.756 65.4768 19.4887 66.349C21.2215 67.2212 23.2204 67.4047 25.083 66.8625C26.9456 66.3203 28.5337 65.0926 29.5276 63.4266C30.5215 61.7607 30.8474 59.7801 30.4398 57.8834C30.0322 55.9868 28.9213 54.315 27.3307 53.2045L29.6407 48.5823C32.0562 49.5726 34.6987 49.8747 37.2754 49.4552C39.8521 49.0357 42.2623 47.911 44.239 46.2056L49.5043 51.4709C47.9348 53.3938 47.0664 55.7935 47.0419 58.2755C47.0174 60.7575 47.8383 63.1739 49.3695 65.1274C50.9007 67.0809 53.0511 68.4552 55.467 69.0242C57.883 69.5933 60.4207 69.3233 62.6628 68.2586C64.905 67.1939 66.718 65.3979 67.8039 63.1659C68.8897 60.9339 69.1837 58.3989 68.6375 55.9776C68.0912 53.5564 66.7373 51.3931 64.7984 49.8435C62.8594 48.294 60.4509 47.4503 57.9688 47.4514V47.4514ZM64.5313 32.1389C64.964 32.1389 65.3869 32.2672 65.7466 32.5075C66.1063 32.7479 66.3867 33.0895 66.5523 33.4893C66.7179 33.889 66.7612 34.3288 66.6768 34.7531C66.5924 35.1775 66.384 35.5673 66.0781 35.8732C65.7722 36.1791 65.3824 36.3874 64.9581 36.4718C64.5337 36.5563 64.0939 36.5129 63.6942 36.3474C63.2945 36.1818 62.9528 35.9014 62.7125 35.5417C62.4721 35.182 62.3438 34.759 62.3438 34.3264C62.3438 33.7462 62.5743 33.1898 62.9845 32.7796C63.3947 32.3693 63.9511 32.1389 64.5313 32.1389ZM47.0313 9.17013C47.8966 9.17013 48.7425 9.42672 49.4619 9.90745C50.1814 10.3882 50.7421 11.0715 51.0733 11.8709C51.4044 12.6703 51.491 13.55 51.3222 14.3987C51.1534 15.2473 50.7367 16.0269 50.1249 16.6387C49.513 17.2506 48.7335 17.6673 47.8848 17.8361C47.0362 18.0049 46.1565 17.9182 45.3571 17.5871C44.5576 17.256 43.8744 16.6952 43.3936 15.9758C42.9129 15.2563 42.6563 14.4104 42.6563 13.5451C42.6563 12.3848 43.1172 11.272 43.9377 10.4515C44.7582 9.63107 45.871 9.17013 47.0313 9.17013V9.17013ZM6.56254 46.3576C5.91357 46.3576 5.27918 46.1652 4.73958 45.8046C4.19998 45.4441 3.77941 44.9316 3.53106 44.3321C3.28271 43.7325 3.21773 43.0727 3.34434 42.4362C3.47095 41.7997 3.78346 41.2151 4.24235 40.7562C4.70124 40.2973 5.2859 39.9848 5.9224 39.8582C6.5589 39.7316 7.21865 39.7966 7.81822 40.0449C8.41779 40.2933 8.93025 40.7138 9.2908 41.2534C9.65135 41.793 9.84379 42.4274 9.84379 43.0764C9.84379 43.9466 9.49809 44.7812 8.88274 45.3966C8.26738 46.0119 7.43278 46.3576 6.56254 46.3576ZM28.4375 59.4826C28.4375 60.5642 28.1168 61.6216 27.5159 62.5209C26.915 63.4202 26.0609 64.1212 25.0616 64.5351C24.0623 64.949 22.9627 65.0573 21.9019 64.8463C20.8411 64.6353 19.8666 64.1144 19.1018 63.3496C18.337 62.5848 17.8161 61.6104 17.6051 60.5495C17.3941 59.4887 17.5024 58.3891 17.9163 57.3898C18.3302 56.3905 19.0312 55.5364 19.9305 54.9355C20.8299 54.3346 21.8872 54.0139 22.9688 54.0139C24.4187 54.0156 25.8087 54.5923 26.8339 55.6176C27.8591 56.6428 28.4358 58.0328 28.4375 59.4826V59.4826ZM3.28129 12.4514C3.27789 11.0297 3.62097 9.62856 4.28084 8.36927C4.9407 7.10997 5.89748 6.03043 7.06839 5.22406C8.23929 4.41769 9.58904 3.90878 11.0009 3.74135C12.4127 3.57393 13.844 3.75305 15.171 4.2632C16.4981 4.77335 17.6808 5.59917 18.6169 6.66921C19.553 7.73924 20.2142 9.02126 20.5435 10.4043C20.8727 11.7874 20.8599 13.2298 20.5063 14.6069C20.1527 15.9839 19.4688 17.254 18.514 18.3073C18.5644 18.1843 18.5915 18.053 18.5938 17.9201C18.5966 17.058 18.4282 16.2039 18.0985 15.4073C17.7689 14.6107 17.2844 13.8874 16.6732 13.2793C16.2373 12.8435 15.7425 12.4709 15.2032 12.1725C15.7943 11.5527 16.1905 10.773 16.3427 9.93018C16.4949 9.08733 16.3963 8.21834 16.0592 7.43098C15.7221 6.64362 15.1613 5.97252 14.4464 5.5009C13.7314 5.02928 12.8938 4.77788 12.0373 4.77788C11.1808 4.77788 10.3432 5.02928 9.62823 5.5009C8.91329 5.97252 8.3525 6.64362 8.01541 7.43098C7.67831 8.21834 7.57974 9.08733 7.73191 9.93018C7.88409 10.773 8.28031 11.5527 8.87145 12.1725C7.8417 12.7382 6.98271 13.57 6.38418 14.581C5.78564 15.592 5.46951 16.7452 5.46879 17.9201C5.47102 18.0517 5.49695 18.1817 5.54535 18.304C4.08947 16.7024 3.28232 14.6159 3.28129 12.4514V12.4514ZM12.0313 11.3576C11.5986 11.3576 11.1757 11.2293 10.816 10.989C10.4563 10.7486 10.1759 10.407 10.0103 10.0073C9.84474 9.60754 9.80142 9.1677 9.88583 8.74337C9.97023 8.31904 10.1786 7.92926 10.4845 7.62333C10.7904 7.31741 11.1802 7.10907 11.6045 7.02466C12.0289 6.94026 12.4687 6.98358 12.8684 7.14914C13.2681 7.31471 13.6098 7.59509 13.8501 7.95482C14.0905 8.31455 14.2188 8.73748 14.2188 9.17013C14.2188 9.75029 13.9883 10.3067 13.5781 10.7169C13.1679 11.1272 12.6115 11.3576 12.0313 11.3576ZM12.0313 13.5451C13.0012 13.5451 13.9436 13.8674 14.7104 14.4614C15.4772 15.0553 16.0249 15.8873 16.2674 16.8264H7.7941C8.03782 15.8877 8.58598 15.0564 9.35273 14.4626C10.1195 13.8689 11.0615 13.5462 12.0313 13.5451ZM6.17973 18.9373C6.30163 18.9859 6.43135 19.0118 6.56254 19.0139H17.5C17.6332 19.012 17.7649 18.9853 17.8883 18.9351C16.2875 20.3916 14.201 21.1987 12.0368 21.1987C9.87252 21.1987 7.78605 20.3916 6.1852 18.9351L6.17973 18.9373ZM22.9688 35.4201C22.9688 33.0406 23.6744 30.7145 24.9964 28.7359C26.3184 26.7574 28.1975 25.2153 30.3959 24.3047C32.5943 23.3941 35.0134 23.1558 37.3472 23.6201C39.6811 24.0843 41.8248 25.2302 43.5074 26.9128C45.19 28.5954 46.3359 30.7391 46.8001 33.0729C47.2644 35.4068 47.0261 37.8259 46.1155 40.0243C45.2049 42.2227 43.6628 44.1017 41.6843 45.4237C39.7057 46.7458 37.3796 47.4514 35 47.4514C31.8103 47.4476 28.7523 46.1788 26.4968 43.9234C24.2413 41.6679 22.9726 38.6099 22.9688 35.4201ZM52.1172 64.8748C52.2391 64.9234 52.3689 64.9493 52.5001 64.9514H63.4376C63.5708 64.9495 63.7024 64.9228 63.8258 64.8726C62.225 66.3291 60.1385 67.1362 57.9743 67.1362C55.81 67.1362 53.7236 66.3291 52.1227 64.8726L52.1172 64.8748ZM57.9688 57.2951C57.5362 57.2951 57.1132 57.1668 56.7535 56.9265C56.3938 56.6861 56.1134 56.3445 55.9478 55.9447C55.7823 55.545 55.7389 55.1052 55.8233 54.6809C55.9077 54.2565 56.1161 53.8668 56.422 53.5608C56.7279 53.2549 57.1177 53.0466 57.542 52.9622C57.9664 52.8778 58.4062 52.9211 58.8059 53.0866C59.2056 53.2522 59.5473 53.5326 59.7876 53.8923C60.028 54.2521 60.1563 54.675 60.1563 55.1076C60.1563 55.6878 59.9258 56.2442 59.5156 56.6544C59.1054 57.0647 58.549 57.2951 57.9688 57.2951ZM57.9688 59.4826C58.9387 59.4826 59.8812 59.8049 60.6479 60.3989C61.4147 60.9928 61.9624 61.8248 62.2049 62.7639H53.7316C53.9753 61.8252 54.5235 60.9939 55.2902 60.4002C56.057 59.8064 56.999 59.4837 57.9688 59.4826V59.4826ZM64.4504 64.2448C64.5012 64.1219 64.5287 63.9906 64.5313 63.8576C64.5341 62.9955 64.3657 62.1414 64.0361 61.3448C63.7064 60.5482 63.2219 59.8249 62.6107 59.2168C62.1748 58.781 61.68 58.4084 61.1407 58.11C61.7318 57.4902 62.128 56.7105 62.2802 55.8677C62.4324 55.0248 62.3338 54.1558 61.9967 53.3685C61.6596 52.5811 61.0988 51.91 60.3839 51.4384C59.669 50.9668 58.8313 50.7154 57.9748 50.7154C57.1183 50.7154 56.2807 50.9668 55.5657 51.4384C54.8508 51.91 54.29 52.5811 53.9529 53.3685C53.6158 54.1558 53.5173 55.0248 53.6694 55.8677C53.8216 56.7105 54.2178 57.4902 54.809 58.11C53.7792 58.6757 52.9202 59.5075 52.3217 60.5185C51.7232 61.5295 51.407 62.6827 51.4063 63.8576C51.4085 63.9892 51.4345 64.1192 51.4829 64.2415C50.3455 62.9863 49.597 61.4278 49.3281 59.7554C49.0592 58.083 49.2816 56.3685 49.9681 54.8199C50.6547 53.2714 51.776 51.9555 53.1959 51.0318C54.6158 50.1081 56.2733 49.6165 57.9672 49.6165C59.6611 49.6165 61.3185 50.1081 62.7385 51.0318C64.1584 51.9555 65.2796 53.2714 65.9662 54.8199C66.6528 56.3685 66.8751 58.083 66.6062 59.7554C66.3373 61.4278 65.5888 62.9863 64.4515 64.2415L64.4504 64.2448Z" fill="#FFCD52"/>
</svg>
