<svg width="78" height="78" viewBox="0 0 78 78" fill="none" xmlns="http://www.w3.org/2000/svg">
<g clip-path="url(#clip0_1_82)">
<path d="M41.9526 57.3258C41.6121 57.1181 41.2505 56.9375 40.8778 56.7884L37.3186 55.3648L38.2268 53.0943C40.8239 52.5461 43.1104 50.7544 44.1679 48.1104L45.8015 44.0263C46.3642 42.6195 46.5278 41.09 46.2743 39.6037L44.5399 39.8994C44.7388 41.0661 44.6103 42.2675 44.1681 43.373L43.8256 44.2294L43.7696 43.747C43.5993 42.2782 42.6408 41.0246 41.268 40.4755L36.2854 38.4826C34.9126 37.9335 33.354 38.1803 32.2178 39.1265L31.845 39.4373L32.1875 38.5809C33.5088 35.2776 37.2706 33.6654 40.5739 34.9866C42.1673 35.624 43.4197 36.8427 44.1001 38.418L45.7153 37.7201C44.8494 35.7151 43.2556 34.1641 41.2274 33.3528C37.0234 31.6713 32.2352 33.7235 30.5537 37.9274L28.9202 42.0115C27.8626 44.6555 28.283 47.5304 29.7858 49.7181L28.8776 51.9885L25.3185 50.5649C21.6509 49.098 17.4738 50.8882 16.0067 54.5562L13.4007 61.0714L15.0345 61.7249L17.6405 55.2097C18.7472 52.4428 21.8981 51.092 24.665 52.1987L28.287 53.6475C27.8355 55.7698 28.9625 57.9787 31.0443 58.8114C33.1261 59.6441 35.4656 58.8217 36.6022 56.9734L40.2243 58.4222C40.5065 58.5351 40.7798 58.6715 41.0369 58.8286L41.9526 57.3258ZM35.3191 55.6255C34.7486 57.0519 33.1242 57.7481 31.6978 57.1776C30.2714 56.6071 29.5752 54.9826 30.1457 53.5563L31.0891 51.1978C31.7801 51.8134 32.5871 52.3215 33.4949 52.6847C34.4028 53.0478 35.3376 53.2363 36.2625 53.2671L35.3191 55.6255ZM34.1482 51.0513C30.9112 49.7565 29.3 46.1179 30.48 42.8646L33.3443 40.4788C33.9832 39.9465 34.8601 39.8076 35.6319 40.1164L40.6145 42.1093C41.3868 42.4182 41.9261 43.1235 42.0216 43.9496L42.4506 47.6522C41.0609 50.8221 37.3848 52.3459 34.1482 51.0513Z" fill="#FFCD52" fill-opacity="0.5"/>
<path d="M43.4974 58.5964L42.2002 59.7849C43.5956 61.3079 44.0013 63.5305 43.2347 65.447L40.6287 71.9622L42.2625 72.6157L44.8685 66.1004C45.8846 63.5601 45.3464 60.6149 43.4974 58.5964V58.5964Z" fill="#FFCD52" fill-opacity="0.5"/>
<path d="M37.2961 66.081L38.9299 66.7345L37.3616 70.6554L35.7278 70.0019L37.2961 66.081Z" fill="#FFCD52" fill-opacity="0.5"/>
<path d="M19.8699 59.1108L21.5037 59.7643L19.9354 63.6852L18.3016 63.0317L19.8699 59.1108Z" fill="#FFCD52" fill-opacity="0.5"/>
<path d="M33.6759 13.4902L33.3176 8.90817L29.8983 11.9792L25.4297 10.9038L27.2941 15.1051L24.8905 19.0226L29.4619 18.5477L32.4449 22.0443L33.406 17.5497L37.6534 15.7931L33.6759 13.4902ZM31.4696 18.1902L30.2003 16.7019L28.2547 16.9043L29.2776 15.2368L28.4841 13.4488L30.386 13.9067L31.8411 12.5995L31.9934 14.5497L33.6864 15.5296L31.8788 16.2772L31.4696 18.1902Z" fill="#FFCD52" fill-opacity="0.5"/>
<path d="M49.4682 19.8068L49.1101 15.2244L45.691 18.296L41.222 17.2204L43.0864 21.4217L40.6828 25.3393L45.2542 24.8644L48.2376 28.3611L49.1984 23.866L53.4458 22.1097L49.4682 19.8068ZM47.2623 24.507L45.9926 23.0185L44.047 23.2209L45.0699 21.5535L44.2765 19.7654L46.1783 20.2234L47.6334 18.9162L47.7857 20.8664L49.4788 21.8463L47.6711 22.5939L47.2623 24.507Z" fill="#FFCD52" fill-opacity="0.5"/>
<path d="M63.8133 21.1055L60.3938 24.1769L55.9253 23.1015L57.7898 27.3024L55.386 31.2204L59.9575 30.7455L62.9408 34.2422L63.9017 29.7471L68.149 27.9908L64.1714 25.6879L63.8133 21.1055ZM61.9651 30.3879L60.6958 28.8996L58.7498 29.1019L59.7731 27.4346L58.9797 25.6465L60.8815 26.1045L62.3367 24.7973L62.489 26.7474L64.182 27.7273L62.3743 28.475L61.9651 30.3879Z" fill="#FFCD52" fill-opacity="0.5"/>
<path d="M74.9464 21.0671L64.9154 17.0548L64.2619 18.6886L74.2929 22.7009C75.0435 23.0011 75.41 23.8562 75.1098 24.6068L69.4466 38.7652C69.1462 39.5162 68.2912 39.8827 67.5406 39.5825L30.4559 24.7491L28.146 30.524L22.2741 21.4766L17.8764 19.7175C17.1258 19.4173 16.7593 18.5623 17.0597 17.8112L19.9056 10.6963L18.2718 10.0428L15.4259 17.1577C14.7653 18.8094 15.5714 20.6903 17.2231 21.3509L21.1027 22.9027L28.5185 34.3307L31.4363 27.036L66.8872 41.2158C68.5389 41.8765 70.4198 41.0704 71.0804 39.4187L76.7436 25.2603C77.4042 23.6086 76.5981 21.7277 74.9464 21.0671V21.0671Z" fill="#FFCD52" fill-opacity="0.5"/>
<path d="M22.7229 3.6528C23.0231 2.9022 23.8782 2.53574 24.6288 2.83596L62.6286 18.0353L63.2821 16.4015L25.2823 1.20217C23.6306 0.541532 21.7497 1.34765 21.0891 2.9993L18.9253 8.40902L20.5591 9.06252L22.7229 3.6528Z" fill="#FFCD52" fill-opacity="0.5"/>
<path d="M19.2739 55.863L20.9077 56.5165C21.2938 55.5512 22.3929 55.0798 23.3582 55.4659L24.0115 53.8325C22.1456 53.0862 20.0202 53.9971 19.2739 55.863Z" fill="#FFCD52" fill-opacity="0.5"/>
<path d="M71.6247 28.2662L73.2582 24.1822L69.1742 22.5486L68.5209 24.182L70.9711 25.162L69.9909 27.6127L71.6247 28.2662Z" fill="#FFCD52" fill-opacity="0.5"/>
<path d="M20.4796 13.9994L18.8458 18.0839L22.9299 19.7174L23.5834 18.0836L21.1327 17.1034L22.1129 14.6527L20.4796 13.9994Z" fill="#FFCD52" fill-opacity="0.5"/>
<path d="M25.2068 61.5616L26.8402 62.2149L26.1869 63.8482L24.5535 63.1949L25.2068 61.5616Z" fill="#FFCD52" fill-opacity="0.5"/>
<path d="M28.4739 62.8684L30.1077 63.5218L29.4544 65.1552L27.8206 64.5017L28.4739 62.8684Z" fill="#FFCD52" fill-opacity="0.5"/>
<path d="M31.7416 64.1754L33.375 64.8287L32.7216 66.4621L31.0883 65.8088L31.7416 64.1754Z" fill="#FFCD52" fill-opacity="0.5"/>
</g>
<defs>
<clipPath id="clip0_1_82">
<rect width="60" height="60" fill="white" transform="translate(22.2871 0.00415039) rotate(21.8007)"/>
</clipPath>
</defs>
</svg>
