<svg width="72" height="72" viewBox="0 0 72 72" fill="none" xmlns="http://www.w3.org/2000/svg">
<g clip-path="url(#clip0_1_69)">
<path d="M44.687 59.4129C44.8193 59.2163 44.9113 58.9953 44.9577 58.7629C45.004 58.5304 45.0038 58.2911 44.9571 58.0587L44.1375 53.9275L42.5642 54.2395L43.3839 58.3708C43.3942 58.4229 43.3835 58.4771 43.3539 58.5212C43.3243 58.5654 43.2784 58.5961 43.2263 58.6064L37.3272 59.777C37.3014 59.7821 37.2748 59.7821 37.249 59.777C37.2232 59.7718 37.1986 59.7616 37.1767 59.747C37.1548 59.7323 37.1361 59.7135 37.1214 59.6916C37.1068 59.6697 37.0967 59.6452 37.0915 59.6193L36.2719 55.488C36.2359 55.3065 36.1383 55.1431 35.9956 55.0254C35.8529 54.9077 35.6739 54.8429 35.489 54.8421C34.6638 54.8383 33.8398 54.7816 33.022 54.6721L32.8088 56.2616C33.4745 56.351 34.1499 56.4082 34.8244 56.4326L35.5186 59.9316C35.6122 60.4006 35.8881 60.8134 36.2857 61.0794C36.6833 61.3453 37.1702 61.4427 37.6395 61.3502L43.5385 60.1797C43.7711 60.1342 43.9924 60.043 44.1895 59.9113C44.3867 59.7797 44.5558 59.6103 44.687 59.4129Z" fill="#EA5F66" fill-opacity="0.35"/>
<path d="M45.201 22.752L44.2416 24.0371C46.1019 25.4295 47.5989 27.2501 48.6055 29.3444C49.6121 31.4388 50.0987 33.745 50.0239 36.0675L51.6269 36.1182C51.7098 33.5377 51.1689 30.9753 50.0502 28.6484C48.9316 26.3216 47.2681 24.2989 45.201 22.752V22.752Z" fill="#EA5F66" fill-opacity="0.35"/>
<path d="M31.9439 19.9785L32.3086 21.5402C35.9441 20.6814 39.7713 21.2738 42.977 23.1916L43.7984 21.8143C40.2364 19.683 35.9837 19.0244 31.9439 19.9785V19.9785Z" fill="#EA5F66" fill-opacity="0.35"/>
<path d="M9.84005 37.6396L11.0106 43.5388C11.1043 44.0078 11.3801 44.4206 11.7777 44.6866C12.1753 44.9525 12.6621 45.0499 13.1315 44.9574L16.6301 44.2632C17.552 46.2911 18.7963 48.1562 20.3146 49.7862L18.3325 52.7495C18.0671 53.1474 17.9702 53.6344 18.0633 54.1036C18.1564 54.5728 18.4318 54.9859 18.8291 55.2523L23.8281 58.596C24.226 58.8615 24.7129 58.9583 25.1821 58.8652C25.6513 58.7721 26.0645 58.4967 26.3309 58.0994L28.3131 55.136C29.1949 55.4652 30.0981 55.734 31.0164 55.9407L31.3681 54.3761C30.3234 54.1409 29.3002 53.8185 28.3094 53.4123C28.1382 53.3421 27.948 53.3332 27.7711 53.3872C27.5941 53.4412 27.4412 53.5547 27.3384 53.7085L24.9978 57.2078C24.9682 57.252 24.9223 57.2826 24.8702 57.2929C24.818 57.3033 24.7639 57.2925 24.7197 57.2629L19.7208 53.9192C19.6766 53.8897 19.6459 53.8438 19.6356 53.7916C19.6252 53.7395 19.636 53.6853 19.6656 53.6411L22.0062 50.1419C22.109 49.9881 22.1555 49.8035 22.1379 49.6194C22.1202 49.4353 22.0394 49.2629 21.9091 49.1315C20.174 47.3833 18.7943 45.3152 17.8464 43.0417C17.775 42.8711 17.6468 42.7304 17.4836 42.6434C17.3203 42.5565 17.132 42.5287 16.9505 42.5647L12.8193 43.3845C12.7935 43.3896 12.7669 43.3896 12.7411 43.3845C12.7152 43.3793 12.6907 43.3691 12.6688 43.3545C12.6469 43.3398 12.6281 43.321 12.6135 43.2991C12.5989 43.2772 12.5887 43.2527 12.5836 43.2268L11.4132 37.3275C11.4081 37.3017 11.4081 37.2751 11.4132 37.2493C11.4184 37.2235 11.4286 37.1989 11.4432 37.177C11.4578 37.1551 11.4766 37.1363 11.4985 37.1217C11.5205 37.1071 11.545 37.0969 11.5709 37.0918L15.7022 36.2722C15.8837 36.2362 16.0471 36.1386 16.1648 35.9959C16.2825 35.8532 16.3472 35.6742 16.3481 35.4892C16.3543 34.1028 16.5106 32.7211 16.8142 31.3683L15.2496 31.0166C14.9686 32.2681 14.8039 33.5428 14.7577 34.8246L11.2587 35.5188C10.7896 35.6124 10.3768 35.8883 10.1109 36.2859C9.84496 36.6835 9.74756 37.1703 9.84005 37.6396V37.6396Z" fill="#EA5F66" fill-opacity="0.35"/>
<path d="M26.6042 18.5755C27.1057 18.3112 27.6256 18.0661 28.1493 17.847C28.32 17.7756 28.4607 17.6474 28.5476 17.4841C28.6346 17.3209 28.6624 17.1326 28.6264 16.9511L27.8067 12.8197C27.7964 12.7676 27.8072 12.7135 27.8367 12.6693C27.8663 12.6252 27.9121 12.5945 27.9642 12.5842L33.8634 11.4137C33.8892 11.4085 33.9158 11.4085 33.9416 11.4137C33.9674 11.4188 33.992 11.429 34.0139 11.4437C34.0358 11.4583 34.0546 11.4771 34.0692 11.499C34.0838 11.5209 34.094 11.5455 34.0991 11.5713L34.9187 15.7027C34.9547 15.8841 35.0523 16.0475 35.195 16.1652C35.3377 16.283 35.5167 16.3477 35.7016 16.3485C38.1648 16.3567 40.603 16.8423 42.8812 17.7785C43.0524 17.8487 43.2426 17.8576 43.4196 17.8036C43.5965 17.7496 43.7494 17.6361 43.8522 17.4823L46.1928 13.983C46.2224 13.9388 46.2683 13.9082 46.3204 13.8978C46.3726 13.8875 46.4267 13.8983 46.4709 13.9278L51.4699 17.2715C51.5141 17.3011 51.5447 17.347 51.555 17.3992C51.5654 17.4513 51.5546 17.5054 51.525 17.5496L49.1844 21.0489C49.0816 21.2027 49.0351 21.3872 49.0528 21.5714C49.0705 21.7555 49.1513 21.9279 49.2815 22.0593C51.0166 23.8075 52.3963 25.8756 53.3442 28.1491C53.4156 28.3197 53.5438 28.4604 53.7071 28.5474C53.8703 28.6343 54.0586 28.6621 54.2401 28.6261L58.3713 27.8063C58.3972 27.8012 58.4237 27.8012 58.4496 27.8063C58.4754 27.8115 58.5 27.8217 58.5218 27.8363C58.5437 27.8509 58.5625 27.8698 58.5771 27.8917C58.5918 27.9136 58.6019 27.9381 58.607 27.964L59.7774 33.8631C59.7877 33.9152 59.7769 33.9693 59.7474 34.0135C59.7178 34.0577 59.672 34.0883 59.6199 34.0987L55.4885 34.9184C55.3071 34.9544 55.1437 35.052 55.026 35.1947C54.9083 35.3374 54.8435 35.5164 54.8427 35.7014C54.8373 36.8618 54.7271 38.0194 54.5131 39.16L56.0892 39.456C56.2807 38.436 56.3956 37.4032 56.4331 36.366L59.9319 35.6718C60.1643 35.6256 60.3854 35.5342 60.5824 35.4027C60.7795 35.2711 60.9487 35.1021 61.0805 34.9051C61.2122 34.7082 61.3039 34.4872 61.3502 34.2548C61.3965 34.0225 61.3966 33.7833 61.3505 33.5509L60.1801 27.652C60.0864 27.1829 59.8105 26.7702 59.4129 26.5042C59.0153 26.2383 58.5285 26.1409 58.0592 26.2334L54.5605 26.9276C53.6386 24.8997 52.3943 23.0346 50.876 21.4046L52.8581 18.4413C53.1236 18.0434 53.2204 17.5564 53.1273 17.0872C53.0342 16.618 52.7588 16.2049 52.3615 15.9385L47.3626 12.5948C46.9647 12.3293 46.4777 12.2325 46.0085 12.3256C45.5393 12.4187 45.1262 12.6941 44.8598 13.0914L42.8777 16.0547C40.7915 15.2736 38.5926 14.8357 36.3663 14.7579L35.6721 11.2591C35.5784 10.7901 35.3026 10.3773 34.905 10.1114C34.5074 9.84542 34.0205 9.74802 33.5512 9.84051L27.6521 11.011C27.183 11.1047 26.7703 11.3806 26.5043 11.7781C26.2384 12.1757 26.141 12.6625 26.2335 13.1318L26.9278 16.6308C26.5652 16.7962 26.2066 16.9722 25.8564 17.1569L26.6042 18.5755Z" fill="#EA5F66" fill-opacity="0.35"/>
<path d="M20.0356 30.0114L12.0373 24.6615L11.1456 25.9946L19.144 31.3445L20.0356 30.0114Z" fill="#EA5F66" fill-opacity="0.35"/>
<path d="M28.0431 22.7846L35.2891 24.9918C35.3325 25.005 35.377 25.0146 35.422 25.0204C35.7338 25.0605 36.0177 25.2204 36.2135 25.4664L37.5359 27.7353L38.9215 26.9276L37.5739 24.6153C37.5591 24.5898 37.5428 24.5651 37.5251 24.5413C37.0838 23.9485 36.4273 23.5526 35.6969 23.4391L28.624 21.2851L25.39 19.1219L24.4984 20.455L27.831 22.6841C27.8964 22.7279 27.9679 22.7617 28.0431 22.7846V22.7846Z" fill="#EA5F66" fill-opacity="0.35"/>
<path d="M24.0569 18.2302L18.7247 14.6636L17.833 15.9967L23.1653 19.5633L24.0569 18.2302Z" fill="#EA5F66" fill-opacity="0.35"/>
<path d="M32.6985 46.1784L32.3518 45.4742C32.0433 44.8468 31.5108 44.3577 30.8595 44.1034C30.9944 43.745 31.0543 43.3627 31.0355 42.9802C31.0167 42.5978 30.9196 42.2232 30.7503 41.8797L30.4034 41.1756C30.0917 40.5419 29.5518 40.0495 28.8921 39.7974C29.012 39.4483 29.0616 39.0789 29.0381 38.7105C29.0146 38.3421 28.9184 37.9821 28.7552 37.651L28.4083 36.9469C28.0966 36.3131 27.5567 35.8208 26.897 35.5687C27.0168 35.2195 27.0664 34.8502 27.0429 34.4818C27.0194 34.1134 26.9233 33.7533 26.76 33.4223L26.4131 32.7182C26.0835 32.0511 25.5028 31.5419 24.7983 31.3024C24.0938 31.0629 23.3231 31.1125 22.6551 31.4405L19.756 32.8685C19.4254 33.0313 19.1301 33.2577 18.8869 33.5347C18.6438 33.8117 18.4576 34.1339 18.3389 34.4828C18.2203 34.8318 18.1715 35.2007 18.1955 35.5685C18.2194 35.9363 18.3155 36.2957 18.4784 36.6264L18.8253 37.3305C19.0416 37.7714 19.3707 38.1473 19.779 38.4202C19.9531 38.5366 20.1397 38.6333 20.3352 38.7084L20.334 38.7116C20.2145 39.0604 20.1653 39.4294 20.1892 39.7973C20.2132 40.1652 20.3098 40.5247 20.4736 40.855L20.8205 41.5591C21.0368 42 21.3659 42.3759 21.7742 42.6488C21.9483 42.7652 22.1349 42.8619 22.3304 42.937L22.3293 42.9402C22.2097 43.289 22.1605 43.658 22.1844 44.0259C22.2084 44.3938 22.305 44.7533 22.4688 45.0836L22.8157 45.7878C23.0321 46.2287 23.3611 46.6046 23.7694 46.8774C23.9383 46.9903 24.1188 47.0846 24.3079 47.1587C24.173 47.5171 24.1131 47.8994 24.1319 48.2819C24.1507 48.6644 24.2477 49.0389 24.4171 49.3824L24.764 50.0865C25.0932 50.7539 25.6738 51.2634 26.3784 51.503C27.0829 51.7426 27.8537 51.6928 28.5216 51.3645L29.5904 50.838C30.1414 51.3318 30.8641 51.5898 31.6033 51.5566L39.3281 51.427L39.3012 49.8234L31.5627 49.9533C31.5527 49.9534 31.5428 49.9538 31.5329 49.9544C31.4842 49.957 31.4354 49.9566 31.3868 49.9531L31.4206 49.9365C32.0878 49.607 32.5971 49.0263 32.8367 48.3217C33.0762 47.6172 33.0266 46.8464 32.6985 46.1784V46.1784ZM21.751 37.0971C21.6352 37.1539 21.5234 37.2187 21.4165 37.2908C21.1798 37.3051 20.9441 37.2492 20.739 37.1302C20.5339 37.0111 20.3685 36.8342 20.2635 36.6216V36.6216L19.9167 35.9175C19.7758 35.6313 19.7543 35.3009 19.857 34.9989C19.9597 34.6969 20.1782 34.448 20.4643 34.3071L23.3633 32.879C23.6496 32.7382 23.98 32.7169 24.282 32.8196C24.5839 32.9223 24.8328 33.1406 24.9738 33.4267L25.3208 34.1308C25.4289 34.3511 25.4672 34.5992 25.4305 34.8419C25.3938 35.0846 25.2839 35.3103 25.1155 35.4888C24.9553 35.5349 24.7995 35.5951 24.6499 35.6688L21.751 37.0971ZM23.7462 41.3258C23.6304 41.3827 23.5186 41.4474 23.4116 41.5195C23.1749 41.5338 22.9393 41.4779 22.7342 41.3589C22.5291 41.2399 22.3637 41.063 22.2587 40.8503V40.8503L21.9118 40.1462C21.8035 39.9259 21.7651 39.6778 21.8017 39.435C21.8383 39.1922 21.9482 38.9665 22.1166 38.7879C22.2771 38.7417 22.4332 38.6814 22.5831 38.6076L25.4822 37.1796C25.5976 37.1227 25.7091 37.058 25.8157 36.9859C26.0795 36.9702 26.3412 37.0412 26.5608 37.1881C26.7357 37.3051 26.8767 37.4662 26.9694 37.6551L27.3164 38.3592C27.4245 38.5795 27.4628 38.8276 27.4261 39.0703C27.3894 39.313 27.2795 39.5387 27.1111 39.7172C26.9509 39.7633 26.7951 39.8236 26.6455 39.8972L23.7462 41.3258ZM25.6946 45.6244C25.621 45.6607 25.5498 45.6997 25.4807 45.7415C25.2329 45.7718 24.9817 45.7243 24.7619 45.6057C24.5422 45.4871 24.3647 45.3031 24.2541 45.0792V45.0792L23.9072 44.3751C23.7989 44.1548 23.7605 43.9066 23.7971 43.6639C23.8337 43.4211 23.9436 43.1953 24.112 43.0167C24.2725 42.9706 24.4286 42.9103 24.5785 42.8365L27.4776 41.4085C27.593 41.3516 27.7045 41.2869 27.8111 41.2148C28.0749 41.1991 28.3366 41.2701 28.5562 41.417C28.7312 41.534 28.8721 41.6951 28.9648 41.884L29.3118 42.5881C29.4287 42.8264 29.4637 43.0967 29.4113 43.357C29.3588 43.6173 29.2219 43.8529 29.0218 44.0274C28.8749 44.072 28.7318 44.1285 28.5941 44.1963L25.6946 45.6244ZM30.7121 48.4974L27.8129 49.9257C27.5266 50.0663 27.1963 50.0876 26.8944 49.9849C26.5924 49.8823 26.3436 49.664 26.2023 49.3781L25.8554 48.674C25.7385 48.4357 25.7035 48.1654 25.7559 47.9051C25.8083 47.6449 25.9453 47.4092 26.1454 47.2347C26.2923 47.1901 26.4354 47.1336 26.5732 47.0658L29.4723 45.6378C29.5459 45.6016 29.6171 45.5626 29.6859 45.5209C29.9338 45.4905 30.185 45.5379 30.4048 45.6565C30.6245 45.7751 30.802 45.9591 30.9127 46.183L31.2595 46.8873C31.4 47.1735 31.4213 47.5037 31.3187 47.8055C31.216 48.1074 30.9979 48.3562 30.7121 48.4974V48.4974Z" fill="#EA5F66" fill-opacity="0.35"/>
<path d="M52.9116 55.8606L53.8032 54.5276L53.1367 54.0817C53.0787 54.0429 53.0159 54.0119 52.9498 53.9894L44.1266 50.9777C43.45 50.7475 42.8699 50.2977 42.4784 49.6998C42.087 49.1019 41.9067 48.3902 41.9662 47.6781L42.3886 42.5651C42.398 42.451 42.3829 42.3362 42.3443 42.2284C42.3056 42.1206 42.2443 42.0223 42.1645 41.9402C42.0847 41.8581 41.9882 41.794 41.8816 41.7523C41.7749 41.7106 41.6606 41.6922 41.5462 41.6984L41.346 41.7092C40.5249 41.7539 39.7179 41.4814 39.092 40.948C38.4661 40.4145 38.0691 39.661 37.983 38.8431L37.7254 36.4029C37.7065 36.2231 37.6273 36.0551 37.5008 35.9259C37.3744 35.7968 37.208 35.7142 37.0286 35.6915L33.4709 35.2413C33.4614 35.24 33.4519 35.2391 33.4424 35.2382C31.2063 35.0361 29.572 33.5492 29.1229 31.3798L39.4913 30.4129L45.9656 32.9645C45.9847 32.972 46.0045 32.9785 46.0242 32.9851C46.2143 33.0433 46.3869 33.1477 46.5266 33.2891C46.6664 33.4304 46.7688 33.6043 46.8248 33.795C46.8274 33.8036 46.8299 33.8122 46.8328 33.8206L49.0605 40.54C49.1011 40.6623 49.1705 40.7731 49.263 40.8629C49.3554 40.9527 49.4681 41.0189 49.5916 41.0558L53.6101 42.2596L54.0702 40.7232L50.4516 39.6393L48.359 33.3279C48.2284 32.8914 47.9934 32.4933 47.6742 32.1682C47.355 31.8431 46.9612 31.6009 46.5272 31.4624L39.9011 28.8513C39.7841 28.8052 39.6579 28.7873 39.5327 28.7989L28.1405 29.8615C27.93 29.8812 27.7357 29.9833 27.6001 30.1456C27.4645 30.3078 27.3984 30.517 27.4164 30.7277L27.4242 30.8203C27.5626 32.4407 28.1846 33.8661 29.2238 34.9423C30.2753 36.0315 31.6787 36.6858 33.2838 36.8343L36.1977 37.203L36.3887 39.0117C36.5049 40.1161 36.9997 41.1463 37.789 41.9274C38.5784 42.7084 39.6137 43.1924 40.7192 43.2969L40.368 47.5462C40.2785 48.6145 40.5489 49.682 41.136 50.5789C41.7232 51.4758 42.5934 52.1506 43.6083 52.4959L52.3324 55.4732L52.9116 55.8606Z" fill="#EA5F66" fill-opacity="0.35"/>
<path d="M61.3826 43.1966L60.716 42.7508C60.6496 42.7063 60.5769 42.6721 60.5003 42.6492L55.6781 41.2047L55.2179 42.7411L59.9244 44.1507L60.4909 44.5297L61.3826 43.1966Z" fill="#EA5F66" fill-opacity="0.35"/>
</g>
<defs>
<clipPath id="clip0_1_69">
<rect width="51.3206" height="51.3206" fill="white" transform="translate(28.5329) rotate(33.7778)"/>
</clipPath>
</defs>
</svg>
