<svg width="50" height="51" viewBox="0 0 50 51" fill="none" xmlns="http://www.w3.org/2000/svg">
<g clip-path="url(#clip0_1_130)">
<path d="M22.5002 45.0451C27.0266 45.0497 31.4479 43.6811 35.1802 41.1201L42.886 48.826C43.6677 49.6077 44.728 50.0468 45.8335 50.0468C46.939 50.0468 47.9993 49.6077 48.781 48.826C49.5627 48.0442 50.0019 46.984 50.0019 45.8785C50.0019 44.7729 49.5627 43.7127 48.781 42.931L41.0752 35.2251C43.9057 31.0745 45.2651 26.0958 44.9368 21.0827C44.6085 16.0696 42.6113 11.3107 39.2637 7.56471C35.916 3.81873 31.4107 1.30133 26.4658 0.413836C21.521 -0.473656 16.4214 0.31986 11.98 2.66788C7.53861 5.01589 4.01116 8.78323 1.96 13.3693C-0.0911556 17.9553 -0.547926 23.0961 0.66251 27.9719C1.87295 32.8478 4.6809 37.178 8.63871 40.2723C12.5965 43.3666 17.4763 45.0469 22.5002 45.0451V45.0451ZM47.6027 44.1093C48.071 44.579 48.3339 45.2152 48.3339 45.8785C48.3339 46.5417 48.071 47.1779 47.6027 47.6476C47.1254 48.1014 46.4921 48.3544 45.8335 48.3544C45.175 48.3544 44.5416 48.1014 44.0644 47.6476L36.5319 40.1151C37.8377 39.0693 39.0243 37.8826 40.0702 36.5768L47.6027 44.1093ZM22.5002 1.71176C26.6206 1.71176 30.6485 2.93361 34.0746 5.22281C37.5006 7.51201 40.1709 10.7657 41.7477 14.5725C43.3245 18.3793 43.7371 22.5682 42.9332 26.6095C42.1294 30.6508 40.1452 34.3629 37.2316 37.2765C34.318 40.1901 30.6058 42.1743 26.5646 42.9781C22.5233 43.782 18.3344 43.3694 14.5276 41.7926C10.7208 40.2158 7.4671 37.5455 5.17791 34.1195C2.88871 30.6935 1.66686 26.6655 1.66686 22.5451C1.67303 17.0217 3.86995 11.7262 7.77562 7.82052C11.6813 3.91485 16.9767 1.71793 22.5002 1.71176V1.71176Z" fill="#05A2B5" fill-opacity="0.35"/>
<path d="M22.5 41.7118C26.2909 41.7118 29.9965 40.5877 33.1485 38.4816C36.3004 36.3756 38.7571 33.3821 40.2077 29.8799C41.6584 26.3776 42.038 22.5239 41.2984 18.8059C40.5589 15.0879 38.7334 11.6728 36.0529 8.99224C33.3724 6.31174 29.9572 4.48629 26.2393 3.74674C22.5213 3.00719 18.6675 3.38675 15.1653 4.83743C11.663 6.28811 8.6696 8.74475 6.56354 11.8967C4.45748 15.0486 3.33337 18.7543 3.33337 22.5451C3.33889 27.6267 5.36 32.4987 8.95325 36.0919C12.5465 39.6852 17.4184 41.7063 22.5 41.7118V41.7118ZM22.5 5.04512C25.9612 5.04512 29.3447 6.07148 32.2225 7.99441C35.1004 9.91733 37.3434 12.6505 38.6679 15.8482C39.9925 19.0459 40.339 22.5645 39.6638 25.9592C38.9885 29.3539 37.3218 32.4721 34.8744 34.9195C32.427 37.3669 29.3088 39.0336 25.9141 39.7089C22.5195 40.3841 19.0008 40.0376 15.8031 38.713C12.6054 37.3885 9.87225 35.1455 7.94932 32.2676C6.0264 29.3897 5.00004 26.0063 5.00004 22.5451C5.00533 17.9055 6.85078 13.4573 10.1315 10.1766C13.4123 6.89586 17.8604 5.05042 22.5 5.04512Z" fill="#05A2B5" fill-opacity="0.35"/>
<path d="M7.24996 25.7393L10.9558 28.1635C11.1679 28.3013 11.4154 28.3747 11.6683 28.3747C11.9212 28.3747 12.1687 28.3013 12.3808 28.1635L13.955 27.1335L17.7133 29.7327C17.5769 29.9377 17.5031 30.1781 17.5008 30.4243V34.6643C17.5011 34.878 17.5545 35.0882 17.6564 35.2761C17.7582 35.4639 17.9052 35.6234 18.0841 35.7402L21.79 38.1643C22.002 38.3022 22.2495 38.3755 22.5025 38.3755C22.7554 38.3755 23.0029 38.3022 23.215 38.1643L26.9208 35.7393C27.0996 35.6229 27.2466 35.4637 27.3485 35.2761C27.4503 35.0886 27.5038 34.8786 27.5041 34.6652V30.4235C27.5018 30.1772 27.4279 29.937 27.2916 29.7318L31.05 27.1327L32.6258 28.1635C32.8379 28.3013 33.0854 28.3747 33.3383 28.3747C33.5912 28.3747 33.8387 28.3013 34.0508 28.1635L37.7566 25.7385C37.9355 25.622 38.0824 25.4628 38.1843 25.2753C38.2861 25.0877 38.3396 24.8778 38.34 24.6643V20.4235C38.3396 20.2099 38.2861 19.9997 38.1843 19.8118C38.0825 19.624 37.9355 19.4645 37.7566 19.3477L34.0508 16.9235C33.8389 16.7853 33.5913 16.7117 33.3383 16.7117C33.0853 16.7117 32.8377 16.7853 32.6258 16.9235L30.4166 18.3643L26.7708 15.8327L26.9158 15.7377C27.0946 15.6212 27.2416 15.462 27.3435 15.2744C27.4453 15.0869 27.4988 14.8769 27.4991 14.6635V10.4235C27.4988 10.2099 27.4453 9.99966 27.3435 9.81185C27.2416 9.62403 27.0947 9.46452 26.9158 9.34767L23.2116 6.9235C22.9997 6.78527 22.7521 6.71167 22.4991 6.71167C22.2461 6.71167 21.9985 6.78527 21.7866 6.9235L18.0833 9.34934C17.9045 9.46586 17.7576 9.62508 17.6557 9.81262C17.5539 10.0002 17.5003 10.2101 17.5 10.4235V14.6635C17.5002 14.8772 17.5537 15.0874 17.6555 15.2752C17.7574 15.463 17.9044 15.6225 18.0833 15.7393L18.2266 15.8327L14.5833 18.3635L12.3816 16.9235C12.1697 16.7853 11.9221 16.7117 11.6691 16.7117C11.4161 16.7117 11.1685 16.7853 10.9566 16.9235L7.24996 19.3493C7.07118 19.4659 6.92423 19.6251 6.82239 19.8126C6.72055 20.0002 6.66702 20.2101 6.66663 20.4235V24.6635C6.66689 24.8772 6.72035 25.0874 6.8222 25.2752C6.92404 25.463 7.07105 25.6225 7.24996 25.7393V25.7393ZM8.33329 21.7502L10.8333 23.4427V26.0927L8.33329 24.4568V21.7502ZM12.5 26.0927V23.4427L15 21.7502V24.4568L12.5 26.0927ZM22.5 31.9943L19.8333 30.1918L22.5 28.4493L25.1666 30.1918L22.5 31.9943ZM19.1666 31.7502L21.6666 33.4427V36.0927L19.1666 34.4568V31.7502ZM23.3333 36.0927V33.4427L25.8333 31.7502V34.4568L23.3333 36.0927ZM30 21.7502L32.5 23.4427V26.0927L30 24.4568V21.7502ZM34.1666 26.0927V23.4427L36.6666 21.7502V24.4568L34.1666 26.0927ZM33.3333 18.4493L36 20.1918L33.3333 21.9943L30.6666 20.1918L33.3333 18.4493ZM19.1666 11.7502L21.6666 13.4427V16.0927L19.1666 14.4568V11.7502ZM23.3333 13.4427L25.8333 11.7502V14.4568L23.3333 16.0927V13.4427ZM22.5 8.44934L25.1666 10.1918L22.5 11.9943L19.8333 10.1918L22.5 8.44934ZM21.7883 18.1635C22.0004 18.3013 22.2479 18.3747 22.5008 18.3747C22.7537 18.3747 23.0012 18.3013 23.2133 18.1635L25.27 16.8177L28.9166 19.3485C28.7378 19.4652 28.5908 19.6245 28.489 19.8122C28.3871 19.9999 28.3336 20.21 28.3333 20.4235V24.6635C28.3336 24.8772 28.387 25.0874 28.4889 25.2752C28.5907 25.463 28.7377 25.6225 28.9166 25.7393L29.5416 26.1477L25.8883 28.6743L23.2125 26.9243C23.0005 26.7861 22.753 26.7125 22.5 26.7125C22.2469 26.7125 21.9994 26.7861 21.7875 26.9243L19.1133 28.6743L15.46 26.1477L16.0866 25.7377C16.2655 25.6212 16.4124 25.462 16.5143 25.2744C16.6161 25.0869 16.6696 24.8769 16.67 24.6635V20.4235C16.6697 20.21 16.6162 19.9998 16.5144 19.8122C16.4125 19.6245 16.2655 19.4651 16.0866 19.3485L19.7316 16.8168L21.7883 18.1635ZM11.6666 18.4493L14.3333 20.1918L11.6666 21.9943L8.99996 20.1918L11.6666 18.4493Z" fill="#05A2B5" fill-opacity="0.35"/>
</g>
<defs>
<clipPath id="clip0_1_130">
<rect width="50" height="50" fill="white" transform="translate(0 0.045166)"/>
</clipPath>
</defs>
</svg>
